KarnataWesleyanMissionPress-Regular.ufo
<glyph name="ampersand" format="2">
  <advance width="869"/>
  <unicode hex="0026"/>
  <outline>
    <contour>
      <point x="469.393" y="84.751" type="curve"/>
      <point x="460.677" y="93.4671"/>
      <point x="453.704" y="93.4671"/>
      <point x="444.988" y="84.751" type="curve" smooth="yes"/>
      <point x="403.151" y="41.1707"/>
      <point x="347.369" y="9.79289"/>
      <point x="286.356" y="9.79289" type="curve" smooth="yes"/>
      <point x="150.386" y="9.79289"/>
      <point x="40.5633" y="84.751"/>
      <point x="40.5633" y="231.181" type="curve" smooth="yes"/>
      <point x="40.5633" y="386.327"/>
      <point x="200.939" y="501.379"/>
      <point x="251.492" y="539.729" type="curve" smooth="yes"/>
      <point x="260.208" y="546.702"/>
      <point x="263.694" y="553.675"/>
      <point x="258.465" y="565.878" type="curve" smooth="yes"/>
      <point x="209.655" y="682.673"/>
      <point x="234.06" y="874.426"/>
      <point x="366.544" y="874.426" type="curve" smooth="yes"/>
      <point x="438.016" y="874.426"/>
      <point x="509.487" y="822.13"/>
      <point x="509.487" y="747.172" type="curve" smooth="yes"/>
      <point x="509.487" y="640.836"/>
      <point x="462.421" y="604.228"/>
      <point x="392.692" y="562.391" type="curve"/>
      <point x="382.233" y="555.418"/>
      <point x="378.746" y="548.445"/>
      <point x="383.976" y="537.986" type="curve"/>
      <point x="425.813" y="445.596"/>
      <point x="474.623" y="344.49"/>
      <point x="516.46" y="250.356" type="curve"/>
      <point x="521.69" y="239.897"/>
      <point x="526.919" y="239.897"/>
      <point x="533.892" y="248.613" type="curve" smooth="yes"/>
      <point x="575.729" y="302.653"/>
      <point x="631.512" y="374.124"/>
      <point x="631.512" y="440.366" type="curve" smooth="yes"/>
      <point x="631.512" y="496.149"/>
      <point x="589.675" y="515.324"/>
      <point x="546.095" y="515.324" type="curve" smooth="yes"/>
      <point x="532.149" y="515.324"/>
      <point x="532.149" y="537.986"/>
      <point x="546.095" y="537.986" type="curve" smooth="yes"/>
      <point x="816.293" y="537.986" type="line" smooth="yes"/>
      <point x="831.981" y="537.986"/>
      <point x="831.981" y="515.324"/>
      <point x="816.293" y="515.324" type="curve" smooth="yes"/>
      <point x="763.996" y="515.324" type="line" smooth="yes"/>
      <point x="716.93" y="515.324"/>
      <point x="687.295" y="436.88"/>
      <point x="669.863" y="407.245" type="curve" smooth="yes"/>
      <point x="654.174" y="379.354"/>
      <point x="605.364" y="286.964"/>
      <point x="544.352" y="213.749" type="curve" smooth="yes"/>
      <point x="537.379" y="205.033"/>
      <point x="533.892" y="194.573"/>
      <point x="537.379" y="182.371" type="curve" smooth="yes"/>
      <point x="551.324" y="135.304"/>
      <point x="568.756" y="72.5485"/>
      <point x="617.566" y="65.5757" type="curve" smooth="yes"/>
      <point x="689.038" y="56.8596"/>
      <point x="727.389" y="177.141"/>
      <point x="743.078" y="225.951" type="curve" smooth="yes"/>
      <point x="753.537" y="259.072"/>
      <point x="777.942" y="267.788"/>
      <point x="777.942" y="227.694" type="curve" smooth="yes"/>
      <point x="777.942" y="131.818"/>
      <point x="697.754" y="9.79289"/>
      <point x="598.391" y="9.79289" type="curve" smooth="yes"/>
      <point x="544.352" y="9.79289"/>
      <point x="504.258" y="46.4003"/>
    </contour>
    <contour>
      <point x="312.504" y="712.307" type="curve" smooth="yes"/>
      <point x="321.22" y="654.781"/>
      <point x="352.598" y="602.485"/>
      <point x="371.774" y="614.687" type="curve" smooth="yes"/>
      <point x="431.043" y="653.038"/>
      <point x="455.448" y="703.591"/>
      <point x="446.732" y="768.09" type="curve" smooth="yes"/>
      <point x="441.502" y="809.927"/>
      <point x="413.611" y="827.359"/>
      <point x="371.774" y="827.359" type="curve" smooth="yes"/>
      <point x="321.22" y="827.359"/>
      <point x="303.788" y="771.577"/>
    </contour>
    <contour>
      <point x="424.07" y="126.588" type="curve" smooth="yes"/>
      <point x="431.043" y="135.304"/>
      <point x="431.043" y="145.763"/>
      <point x="425.813" y="157.966" type="curve" smooth="yes"/>
      <point x="396.179" y="227.694"/>
      <point x="315.991" y="417.704"/>
      <point x="288.099" y="485.69" type="curve" smooth="yes"/>
      <point x="282.87" y="497.892"/>
      <point x="275.897" y="497.892"/>
      <point x="265.438" y="492.663" type="curve"/>
      <point x="209.655" y="459.542"/>
      <point x="148.642" y="361.922"/>
      <point x="139.926" y="307.882" type="curve" smooth="yes"/>
      <point x="117.265" y="184.114"/>
      <point x="178.277" y="51.63"/>
      <point x="291.586" y="51.63" type="curve" smooth="yes"/>
      <point x="326.45" y="51.63"/>
      <point x="396.179" y="89.9806"/>
    </contour>
  </outline>
</glyph>
<glyph name="three" format="2">
  <advance width="552"/>
  <unicode hex="0033"/>
  <outline>
    <contour>
      <point x="40.711" y="130.182" type="curve" smooth="yes"/>
      <point x="40.711" y="255.946"/>
      <point x="173.182" y="244.208"/>
      <point x="168.152" y="167.073" type="curve" smooth="yes"/>
      <point x="164.798" y="120.121"/>
      <point x="131.261" y="111.737"/>
      <point x="131.261" y="58.0776" type="curve" smooth="yes"/>
      <point x="131.261" y="42.9859"/>
      <point x="178.213" y="12.8026"/>
      <point x="230.195" y="12.8026" type="curve" smooth="yes"/>
      <point x="305.653" y="12.8026"/>
      <point x="419.679" y="83.2304"/>
      <point x="399.557" y="220.732" type="curve" smooth="yes"/>
      <point x="377.758" y="363.264"/>
      <point x="275.47" y="338.112"/>
      <point x="188.274" y="349.85" type="curve"/>
      <point x="171.505" y="351.526"/>
      <point x="168.152" y="363.264"/>
      <point x="181.566" y="368.295" type="curve"/>
      <point x="265.409" y="405.186"/>
      <point x="384.465" y="442.076"/>
      <point x="384.465" y="546.041" type="curve" smooth="yes"/>
      <point x="384.465" y="686.897"/>
      <point x="238.579" y="670.128"/>
      <point x="171.505" y="639.945" type="curve"/>
      <point x="166.475" y="638.268"/>
      <point x="208.396" y="629.884"/>
      <point x="203.365" y="564.487" type="curve" smooth="yes"/>
      <point x="196.658" y="470.583"/>
      <point x="77.6017" y="465.552"/>
      <point x="77.6017" y="546.041" type="curve" smooth="yes"/>
      <point x="77.6017" y="733.849"/>
      <point x="491.784" y="742.233"/>
      <point x="491.784" y="564.487" type="curve" smooth="yes"/>
      <point x="491.784" y="401.832"/>
      <point x="312.361" y="386.74"/>
      <point x="330.806" y="383.387" type="curve" smooth="yes"/>
      <point x="357.636" y="378.356"/>
      <point x="496.814" y="378.356"/>
      <point x="510.229" y="220.732" type="curve" smooth="yes"/>
      <point x="533.705" y="-54.2714"/>
      <point x="40.711" y="-69.3631"/>
    </contour>
  </outline>
</glyph>
<glyph name="nine" format="2">
  <advance width="525"/>
  <unicode hex="0039"/>
  <outline>
    <contour>
      <point x="40.2725" y="425.616" type="curve" smooth="yes"/>
      <point x="40.2725" y="586.808"/>
      <point x="109.096" y="682.799"/>
      <point x="261.232" y="682.799" type="curve" smooth="yes"/>
      <point x="404.313" y="682.799"/>
      <point x="484.003" y="530.663"/>
      <point x="484.003" y="391.204" type="curve" smooth="yes"/>
      <point x="484.003" y="217.334"/>
      <point x="386.201" y="1.80809"/>
      <point x="199.653" y="1.80809" type="curve" smooth="yes"/>
      <point x="141.697" y="1.80809"/>
      <point x="56.5728" y="-1.81421"/>
      <point x="56.5728" y="86.9319" type="curve" smooth="yes"/>
      <point x="56.5728" y="119.533"/>
      <point x="78.3065" y="153.944"/>
      <point x="119.963" y="153.944" type="curve" smooth="yes"/>
      <point x="181.542" y="153.944"/>
      <point x="203.276" y="54.3313"/>
      <point x="136.263" y="36.2199" type="curve"/>
      <point x="127.207" y="34.4087"/>
      <point x="168.864" y="34.4087"/>
      <point x="188.786" y="36.2199" type="curve" smooth="yes"/>
      <point x="366.279" y="50.709"/>
      <point x="391.635" y="284.347"/>
      <point x="391.635" y="425.616" type="curve" smooth="yes"/>
      <point x="391.635" y="517.985"/>
      <point x="377.146" y="646.576"/>
      <point x="261.232" y="646.576" type="curve" smooth="yes"/>
      <point x="163.43" y="646.576"/>
      <point x="130.83" y="503.495"/>
      <point x="130.83" y="425.616" type="curve" smooth="yes"/>
      <point x="130.83" y="327.814"/>
      <point x="168.864" y="248.124"/>
      <point x="284.777" y="268.046" type="curve"/>
      <point x="302.889" y="271.669"/>
      <point x="340.923" y="268.046"/>
      <point x="301.077" y="258.991" type="curve" smooth="yes"/>
      <point x="185.164" y="231.824"/>
      <point x="40.2725" y="268.046"/>
    </contour>
  </outline>
</glyph>
<glyph name="G" format="2">
  <advance width="747"/>
  <unicode hex="0047"/>
  <outline>
    <contour>
      <point x="546" y="727" type="curve"/>
      <point x="548" y="736"/>
      <point x="553" y="740"/>
      <point x="562" y="740" type="curve"/>
      <point x="562" y="740" type="line"/>
      <point x="571" y="740"/>
      <point x="575" y="735"/>
      <point x="575" y="726" type="curve" smooth="yes"/>
      <point x="575" y="438" type="line" smooth="yes"/>
      <point x="575" y="429"/>
      <point x="571" y="425"/>
      <point x="562" y="425" type="curve" smooth="yes"/>
      <point x="558" y="425" type="line" smooth="yes"/>
      <point x="549" y="425"/>
      <point x="544" y="429"/>
      <point x="543" y="438" type="curve"/>
      <point x="532" y="510"/>
      <point x="461" y="695"/>
      <point x="321" y="695" type="curve" smooth="yes"/>
      <point x="174" y="695"/>
      <point x="147" y="477"/>
      <point x="147" y="361" type="curve" smooth="yes"/>
      <point x="147" y="249"/>
      <point x="181" y="46"/>
      <point x="355" y="46" type="curve" smooth="yes"/>
      <point x="455" y="46"/>
      <point x="504" y="109"/>
      <point x="504" y="208" type="curve" smooth="yes"/>
      <point x="504" y="232"/>
      <point x="504" y="294"/>
      <point x="504" y="321" type="curve" smooth="yes"/>
      <point x="504" y="330"/>
      <point x="500" y="334"/>
      <point x="491" y="334" type="curve" smooth="yes"/>
      <point x="357" y="334" type="line" smooth="yes"/>
      <point x="348" y="334"/>
      <point x="344" y="338"/>
      <point x="344" y="347" type="curve" smooth="yes"/>
      <point x="344" y="352" type="line" smooth="yes"/>
      <point x="344" y="361"/>
      <point x="348" y="365"/>
      <point x="357" y="365" type="curve" smooth="yes"/>
      <point x="714" y="365" type="line" smooth="yes"/>
      <point x="723" y="365"/>
      <point x="727" y="361"/>
      <point x="727" y="352" type="curve" smooth="yes"/>
      <point x="727" y="350"/>
      <point x="727" y="349"/>
      <point x="727" y="347" type="curve" smooth="yes"/>
      <point x="727" y="338"/>
      <point x="723" y="334"/>
      <point x="714" y="334" type="curve" smooth="yes"/>
      <point x="686" y="334"/>
      <point x="641" y="334"/>
      <point x="612" y="334" type="curve" smooth="yes"/>
      <point x="603" y="334"/>
      <point x="599" y="330"/>
      <point x="599" y="321" type="curve" smooth="yes"/>
      <point x="601" y="-10" type="line" smooth="yes"/>
      <point x="601" y="-19"/>
      <point x="599" y="-20"/>
      <point x="594" y="-12" type="curve"/>
      <point x="577" y="17"/>
      <point x="566" y="36"/>
      <point x="545" y="69" type="curve"/>
      <point x="540" y="76"/>
      <point x="535" y="77"/>
      <point x="528" y="71" type="curve"/>
      <point x="481" y="27"/>
      <point x="421" y="-3"/>
      <point x="355" y="-3" type="curve" smooth="yes"/>
      <point x="141" y="-3"/>
      <point x="20" y="142"/>
      <point x="20" y="361" type="curve" smooth="yes"/>
      <point x="20" y="535"/>
      <point x="115" y="742"/>
      <point x="306" y="742" type="curve" smooth="yes"/>
      <point x="384" y="742"/>
      <point x="432" y="679"/>
      <point x="496" y="679" type="curve" smooth="yes"/>
      <point x="524" y="679"/>
      <point x="539" y="703"/>
    </contour>
  </outline>
</glyph>
<glyph name="H" format="2">
  <advance width="1074"/>
  <unicode hex="0048"/>
  <outline>
    <contour>
      <point x="75.9972" y="711.143" type="line" smooth="yes"/>
      <point x="75.9972" y="703.648"/>
      <point x="79.2093" y="700.436"/>
      <point x="86.704" y="700.436" type="curve" smooth="yes"/>
      <point x="219.468" y="700.436" type="line" smooth="yes"/>
      <point x="226.963" y="700.436"/>
      <point x="230.175" y="697.224"/>
      <point x="230.175" y="689.729" type="curve" smooth="yes"/>
      <point x="230.175" y="41.9685" type="line" smooth="yes"/>
      <point x="230.175" y="34.4738"/>
      <point x="226.963" y="31.2617"/>
      <point x="219.468" y="31.2617" type="curve" smooth="yes"/>
      <point x="86.704" y="31.2617" type="line" smooth="yes"/>
      <point x="79.2093" y="31.2617"/>
      <point x="75.9972" y="28.0497"/>
      <point x="75.9972" y="20.5549" type="curve" smooth="yes"/>
      <point x="75.9972" y="10.9188" type="line" smooth="yes"/>
      <point x="75.9972" y="3.42407"/>
      <point x="79.2093" y="0.212037"/>
      <point x="86.704" y="0.212037" type="curve" smooth="yes"/>
      <point x="511.764" y="0.212037" type="line" smooth="yes"/>
      <point x="519.258" y="0.212037"/>
      <point x="522.47" y="3.42407"/>
      <point x="522.47" y="10.9188" type="curve" smooth="yes"/>
      <point x="522.47" y="20.5549" type="line" smooth="yes"/>
      <point x="522.47" y="28.0497"/>
      <point x="519.258" y="31.2617"/>
      <point x="511.764" y="31.2617" type="curve" smooth="yes"/>
      <point x="378.999" y="31.2617" type="line" smooth="yes"/>
      <point x="371.505" y="31.2617"/>
      <point x="368.293" y="34.4738"/>
      <point x="368.293" y="41.9685" type="curve" smooth="yes"/>
      <point x="368.293" y="689.729" type="line" smooth="yes"/>
      <point x="368.293" y="697.224"/>
      <point x="371.505" y="700.436"/>
      <point x="378.999" y="700.436" type="curve" smooth="yes"/>
      <point x="511.764" y="700.436" type="line" smooth="yes"/>
      <point x="519.258" y="700.436"/>
      <point x="522.47" y="703.648"/>
      <point x="522.47" y="711.143" type="curve" smooth="yes"/>
      <point x="522.47" y="720.779" type="line" smooth="yes"/>
      <point x="522.47" y="728.274"/>
      <point x="519.258" y="731.486"/>
      <point x="511.764" y="731.486" type="curve" smooth="yes"/>
      <point x="86.704" y="731.486" type="line" smooth="yes"/>
      <point x="79.2093" y="731.486"/>
      <point x="75.9972" y="728.274"/>
      <point x="75.9972" y="720.779" type="curve" smooth="yes"/>
    </contour>
    <contour>
      <point x="551.997" y="711.143" type="line" smooth="yes"/>
      <point x="551.997" y="703.648"/>
      <point x="555.209" y="700.436"/>
      <point x="562.704" y="700.436" type="curve" smooth="yes"/>
      <point x="695.468" y="700.436" type="line" smooth="yes"/>
      <point x="702.963" y="700.436"/>
      <point x="706.175" y="697.224"/>
      <point x="706.175" y="689.729" type="curve" smooth="yes"/>
      <point x="706.175" y="41.9685" type="line" smooth="yes"/>
      <point x="706.175" y="34.4738"/>
      <point x="702.963" y="31.2617"/>
      <point x="695.468" y="31.2617" type="curve" smooth="yes"/>
      <point x="562.704" y="31.2617" type="line" smooth="yes"/>
      <point x="555.209" y="31.2617"/>
      <point x="551.997" y="28.0497"/>
      <point x="551.997" y="20.5549" type="curve" smooth="yes"/>
      <point x="551.997" y="10.9188" type="line" smooth="yes"/>
      <point x="551.997" y="3.42407"/>
      <point x="555.209" y="0.212037"/>
      <point x="562.704" y="0.212037" type="curve" smooth="yes"/>
      <point x="987.764" y="0.212037" type="line" smooth="yes"/>
      <point x="995.258" y="0.212037"/>
      <point x="998.47" y="3.42407"/>
      <point x="998.47" y="10.9188" type="curve" smooth="yes"/>
      <point x="998.47" y="20.5549" type="line" smooth="yes"/>
      <point x="998.47" y="28.0497"/>
      <point x="995.258" y="31.2617"/>
      <point x="987.764" y="31.2617" type="curve" smooth="yes"/>
      <point x="854.999" y="31.2617" type="line" smooth="yes"/>
      <point x="847.505" y="31.2617"/>
      <point x="844.293" y="34.4738"/>
      <point x="844.293" y="41.9685" type="curve" smooth="yes"/>
      <point x="844.293" y="689.729" type="line" smooth="yes"/>
      <point x="844.293" y="697.224"/>
      <point x="847.505" y="700.436"/>
      <point x="854.999" y="700.436" type="curve" smooth="yes"/>
      <point x="987.764" y="700.436" type="line" smooth="yes"/>
      <point x="995.258" y="700.436"/>
      <point x="998.47" y="703.648"/>
      <point x="998.47" y="711.143" type="curve" smooth="yes"/>
      <point x="998.47" y="720.779" type="line" smooth="yes"/>
      <point x="998.47" y="728.274"/>
      <point x="995.258" y="731.486"/>
      <point x="987.764" y="731.486" type="curve" smooth="yes"/>
      <point x="562.704" y="731.486" type="line" smooth="yes"/>
      <point x="555.209" y="731.486"/>
      <point x="551.997" y="728.274"/>
      <point x="551.997" y="720.779" type="curve" smooth="yes"/>
    </contour>
    <contour>
      <point x="286" y="366" type="line"/>
      <point x="736" y="366" type="line"/>
      <point x="736" y="386" type="line"/>
      <point x="286" y="386" type="line"/>
    </contour>
  </outline>
</glyph>
<glyph name="K" format="2">
  <advance width="888"/>
  <unicode hex="004B"/>
  <outline>
    <contour>
      <point x="75.9972" y="711.143" type="line" smooth="yes"/>
      <point x="75.9972" y="703.648"/>
      <point x="79.2093" y="700.436"/>
      <point x="86.704" y="700.436" type="curve" smooth="yes"/>
      <point x="219.468" y="700.436" type="line" smooth="yes"/>
      <point x="226.963" y="700.436"/>
      <point x="230.175" y="697.224"/>
      <point x="230.175" y="689.729" type="curve" smooth="yes"/>
      <point x="230.175" y="41.9685" type="line" smooth="yes"/>
      <point x="230.175" y="34.4738"/>
      <point x="226.963" y="31.2617"/>
      <point x="219.468" y="31.2617" type="curve" smooth="yes"/>
      <point x="86.704" y="31.2617" type="line" smooth="yes"/>
      <point x="79.2093" y="31.2617"/>
      <point x="75.9972" y="28.0497"/>
      <point x="75.9972" y="20.5549" type="curve" smooth="yes"/>
      <point x="75.9972" y="10.9188" type="line" smooth="yes"/>
      <point x="75.9972" y="3.42407"/>
      <point x="79.2093" y="0.212037"/>
      <point x="86.704" y="0.212037" type="curve" smooth="yes"/>
      <point x="511.764" y="0.212037" type="line" smooth="yes"/>
      <point x="519.258" y="0.212037"/>
      <point x="522.47" y="3.42407"/>
      <point x="522.47" y="10.9188" type="curve" smooth="yes"/>
      <point x="522.47" y="20.5549" type="line" smooth="yes"/>
      <point x="522.47" y="28.0497"/>
      <point x="519.258" y="31.2617"/>
      <point x="511.764" y="31.2617" type="curve" smooth="yes"/>
      <point x="378.999" y="31.2617" type="line" smooth="yes"/>
      <point x="371.505" y="31.2617"/>
      <point x="368.293" y="34.4738"/>
      <point x="368.293" y="41.9685" type="curve" smooth="yes"/>
      <point x="368.293" y="689.729" type="line" smooth="yes"/>
      <point x="368.293" y="697.224"/>
      <point x="371.505" y="700.436"/>
      <point x="378.999" y="700.436" type="curve" smooth="yes"/>
      <point x="511.764" y="700.436" type="line" smooth="yes"/>
      <point x="519.258" y="700.436"/>
      <point x="522.47" y="703.648"/>
      <point x="522.47" y="711.143" type="curve" smooth="yes"/>
      <point x="522.47" y="720.779" type="line" smooth="yes"/>
      <point x="522.47" y="728.274"/>
      <point x="519.258" y="731.486"/>
      <point x="511.764" y="731.486" type="curve" smooth="yes"/>
      <point x="86.704" y="731.486" type="line" smooth="yes"/>
      <point x="79.2093" y="731.486"/>
      <point x="75.9972" y="728.274"/>
      <point x="75.9972" y="720.779" type="curve" smooth="yes"/>
    </contour>
    <contour>
      <point x="767" y="701" type="line" smooth="yes"/>
      <point x="774" y="701"/>
      <point x="777" y="704"/>
      <point x="777" y="711" type="curve" smooth="yes"/>
      <point x="777" y="721" type="line" smooth="yes"/>
      <point x="777" y="728"/>
      <point x="774" y="731"/>
      <point x="767" y="731" type="curve" smooth="yes"/>
      <point x="557" y="731" type="line" smooth="yes"/>
      <point x="550" y="731"/>
      <point x="547" y="728"/>
      <point x="547" y="721" type="curve" smooth="yes"/>
      <point x="547" y="711" type="line" smooth="yes"/>
      <point x="547" y="704"/>
      <point x="550" y="701"/>
      <point x="557" y="701" type="curve" smooth="yes"/>
      <point x="598" y="701" type="line" smooth="yes"/>
      <point x="637" y="701"/>
      <point x="651" y="685"/>
      <point x="622" y="648" type="curve" smooth="yes"/>
      <point x="330" y="275" type="line"/>
      <point x="359" y="275" type="line"/>
      <point x="422" y="353" type="line" smooth="yes"/>
      <point x="426" y="358"/>
      <point x="430" y="359"/>
      <point x="433" y="353" type="curve"/>
      <point x="616" y="38" type="line"/>
      <point x="619" y="32"/>
      <point x="618" y="30"/>
      <point x="611" y="30" type="curve" smooth="yes"/>
      <point x="558" y="30" type="line" smooth="yes"/>
      <point x="551" y="30"/>
      <point x="548" y="27"/>
      <point x="548" y="20" type="curve" smooth="yes"/>
      <point x="548" y="10" type="line" smooth="yes"/>
      <point x="548" y="3"/>
      <point x="551" y="0"/>
      <point x="558" y="0" type="curve" smooth="yes"/>
      <point x="828" y="0" type="line" smooth="yes"/>
      <point x="835" y="0"/>
      <point x="838" y="3"/>
      <point x="838" y="10" type="curve" smooth="yes"/>
      <point x="838" y="20" type="line" smooth="yes"/>
      <point x="838" y="27"/>
      <point x="835" y="30"/>
      <point x="828" y="30" type="curve" smooth="yes"/>
      <point x="759" y="30" type="line" smooth="yes"/>
      <point x="752" y="30"/>
      <point x="747" y="32"/>
      <point x="744" y="38" type="curve"/>
      <point x="498" y="449" type="line"/>
      <point x="497" y="442" type="line"/>
      <point x="696" y="693" type="line" smooth="yes"/>
      <point x="700" y="698"/>
      <point x="705" y="701"/>
      <point x="712" y="701" type="curve" smooth="yes"/>
    </contour>
  </outline>
</glyph>
<glyph name="M" format="2">
  <advance width="1099"/>
  <unicode hex="004D"/>
  <outline>
    <contour>
      <point x="731.034" y="46.9685" type="line" smooth="yes"/>
      <point x="731.034" y="39.4738"/>
      <point x="727.822" y="36.2617"/>
      <point x="720.327" y="36.2617" type="curve" smooth="yes"/>
      <point x="587.563" y="36.2617" type="line" smooth="yes"/>
      <point x="580.068" y="36.2617"/>
      <point x="576.856" y="33.0497"/>
      <point x="576.856" y="25.5549" type="curve" smooth="yes"/>
      <point x="576.856" y="15.9188" type="line" smooth="yes"/>
      <point x="576.856" y="8.42407"/>
      <point x="580.068" y="5.21204"/>
      <point x="587.563" y="5.21204" type="curve" smooth="yes"/>
      <point x="1012.62" y="5.21204" type="line" smooth="yes"/>
      <point x="1020.12" y="5.21204"/>
      <point x="1023.33" y="8.42407"/>
      <point x="1023.33" y="15.9188" type="curve" smooth="yes"/>
      <point x="1023.33" y="25.5549" type="line" smooth="yes"/>
      <point x="1023.33" y="33.0497"/>
      <point x="1020.12" y="36.2617"/>
      <point x="1012.62" y="36.2617" type="curve" smooth="yes"/>
      <point x="879.858" y="36.2617" type="line" smooth="yes"/>
      <point x="872.363" y="36.2617"/>
      <point x="869.151" y="39.4738"/>
      <point x="869.151" y="46.9685" type="curve" smooth="yes"/>
      <point x="869.151" y="692.588" type="line" smooth="yes"/>
      <point x="869.151" y="700.083"/>
      <point x="872.363" y="703.295"/>
      <point x="879.858" y="703.295" type="curve" smooth="yes"/>
      <point x="1012.62" y="703.295" type="line" smooth="yes"/>
      <point x="1020.12" y="703.295"/>
      <point x="1023.33" y="706.507"/>
      <point x="1023.33" y="714.002" type="curve" smooth="yes"/>
      <point x="1023.33" y="722.567" type="line" smooth="yes"/>
      <point x="1023.33" y="730.062"/>
      <point x="1020.12" y="733.274"/>
      <point x="1012.62" y="733.274" type="curve" smooth="yes"/>
      <point x="741.74" y="733.274" type="line" smooth="yes"/>
      <point x="734.246" y="733.274"/>
      <point x="731.034" y="730.062"/>
      <point x="731.034" y="722.567" type="curve" smooth="yes"/>
    </contour>
    <contour>
      <point x="180" y="733" type="line" smooth="yes"/>
      <point x="173" y="733"/>
      <point x="170" y="730"/>
      <point x="170" y="723" type="curve" smooth="yes"/>
      <point x="170" y="713" type="line" smooth="yes"/>
      <point x="170" y="706"/>
      <point x="173" y="703"/>
      <point x="180" y="703" type="curve" smooth="yes"/>
      <point x="249" y="703" type="line" smooth="yes"/>
      <point x="256" y="703"/>
      <point x="260" y="700"/>
      <point x="262" y="693" type="curve"/>
      <point x="488" y="5" type="line"/>
      <point x="489" y="1"/>
      <point x="491" y="0"/>
      <point x="495" y="0" type="curve"/>
      <point x="495" y="0" type="line"/>
      <point x="499" y="0"/>
      <point x="502" y="2"/>
      <point x="503" y="5" type="curve" smooth="yes"/>
      <point x="733" y="703" type="line"/>
      <point x="733" y="703" type="line"/>
      <point x="798" y="703" type="line" smooth="yes"/>
      <point x="805" y="703"/>
      <point x="808" y="706"/>
      <point x="808" y="713" type="curve" smooth="yes"/>
      <point x="808" y="723" type="line" smooth="yes"/>
      <point x="808" y="730"/>
      <point x="805" y="733"/>
      <point x="798" y="733" type="curve" smooth="yes"/>
      <point x="720" y="733" type="line" smooth="yes"/>
      <point x="713" y="733"/>
      <point x="710" y="730"/>
      <point x="708" y="723" type="curve" smooth="yes"/>
      <point x="699" y="691"/>
      <point x="689" y="666"/>
      <point x="678" y="633" type="curve" smooth="yes"/>
      <point x="530" y="178" type="line"/>
      <point x="540" y="178" type="line"/>
      <point x="360" y="724" type="line" smooth="yes"/>
      <point x="358" y="730"/>
      <point x="354" y="733"/>
      <point x="347" y="733" type="curve" smooth="yes"/>
    </contour>
    <contour>
      <point x="259.828" y="722.567" type="line" smooth="yes"/>
      <point x="259.828" y="730.062"/>
      <point x="256.616" y="733.274"/>
      <point x="249.121" y="733.274" type="curve" smooth="yes"/>
      <point x="86.3777" y="733.274" type="line" smooth="yes"/>
      <point x="78.883" y="733.274"/>
      <point x="75.671" y="730.062"/>
      <point x="75.671" y="722.567" type="curve" smooth="yes"/>
      <point x="75.671" y="714.002" type="line" smooth="yes"/>
      <point x="75.671" y="706.507"/>
      <point x="78.883" y="703.295"/>
      <point x="86.3777" y="703.295" type="curve" smooth="yes"/>
      <point x="219.142" y="703.295" type="line" smooth="yes"/>
      <point x="226.637" y="703.295"/>
      <point x="229.849" y="700.083"/>
      <point x="229.849" y="692.588" type="curve" smooth="yes"/>
      <point x="229.849" y="89.7957" type="line" smooth="yes"/>
      <point x="229.849" y="54.4633"/>
      <point x="211.647" y="36.2617"/>
      <point x="176.315" y="36.2617" type="curve" smooth="yes"/>
      <point x="86.3777" y="36.2617" type="line" smooth="yes"/>
      <point x="78.883" y="36.2617"/>
      <point x="75.671" y="33.0497"/>
      <point x="75.671" y="25.5549" type="curve" smooth="yes"/>
      <point x="75.671" y="15.9188" type="line" smooth="yes"/>
      <point x="75.671" y="8.42407"/>
      <point x="78.883" y="5.21204"/>
      <point x="86.3777" y="5.21204" type="curve" smooth="yes"/>
      <point x="405.44" y="5.21204" type="line" smooth="yes"/>
      <point x="412.935" y="5.21204"/>
      <point x="416.147" y="8.42407"/>
      <point x="416.147" y="15.9188" type="curve" smooth="yes"/>
      <point x="416.147" y="25.5549" type="line" smooth="yes"/>
      <point x="416.147" y="33.0497"/>
      <point x="412.935" y="36.2617"/>
      <point x="405.44" y="36.2617" type="curve" smooth="yes"/>
      <point x="313.362" y="36.2617" type="line" smooth="yes"/>
      <point x="278.029" y="36.2617"/>
      <point x="259.828" y="54.4633"/>
      <point x="259.828" y="89.7957" type="curve" smooth="yes"/>
    </contour>
  </outline>
</glyph>
<glyph name="T" format="2">
  <advance width="760"/>
  <unicode hex="0054"/>
  <outline>
    <component base="I" xOffset="76" yOffset="-7"/>
    <contour>
      <point x="340" y="724" type="line" smooth="yes"/>
      <point x="340" y="731"/>
      <point x="343" y="734"/>
      <point x="350" y="734" type="curve" smooth="yes"/>
      <point x="700" y="734" type="line" smooth="yes"/>
      <point x="707" y="734"/>
      <point x="710" y="731"/>
      <point x="710" y="724" type="curve" smooth="yes"/>
      <point x="710" y="483" type="line" smooth="yes"/>
      <point x="710" y="476"/>
      <point x="707" y="473"/>
      <point x="700" y="473" type="curve" smooth="yes"/>
      <point x="695" y="473" type="line" smooth="yes"/>
      <point x="688" y="473"/>
      <point x="685" y="476"/>
      <point x="685" y="483" type="curve" smooth="yes"/>
      <point x="681" y="641"/>
      <point x="648" y="703"/>
      <point x="493" y="703" type="curve" smooth="yes"/>
      <point x="415" y="703"/>
      <point x="380" y="703"/>
      <point x="350" y="703" type="curve" smooth="yes"/>
      <point x="343" y="703"/>
      <point x="340" y="706"/>
      <point x="340" y="713" type="curve" smooth="yes"/>
    </contour>
    <contour>
      <point x="380" y="713" type="line" smooth="yes"/>
      <point x="380" y="706"/>
      <point x="377" y="703"/>
      <point x="370" y="703" type="curve" smooth="yes"/>
      <point x="347" y="703"/>
      <point x="344" y="703"/>
      <point x="267" y="703" type="curve" smooth="yes"/>
      <point x="112" y="703"/>
      <point x="79" y="641"/>
      <point x="75" y="483" type="curve" smooth="yes"/>
      <point x="75" y="476"/>
      <point x="72" y="473"/>
      <point x="65" y="473" type="curve" smooth="yes"/>
      <point x="60" y="473" type="line" smooth="yes"/>
      <point x="53" y="473"/>
      <point x="50" y="476"/>
      <point x="50" y="483" type="curve" smooth="yes"/>
      <point x="50" y="724" type="line" smooth="yes"/>
      <point x="50" y="731"/>
      <point x="53" y="734"/>
      <point x="60" y="734" type="curve" smooth="yes"/>
      <point x="370" y="734" type="line" smooth="yes"/>
      <point x="377" y="734"/>
      <point x="380" y="731"/>
      <point x="380" y="724" type="curve" smooth="yes"/>
    </contour>
  </outline>
</glyph>
<glyph name="V" format="2">
  <advance width="843"/>
  <unicode hex="0056"/>
  <outline>
    <contour>
      <point x="438" y="723" type="line" smooth="yes"/>
      <point x="438" y="730"/>
      <point x="435" y="733"/>
      <point x="428" y="733" type="curve" smooth="yes"/>
      <point x="60" y="733" type="line" smooth="yes"/>
      <point x="53" y="733"/>
      <point x="50" y="730"/>
      <point x="50" y="723" type="curve" smooth="yes"/>
      <point x="50" y="713" type="line" smooth="yes"/>
      <point x="50" y="706"/>
      <point x="53" y="703"/>
      <point x="60" y="703" type="curve" smooth="yes"/>
      <point x="180" y="703" type="line" smooth="yes"/>
      <point x="187" y="703"/>
      <point x="191" y="700"/>
      <point x="193" y="693" type="curve"/>
      <point x="419" y="7" type="line"/>
      <point x="421" y="2"/>
      <point x="423" y="0"/>
      <point x="428" y="0" type="curve"/>
      <point x="428" y="0" type="line"/>
      <point x="433" y="0"/>
      <point x="436" y="2"/>
      <point x="438" y="7" type="curve"/>
      <point x="655" y="665" type="line" smooth="yes"/>
      <point x="663" y="690"/>
      <point x="681" y="703"/>
      <point x="708" y="703" type="curve" smooth="yes"/>
      <point x="783" y="703" type="line" smooth="yes"/>
      <point x="790" y="703"/>
      <point x="793" y="706"/>
      <point x="793" y="713" type="curve" smooth="yes"/>
      <point x="793" y="723" type="line" smooth="yes"/>
      <point x="793" y="730"/>
      <point x="790" y="733"/>
      <point x="783" y="733" type="curve" smooth="yes"/>
      <point x="500" y="733" type="line" smooth="yes"/>
      <point x="493" y="733"/>
      <point x="490" y="730"/>
      <point x="490" y="723" type="curve" smooth="yes"/>
      <point x="490" y="713" type="line" smooth="yes"/>
      <point x="490" y="706"/>
      <point x="493" y="703"/>
      <point x="500" y="703" type="curve" smooth="yes"/>
      <point x="560" y="703" type="line" smooth="yes"/>
      <point x="609" y="703"/>
      <point x="626" y="678"/>
      <point x="612" y="635" type="curve"/>
      <point x="611" y="631"/>
      <point x="610" y="628"/>
      <point x="609" y="625" type="curve" smooth="yes"/>
      <point x="461" y="178" type="line"/>
      <point x="471" y="178" type="line"/>
      <point x="301" y="693" type="line"/>
      <point x="299" y="700"/>
      <point x="301" y="703"/>
      <point x="308" y="703" type="curve" smooth="yes"/>
      <point x="428" y="703" type="line" smooth="yes"/>
      <point x="435" y="703"/>
      <point x="438" y="706"/>
      <point x="438" y="713" type="curve" smooth="yes"/>
    </contour>
  </outline>
</glyph>
<glyph name="X" format="2">
  <advance width="750"/>
  <unicode hex="0058"/>
  <outline>
    <contour>
      <point x="643" y="694" type="line"/>
      <point x="647" y="700"/>
      <point x="651" y="703"/>
      <point x="658" y="703" type="curve" smooth="yes"/>
      <point x="717" y="703" type="line" smooth="yes"/>
      <point x="724" y="703"/>
      <point x="727" y="706"/>
      <point x="727" y="713" type="curve" smooth="yes"/>
      <point x="727" y="723" type="line" smooth="yes"/>
      <point x="727" y="730"/>
      <point x="724" y="733"/>
      <point x="717" y="733" type="curve" smooth="yes"/>
      <point x="447" y="733" type="line" smooth="yes"/>
      <point x="440" y="733"/>
      <point x="437" y="730"/>
      <point x="437" y="723" type="curve" smooth="yes"/>
      <point x="437" y="713" type="line" smooth="yes"/>
      <point x="437" y="706"/>
      <point x="440" y="703"/>
      <point x="447" y="703" type="curve" smooth="yes"/>
      <point x="518" y="703" type="line" smooth="yes"/>
      <point x="568" y="703"/>
      <point x="575" y="659"/>
      <point x="551" y="625" type="curve" smooth="yes"/>
      <point x="130" y="39" type="line"/>
      <point x="126" y="33"/>
      <point x="122" y="30"/>
      <point x="115" y="30" type="curve" smooth="yes"/>
      <point x="30" y="30" type="line" smooth="yes"/>
      <point x="23" y="30"/>
      <point x="20" y="27"/>
      <point x="20" y="20" type="curve" smooth="yes"/>
      <point x="20" y="10" type="line" smooth="yes"/>
      <point x="20" y="3"/>
      <point x="23" y="0"/>
      <point x="30" y="0" type="curve" smooth="yes"/>
      <point x="300" y="0" type="line" smooth="yes"/>
      <point x="307" y="0"/>
      <point x="310" y="3"/>
      <point x="310" y="10" type="curve" smooth="yes"/>
      <point x="310" y="20" type="line" smooth="yes"/>
      <point x="310" y="27"/>
      <point x="307" y="30"/>
      <point x="300" y="30" type="curve" smooth="yes"/>
      <point x="253" y="30" type="line" smooth="yes"/>
      <point x="207" y="30"/>
      <point x="189" y="66"/>
      <point x="219" y="108" type="curve" smooth="yes"/>
    </contour>
    <contour>
      <point x="465" y="108" type="line" smooth="yes"/>
      <point x="490" y="64"/>
      <point x="477" y="30"/>
      <point x="431" y="30" type="curve" smooth="yes"/>
      <point x="360" y="30" type="line" smooth="yes"/>
      <point x="353" y="30"/>
      <point x="350" y="27"/>
      <point x="350" y="20" type="curve" smooth="yes"/>
      <point x="350" y="10" type="line" smooth="yes"/>
      <point x="350" y="3"/>
      <point x="353" y="0"/>
      <point x="360" y="0" type="curve" smooth="yes"/>
      <point x="720" y="0" type="line" smooth="yes"/>
      <point x="727" y="0"/>
      <point x="730" y="3"/>
      <point x="730" y="10" type="curve" smooth="yes"/>
      <point x="730" y="20" type="line" smooth="yes"/>
      <point x="730" y="27"/>
      <point x="727" y="30"/>
      <point x="720" y="30" type="curve" smooth="yes"/>
      <point x="635" y="30" type="line" smooth="yes"/>
      <point x="628" y="30"/>
      <point x="623" y="33"/>
      <point x="620" y="39" type="curve"/>
      <point x="286" y="624" type="line" smooth="yes"/>
      <point x="266" y="659"/>
      <point x="269" y="702"/>
      <point x="319" y="702" type="curve" smooth="yes"/>
      <point x="390" y="702" type="line" smooth="yes"/>
      <point x="397" y="702"/>
      <point x="400" y="705"/>
      <point x="400" y="712" type="curve" smooth="yes"/>
      <point x="400" y="722" type="line" smooth="yes"/>
      <point x="400" y="729"/>
      <point x="397" y="732"/>
      <point x="390" y="732" type="curve" smooth="yes"/>
      <point x="30" y="732" type="line" smooth="yes"/>
      <point x="23" y="732"/>
      <point x="20" y="729"/>
      <point x="20" y="722" type="curve" smooth="yes"/>
      <point x="20" y="712" type="line" smooth="yes"/>
      <point x="20" y="705"/>
      <point x="23" y="702"/>
      <point x="30" y="702" type="curve" smooth="yes"/>
      <point x="113" y="702" type="line" smooth="yes"/>
      <point x="120" y="702"/>
      <point x="125" y="699"/>
      <point x="128" y="693" type="curve"/>
    </contour>
  </outline>
</glyph>
<glyph name="Y" format="2">
  <advance width="798"/>
  <unicode hex="0059"/>
  <outline>
    <contour>
      <point x="337.175" y="41.9685" type="line" smooth="yes"/>
      <point x="337.175" y="34.4738"/>
      <point x="333.963" y="31.2617"/>
      <point x="326.468" y="31.2617" type="curve" smooth="yes"/>
      <point x="193.704" y="31.2617" type="line" smooth="yes"/>
      <point x="186.209" y="31.2617"/>
      <point x="182.997" y="28.0497"/>
      <point x="182.997" y="20.5549" type="curve" smooth="yes"/>
      <point x="182.997" y="10.9188" type="line" smooth="yes"/>
      <point x="182.997" y="3.42407"/>
      <point x="186.209" y="0.212037"/>
      <point x="193.704" y="0.212037" type="curve" smooth="yes"/>
      <point x="618.764" y="0.212037" type="line" smooth="yes"/>
      <point x="626.258" y="0.212037"/>
      <point x="629.47" y="3.42407"/>
      <point x="629.47" y="10.9188" type="curve" smooth="yes"/>
      <point x="629.47" y="20.5549" type="line" smooth="yes"/>
      <point x="629.47" y="28.0497"/>
      <point x="626.258" y="31.2617"/>
      <point x="618.764" y="31.2617" type="curve" smooth="yes"/>
      <point x="483.858" y="31.2617" type="line" smooth="yes"/>
      <point x="476.363" y="31.2617"/>
      <point x="473.151" y="34.4738"/>
      <point x="473.151" y="41.9685" type="curve" smooth="yes"/>
      <point x="473.151" y="328.911" type="line"/>
      <point x="337.175" y="328.911" type="line"/>
    </contour>
    <contour>
      <point x="420" y="725.226" type="line" smooth="yes"/>
      <point x="420" y="730.484"/>
      <point x="417" y="732.737"/>
      <point x="410" y="732.737" type="curve" smooth="yes"/>
      <point x="60" y="732.737" type="line" smooth="yes"/>
      <point x="53" y="732.737"/>
      <point x="50" y="730.484"/>
      <point x="50" y="725.226" type="curve" smooth="yes"/>
      <point x="50" y="717.714" type="line" smooth="yes"/>
      <point x="50" y="712.456"/>
      <point x="53" y="710.203"/>
      <point x="60" y="710.203" type="curve" smooth="yes"/>
      <point x="159" y="710.203" type="line" smooth="yes"/>
      <point x="166" y="710.203"/>
      <point x="170" y="707.949"/>
      <point x="172" y="702.691" type="curve"/>
      <point x="397" y="191.159" type="line" smooth="yes"/>
      <point x="399" y="186.652"/>
      <point x="403" y="184.399"/>
      <point x="410" y="184.399" type="curve" smooth="yes"/>
      <point x="411" y="184.399" type="line" smooth="yes"/>
      <point x="418" y="184.399"/>
      <point x="422" y="186.652"/>
      <point x="424" y="191.159" type="curve" smooth="yes"/>
      <point x="650" y="702.691" type="line"/>
      <point x="652" y="707.949"/>
      <point x="656" y="710.203"/>
      <point x="663" y="710.203" type="curve" smooth="yes"/>
      <point x="738" y="710.203" type="line" smooth="yes"/>
      <point x="745" y="710.203"/>
      <point x="748" y="712.456"/>
      <point x="748" y="717.714" type="curve" smooth="yes"/>
      <point x="748" y="725.226" type="line" smooth="yes"/>
      <point x="748" y="730.484"/>
      <point x="745" y="732.737"/>
      <point x="738" y="732.737" type="curve" smooth="yes"/>
      <point x="448" y="732.737" type="line" smooth="yes"/>
      <point x="441" y="732.737"/>
      <point x="438" y="730.484"/>
      <point x="438" y="725.226" type="curve" smooth="yes"/>
      <point x="438" y="717.714" type="line" smooth="yes"/>
      <point x="438" y="712.456"/>
      <point x="441" y="710.203"/>
      <point x="448" y="710.203" type="curve" smooth="yes"/>
      <point x="539" y="710.203" type="line" smooth="yes"/>
      <point x="588" y="710.203"/>
      <point x="605" y="691.424"/>
      <point x="591" y="659.125" type="curve"/>
      <point x="590" y="656.12"/>
      <point x="589" y="653.867"/>
      <point x="588" y="651.613" type="curve" smooth="yes"/>
      <point x="440" y="318.103" type="line"/>
      <point x="470" y="318.103" type="line"/>
      <point x="300" y="702.691" type="line"/>
      <point x="298" y="707.949"/>
      <point x="300" y="710.203"/>
      <point x="307" y="710.203" type="curve" smooth="yes"/>
      <point x="410" y="710.203" type="line" smooth="yes"/>
      <point x="417" y="710.203"/>
      <point x="420" y="712.456"/>
      <point x="420" y="717.714" type="curve" smooth="yes"/>
    </contour>
  </outline>
</glyph>
<glyph name="b" format="2">
  <advance width="696"/>
  <unicode hex="0062"/>
  <outline>
    <contour>
      <point x="263.079" y="239.548" type="curve" smooth="yes"/>
      <point x="263.079" y="351.711"/>
      <point x="322.219" y="469.992"/>
      <point x="444.579" y="469.992" type="curve" smooth="yes"/>
      <point x="586.312" y="469.992"/>
      <point x="655.649" y="351.711"/>
      <point x="655.649" y="239.548" type="curve" smooth="yes"/>
      <point x="655.649" y="82.5197"/>
      <point x="586.312" y="-10.2697"/>
      <point x="444.579" y="-10.2697" type="curve" smooth="yes"/>
      <point x="342.612" y="-10.2697"/>
      <point x="263.079" y="82.5197"/>
    </contour>
    <contour>
      <point x="291.629" y="239.548" type="curve" smooth="yes"/>
      <point x="291.629" y="143.699"/>
      <point x="334.455" y="21.3399"/>
      <point x="440.5" y="21.3399" type="curve" smooth="yes"/>
      <point x="547.565" y="21.3399"/>
      <point x="581.213" y="143.699"/>
      <point x="581.213" y="239.548" type="curve" smooth="yes"/>
      <point x="581.213" y="319.081"/>
      <point x="547.565" y="441.441"/>
      <point x="440.5" y="441.441" type="curve" smooth="yes"/>
      <point x="328.337" y="441.441"/>
      <point x="291.629" y="319.081"/>
    </contour>
    <contour>
      <point x="60.9657" y="721.85" type="line" smooth="yes"/>
      <point x="60.9657" y="729.344"/>
      <point x="64.1778" y="732.557"/>
      <point x="71.6725" y="732.557" type="curve" smooth="yes"/>
      <point x="270.819" y="732.557" type="line" smooth="yes"/>
      <point x="278.314" y="732.557"/>
      <point x="281.526" y="729.344"/>
      <point x="281.526" y="721.85" type="curve" smooth="yes"/>
      <point x="281.526" y="117.987" type="line"/>
      <point x="281.526" y="117.987" type="line"/>
      <point x="201.225" y="6.63611" type="line"/>
      <point x="199.083" y="3.42407"/>
      <point x="194.801" y="1.28272"/>
      <point x="190.518" y="1.28272" type="curve"/>
      <point x="190.518" y="1.28272" type="line"/>
      <point x="186.235" y="1.28272"/>
      <point x="183.023" y="4.49475"/>
      <point x="183.023" y="8.77747" type="curve" smooth="yes"/>
      <point x="183.023" y="647.973" type="line" smooth="yes"/>
      <point x="183.023" y="683.305"/>
      <point x="164.822" y="701.507"/>
      <point x="129.489" y="701.507" type="curve" smooth="yes"/>
      <point x="71.6725" y="701.507" type="line" smooth="yes"/>
      <point x="64.1778" y="701.507"/>
      <point x="60.9657" y="704.719"/>
      <point x="60.9657" y="712.214" type="curve" smooth="yes"/>
    </contour>
  </outline>
</glyph>
<glyph name="c" format="2">
  <advance width="489"/>
  <unicode hex="0063"/>
  <outline>
    <contour>
      <point x="424.9" y="203.738" type="curve"/>
      <point x="426.608" y="210.57"/>
      <point x="430.878" y="213.986"/>
      <point x="437.71" y="213.986" type="curve" smooth="yes"/>
      <point x="439.418" y="213.986" type="line" smooth="yes"/>
      <point x="446.25" y="213.986"/>
      <point x="448.812" y="210.57"/>
      <point x="448.812" y="203.738" type="curve"/>
      <point x="442.834" y="97.8399"/>
      <point x="351.454" y="-5.49614"/>
      <point x="245.556" y="-5.49614" type="curve" smooth="yes"/>
      <point x="103.789" y="-5.49614"/>
      <point x="28.6359" y="122.606"/>
      <point x="41.4462" y="260.957" type="curve" smooth="yes"/>
      <point x="52.5484" y="384.789"/>
      <point x="136.242" y="472.753"/>
      <point x="245.556" y="480.439" type="curve" smooth="yes"/>
      <point x="328.396" y="486.417"/>
      <point x="417.213" y="449.695"/>
      <point x="417.213" y="354.899" type="curve" smooth="yes"/>
      <point x="417.213" y="318.176"/>
      <point x="402.695" y="277.183"/>
      <point x="355.724" y="277.183" type="curve" smooth="yes"/>
      <point x="313.877" y="277.183"/>
      <point x="304.483" y="301.096"/>
      <point x="304.483" y="323.3" type="curve" smooth="yes"/>
      <point x="304.483" y="350.629"/>
      <point x="320.71" y="358.315"/>
      <point x="321.564" y="387.351" type="curve" smooth="yes"/>
      <point x="323.272" y="426.636"/>
      <point x="284.841" y="433.468"/>
      <point x="260.928" y="433.468" type="curve" smooth="yes"/>
      <point x="166.987" y="433.468"/>
      <point x="143.074" y="338.673"/>
      <point x="136.242" y="277.183" type="curve" smooth="yes"/>
      <point x="120.87" y="151.643"/>
      <point x="151.614" y="41.4748"/>
      <point x="260.928" y="41.4748" type="curve" smooth="yes"/>
      <point x="351.454" y="41.4748"/>
      <point x="403.549" y="127.73"/>
    </contour>
  </outline>
  <guideline angle="0" x="0" y="477"/>
</glyph>
<glyph name="d" format="2">
  <advance width="695"/>
  <unicode hex="0064"/>
  <outline>
    <contour>
      <point x="439.83" y="241.8" type="curve" smooth="yes"/>
      <point x="439.83" y="353.055"/>
      <point x="381.168" y="470.379"/>
      <point x="259.799" y="470.379" type="curve" smooth="yes"/>
      <point x="119.213" y="470.379"/>
      <point x="50.4368" y="353.055"/>
      <point x="50.4368" y="241.8" type="curve" smooth="yes"/>
      <point x="50.4368" y="86.0425"/>
      <point x="119.213" y="-5.99586"/>
      <point x="259.799" y="-5.99586" type="curve" smooth="yes"/>
      <point x="360.94" y="-5.99586"/>
      <point x="439.83" y="86.0425"/>
    </contour>
    <contour>
      <point x="411.51" y="241.8" type="curve" smooth="yes"/>
      <point x="411.51" y="146.727"/>
      <point x="369.031" y="25.3579"/>
      <point x="263.844" y="25.3579" type="curve" smooth="yes"/>
      <point x="157.646" y="25.3579"/>
      <point x="124.27" y="146.727"/>
      <point x="124.27" y="241.8" type="curve" smooth="yes"/>
      <point x="124.27" y="320.69"/>
      <point x="157.646" y="442.059"/>
      <point x="263.844" y="442.059" type="curve" smooth="yes"/>
      <point x="375.1" y="442.059"/>
      <point x="411.51" y="320.69"/>
    </contour>
    <contour>
      <point x="304.542" y="711.143" type="line" smooth="yes"/>
      <point x="304.542" y="703.648"/>
      <point x="307.754" y="700.436"/>
      <point x="315.248" y="700.436" type="curve" smooth="yes"/>
      <point x="366.641" y="700.436" type="line" smooth="yes"/>
      <point x="401.973" y="700.436"/>
      <point x="420.175" y="682.235"/>
      <point x="420.175" y="646.902" type="curve" smooth="yes"/>
      <point x="420.175" y="10.9188" type="line" smooth="yes"/>
      <point x="420.175" y="3.42407"/>
      <point x="423.387" y="0.212037"/>
      <point x="430.882" y="0.212037" type="curve" smooth="yes"/>
      <point x="623.604" y="0.212037" type="line" smooth="yes"/>
      <point x="631.099" y="0.212037"/>
      <point x="634.311" y="3.42407"/>
      <point x="634.311" y="10.9188" type="curve" smooth="yes"/>
      <point x="634.311" y="20.5549" type="line" smooth="yes"/>
      <point x="634.311" y="28.0497"/>
      <point x="631.099" y="31.2617"/>
      <point x="623.604" y="31.2617" type="curve" smooth="yes"/>
      <point x="529.384" y="31.2617" type="line" smooth="yes"/>
      <point x="521.89" y="31.2617"/>
      <point x="518.677" y="34.4738"/>
      <point x="518.677" y="41.9685" type="curve" smooth="yes"/>
      <point x="518.677" y="720.779" type="line" smooth="yes"/>
      <point x="518.677" y="728.274"/>
      <point x="515.465" y="731.486"/>
      <point x="507.971" y="731.486" type="curve" smooth="yes"/>
      <point x="315.248" y="731.486" type="line" smooth="yes"/>
      <point x="307.754" y="731.486"/>
      <point x="304.542" y="728.274"/>
      <point x="304.542" y="720.779" type="curve" smooth="yes"/>
    </contour>
  </outline>
  <guideline angle="0" x="0" y="470"/>
</glyph>
<glyph name="e" format="2">
  <advance width="464"/>
  <unicode hex="0065"/>
  <outline>
    <contour>
      <point x="424" y="251" type="curve"/>
      <point x="424" y="244"/>
      <point x="421" y="241"/>
      <point x="414" y="241" type="curve" smooth="yes"/>
      <point x="326" y="241"/>
      <point x="235" y="241"/>
      <point x="147" y="241" type="curve" smooth="yes"/>
      <point x="140" y="241"/>
      <point x="137" y="238"/>
      <point x="137" y="231" type="curve" smooth="yes"/>
      <point x="137" y="152"/>
      <point x="156" y="49"/>
      <point x="259" y="49" type="curve" smooth="yes"/>
      <point x="336" y="49"/>
      <point x="388" y="92"/>
      <point x="399" y="179" type="curve" smooth="yes"/>
      <point x="400" y="186"/>
      <point x="403" y="189"/>
      <point x="410" y="189" type="curve"/>
      <point x="410" y="189" type="line"/>
      <point x="417" y="189"/>
      <point x="420" y="186"/>
      <point x="420" y="179" type="curve" smooth="yes"/>
      <point x="417" y="58"/>
      <point x="368" y="1"/>
      <point x="243" y="1" type="curve" smooth="yes"/>
      <point x="100" y="1"/>
      <point x="40" y="113"/>
      <point x="40" y="239" type="curve" smooth="yes"/>
      <point x="40" y="367"/>
      <point x="100" y="480"/>
      <point x="228" y="480" type="curve" smooth="yes"/>
      <point x="381" y="480"/>
      <point x="419" y="376"/>
    </contour>
    <contour>
      <point x="137" y="287" type="curve"/>
      <point x="137" y="280"/>
      <point x="140" y="277"/>
      <point x="147" y="277" type="curve" smooth="yes"/>
      <point x="201" y="277"/>
      <point x="262" y="277"/>
      <point x="316" y="277" type="curve" smooth="yes"/>
      <point x="323" y="277"/>
      <point x="327" y="280"/>
      <point x="327" y="287" type="curve"/>
      <point x="329" y="329"/>
      <point x="322" y="432"/>
      <point x="238" y="432" type="curve" smooth="yes"/>
      <point x="177" y="432"/>
      <point x="140" y="362"/>
    </contour>
  </outline>
  <guideline angle="0" x="0" y="480"/>
</glyph>
<glyph name="f" format="2">
  <advance width="532"/>
  <unicode hex="0066"/>
  <outline>
    <contour>
      <point x="50.5417" y="450.968" type="line" smooth="yes"/>
      <point x="50.5417" y="443.473"/>
      <point x="53.7537" y="440.261"/>
      <point x="61.2485" y="440.261" type="curve" smooth="yes"/>
      <point x="155.468" y="440.261" type="line" smooth="yes"/>
      <point x="162.963" y="440.261"/>
      <point x="166.175" y="437.049"/>
      <point x="166.175" y="429.554" type="curve" smooth="yes"/>
      <point x="166.175" y="41.9685" type="line" smooth="yes"/>
      <point x="166.175" y="34.4738"/>
      <point x="162.963" y="31.2617"/>
      <point x="155.468" y="31.2617" type="curve" smooth="yes"/>
      <point x="61.2485" y="31.2617" type="line" smooth="yes"/>
      <point x="53.7537" y="31.2617"/>
      <point x="50.5417" y="28.0497"/>
      <point x="50.5417" y="20.5549" type="curve" smooth="yes"/>
      <point x="50.5417" y="10.9188" type="line" smooth="yes"/>
      <point x="50.5417" y="3.42407"/>
      <point x="53.7537" y="0.212037"/>
      <point x="61.2485" y="0.212037" type="curve" smooth="yes"/>
      <point x="369.604" y="0.212037" type="line" smooth="yes"/>
      <point x="377.099" y="0.212037"/>
      <point x="380.311" y="3.42407"/>
      <point x="380.311" y="10.9188" type="curve" smooth="yes"/>
      <point x="380.311" y="20.5549" type="line" smooth="yes"/>
      <point x="380.311" y="28.0497"/>
      <point x="377.099" y="31.2617"/>
      <point x="369.604" y="31.2617" type="curve" smooth="yes"/>
      <point x="275.384" y="31.2617" type="line" smooth="yes"/>
      <point x="267.89" y="31.2617"/>
      <point x="264.677" y="34.4738"/>
      <point x="264.677" y="41.9685" type="curve" smooth="yes"/>
      <point x="264.677" y="429.554" type="line" smooth="yes"/>
      <point x="264.677" y="437.049"/>
      <point x="267.89" y="440.261"/>
      <point x="275.384" y="440.261" type="curve" smooth="yes"/>
      <point x="369.604" y="440.261" type="line" smooth="yes"/>
      <point x="377.099" y="440.261"/>
      <point x="380.311" y="443.473"/>
      <point x="380.311" y="450.968" type="curve" smooth="yes"/>
      <point x="380.311" y="460.604" type="line" smooth="yes"/>
      <point x="380.311" y="468.099"/>
      <point x="377.099" y="471.311"/>
      <point x="369.604" y="471.311" type="curve" smooth="yes"/>
      <point x="264.677" y="471.311" type="line"/>
      <point x="166.175" y="471.311" type="line"/>
      <point x="61.2485" y="471.311" type="line" smooth="yes"/>
      <point x="53.7537" y="471.311"/>
      <point x="50.5417" y="468.099"/>
      <point x="50.5417" y="460.604" type="curve" smooth="yes"/>
    </contour>
    <contour>
      <point x="164.724" y="491.134" type="curve" smooth="yes"/>
      <point x="164.724" y="469.254"/>
      <point x="164.724" y="470.621"/>
      <point x="164.724" y="447.373" type="curve"/>
      <point x="264.554" y="447.373" type="line"/>
      <point x="264.554" y="474.724"/>
      <point x="264.554" y="447.373"/>
      <point x="264.554" y="491.134" type="curve" smooth="yes"/>
      <point x="264.554" y="606.007"/>
      <point x="260.451" y="699"/>
      <point x="375.325" y="699" type="curve"/>
      <point x="361.649" y="681.222"/>
      <point x="349.341" y="657.974"/>
      <point x="349.341" y="636.093" type="curve" smooth="yes"/>
      <point x="349.341" y="592.332"/>
      <point x="379.427" y="563.614"/>
      <point x="423.188" y="569.084" type="curve" smooth="yes"/>
      <point x="462.847" y="574.554"/>
      <point x="475.155" y="607.375"/>
      <point x="471.052" y="640.196" type="curve" smooth="yes"/>
      <point x="461.479" y="718.145"/>
      <point x="398.573" y="731.821"/>
      <point x="339.769" y="731.821" type="curve" smooth="yes"/>
      <point x="205.75" y="731.821"/>
      <point x="164.724" y="611.478"/>
    </contour>
  </outline>
</glyph>
<glyph name="h" format="2">
  <advance width="687"/>
  <unicode hex="0068"/>
  <outline>
    <contour>
      <point x="60.1778" y="713.284" type="line" smooth="yes"/>
      <point x="60.1778" y="705.79"/>
      <point x="63.3898" y="702.578"/>
      <point x="70.8846" y="702.578" type="curve" smooth="yes"/>
      <point x="112.641" y="702.578" type="line" smooth="yes"/>
      <point x="147.973" y="702.578"/>
      <point x="166.175" y="684.376"/>
      <point x="166.175" y="649.044" type="curve" smooth="yes"/>
      <point x="166.175" y="41.9685" type="line" smooth="yes"/>
      <point x="166.175" y="34.4738"/>
      <point x="162.963" y="31.2617"/>
      <point x="155.468" y="31.2617" type="curve" smooth="yes"/>
      <point x="70.8846" y="31.2617" type="line" smooth="yes"/>
      <point x="63.3898" y="31.2617"/>
      <point x="60.1778" y="28.0497"/>
      <point x="60.1778" y="20.5549" type="curve" smooth="yes"/>
      <point x="60.1778" y="10.9188" type="line" smooth="yes"/>
      <point x="60.1778" y="3.42407"/>
      <point x="63.3898" y="0.212037"/>
      <point x="70.8846" y="0.212037" type="curve" smooth="yes"/>
      <point x="359.968" y="0.212037" type="line" smooth="yes"/>
      <point x="367.463" y="0.212037"/>
      <point x="370.675" y="3.42407"/>
      <point x="370.675" y="10.9188" type="curve" smooth="yes"/>
      <point x="370.675" y="20.5549" type="line" smooth="yes"/>
      <point x="370.675" y="28.0497"/>
      <point x="367.463" y="31.2617"/>
      <point x="359.968" y="31.2617" type="curve" smooth="yes"/>
      <point x="275.384" y="31.2617" type="line" smooth="yes"/>
      <point x="267.89" y="31.2617"/>
      <point x="264.677" y="34.4738"/>
      <point x="264.677" y="41.9685" type="curve" smooth="yes"/>
      <point x="264.677" y="721.85" type="line" smooth="yes"/>
      <point x="264.677" y="729.344"/>
      <point x="261.465" y="732.557"/>
      <point x="253.971" y="732.557" type="curve" smooth="yes"/>
      <point x="70.8846" y="732.557" type="line" smooth="yes"/>
      <point x="63.3898" y="732.557"/>
      <point x="60.1778" y="729.344"/>
      <point x="60.1778" y="721.85" type="curve" smooth="yes"/>
    </contour>
    <contour>
      <point x="559.635" y="41.8531" type="curve" smooth="yes"/>
      <point x="559.635" y="101"/>
      <point x="559.635" y="276.166"/>
      <point x="559.635" y="380.81" type="curve" smooth="yes"/>
      <point x="559.635" y="442.232"/>
      <point x="484.564" y="479.768"/>
      <point x="428.829" y="479.768" type="curve" smooth="yes"/>
      <point x="287.787" y="479.768"/>
      <point x="271.863" y="393.322"/>
      <point x="202.479" y="296.64" type="curve"/>
      <point x="213.853" y="278.441"/>
      <point x="243.427" y="231.806"/>
      <point x="250.251" y="218.156" type="curve"/>
      <point x="249.114" y="293.228"/>
      <point x="286.649" y="410.384"/>
      <point x="378.782" y="429.72" type="curve" smooth="yes"/>
      <point x="420.867" y="438.82"/>
      <point x="451.578" y="413.796"/>
      <point x="451.578" y="380.81" type="curve" smooth="yes"/>
      <point x="451.578" y="41.8531" type="line" smooth="yes"/>
      <point x="451.578" y="33.891"/>
      <point x="448.166" y="30.4787"/>
      <point x="440.204" y="30.4787" type="curve" smooth="yes"/>
      <point x="417.455" y="30.4787"/>
      <point x="401.531" y="30.4787"/>
      <point x="390.156" y="30.4787" type="curve" smooth="yes"/>
      <point x="382.194" y="30.4787"/>
      <point x="378.782" y="27.0664"/>
      <point x="378.782" y="19.1043" type="curve" smooth="yes"/>
      <point x="378.782" y="16.8294"/>
      <point x="378.782" y="14.5545"/>
      <point x="378.782" y="11.1422" type="curve" smooth="yes"/>
      <point x="378.782" y="3.1801"/>
      <point x="382.194" y="-0.232222"/>
      <point x="390.156" y="-0.232222" type="curve" smooth="yes"/>
      <point x="625.607" y="-0.232222" type="line" smooth="yes"/>
      <point x="633.569" y="-0.232222"/>
      <point x="636.981" y="3.1801"/>
      <point x="636.981" y="11.1422" type="curve" smooth="yes"/>
      <point x="636.981" y="14.5545"/>
      <point x="636.981" y="16.8294"/>
      <point x="636.981" y="19.1043" type="curve" smooth="yes"/>
      <point x="636.981" y="27.0664"/>
      <point x="633.569" y="30.4787"/>
      <point x="625.607" y="30.4787" type="curve" smooth="yes"/>
      <point x="571.01" y="30.4787" type="line" smooth="yes"/>
      <point x="563.047" y="30.4787"/>
      <point x="559.635" y="33.891"/>
    </contour>
  </outline>
  <guideline angle="0" x="0" y="480"/>
</glyph>
<glyph name="k" format="2">
  <advance width="773"/>
  <unicode hex="006B"/>
  <outline>
    <component base="l"/>
    <contour>
      <point x="325.547" y="283.942" type="line"/>
      <point x="325.547" y="283.942" type="line"/>
      <point x="511.845" y="39.8272" type="line" smooth="yes"/>
      <point x="516.128" y="34.4738"/>
      <point x="515.057" y="31.2617"/>
      <point x="507.563" y="31.2617" type="curve" smooth="yes"/>
      <point x="422.979" y="31.2617" type="line" smooth="yes"/>
      <point x="415.484" y="31.2617"/>
      <point x="412.272" y="28.0497"/>
      <point x="412.272" y="20.5549" type="curve" smooth="yes"/>
      <point x="412.272" y="10.9188" type="line" smooth="yes"/>
      <point x="412.272" y="3.42407"/>
      <point x="415.484" y="0.212037"/>
      <point x="422.979" y="0.212037" type="curve" smooth="yes"/>
      <point x="712.062" y="0.212037" type="line" smooth="yes"/>
      <point x="719.557" y="0.212037"/>
      <point x="722.769" y="3.42407"/>
      <point x="722.769" y="10.9188" type="curve" smooth="yes"/>
      <point x="722.769" y="20.5549" type="line" smooth="yes"/>
      <point x="722.769" y="28.0497"/>
      <point x="719.557" y="31.2617"/>
      <point x="712.062" y="31.2617" type="curve" smooth="yes"/>
      <point x="656.387" y="31.2617" type="line" smooth="yes"/>
      <point x="648.892" y="31.2617"/>
      <point x="643.539" y="34.4738"/>
      <point x="639.256" y="39.8272" type="curve" smooth="yes"/>
      <point x="412.272" y="329.981" type="line"/>
      <point x="412.272" y="329.981" type="line"/>
    </contour>
    <contour>
      <point x="268.074" y="262.569" type="line"/>
      <point x="264.119" y="260.592"/>
      <point x="262.142" y="257.297"/>
      <point x="262.142" y="252.683" type="curve" smooth="yes"/>
      <point x="262.142" y="239.501" type="line" smooth="yes"/>
      <point x="262.142" y="234.888"/>
      <point x="264.119" y="234.229"/>
      <point x="268.074" y="236.206" type="curve"/>
      <point x="618.708" y="444.477" type="line" smooth="yes"/>
      <point x="626.618" y="449.091"/>
      <point x="633.867" y="451.068"/>
      <point x="643.095" y="451.068" type="curve" smooth="yes"/>
      <point x="696.481" y="451.068" type="line" smooth="yes"/>
      <point x="701.094" y="451.068"/>
      <point x="703.072" y="453.046"/>
      <point x="703.072" y="457.659" type="curve" smooth="yes"/>
      <point x="703.072" y="474.136" type="line" smooth="yes"/>
      <point x="703.072" y="478.75"/>
      <point x="701.094" y="480.727"/>
      <point x="696.481" y="480.727" type="curve" smooth="yes"/>
      <point x="503.368" y="480.727" type="line" smooth="yes"/>
      <point x="498.755" y="480.727"/>
      <point x="496.777" y="478.75"/>
      <point x="496.777" y="474.136" type="curve" smooth="yes"/>
      <point x="496.777" y="457.659" type="line" smooth="yes"/>
      <point x="496.777" y="453.046"/>
      <point x="498.755" y="451.068"/>
      <point x="503.368" y="451.068" type="curve" smooth="yes"/>
      <point x="542.913" y="451.068" type="line" smooth="yes"/>
      <point x="560.709" y="451.068"/>
      <point x="558.072" y="434.591"/>
      <point x="540.936" y="424.705" type="curve" smooth="yes"/>
    </contour>
  </outline>
  <guideline angle="0" x="0" y="480"/>
</glyph>
<glyph name="p" format="2">
  <advance width="678"/>
  <unicode hex="0070"/>
  <outline>
    <component base="l" yOffset="-251"/>
    <contour>
      <point x="245.079" y="239.548" type="curve" smooth="yes"/>
      <point x="245.079" y="351.711"/>
      <point x="304.219" y="469.992"/>
      <point x="426.579" y="469.992" type="curve" smooth="yes"/>
      <point x="568.312" y="469.992"/>
      <point x="637.649" y="351.711"/>
      <point x="637.649" y="239.548" type="curve" smooth="yes"/>
      <point x="637.649" y="82.5197"/>
      <point x="568.312" y="-10.2697"/>
      <point x="426.579" y="-10.2697" type="curve" smooth="yes"/>
      <point x="324.612" y="-10.2697"/>
      <point x="245.079" y="82.5197"/>
    </contour>
    <contour>
      <point x="273.629" y="239.548" type="curve" smooth="yes"/>
      <point x="273.629" y="143.699"/>
      <point x="316.455" y="21.3399"/>
      <point x="422.5" y="21.3399" type="curve" smooth="yes"/>
      <point x="529.565" y="21.3399"/>
      <point x="563.213" y="143.699"/>
      <point x="563.213" y="239.548" type="curve" smooth="yes"/>
      <point x="563.213" y="319.081"/>
      <point x="529.565" y="441.441"/>
      <point x="422.5" y="441.441" type="curve" smooth="yes"/>
      <point x="310.337" y="441.441"/>
      <point x="273.629" y="319.081"/>
    </contour>
  </outline>
  <guideline angle="0" x="0" y="480"/>
</glyph>
<glyph name="r" format="2">
  <advance width="566"/>
  <unicode hex="0072"/>
  <outline>
    <contour>
      <point x="50.1778" y="459.533" type="line" smooth="yes"/>
      <point x="50.1778" y="452.039"/>
      <point x="53.3898" y="448.827"/>
      <point x="60.8846" y="448.827" type="curve" smooth="yes"/>
      <point x="102.641" y="448.827" type="line" smooth="yes"/>
      <point x="137.973" y="448.827"/>
      <point x="156.175" y="430.625"/>
      <point x="156.175" y="395.293" type="curve" smooth="yes"/>
      <point x="156.175" y="41.9685" type="line" smooth="yes"/>
      <point x="156.175" y="34.4738"/>
      <point x="152.963" y="31.2617"/>
      <point x="145.468" y="31.2617" type="curve" smooth="yes"/>
      <point x="60.8846" y="31.2617" type="line" smooth="yes"/>
      <point x="53.3898" y="31.2617"/>
      <point x="50.1778" y="28.0497"/>
      <point x="50.1778" y="20.5549" type="curve" smooth="yes"/>
      <point x="50.1778" y="10.9188" type="line" smooth="yes"/>
      <point x="50.1778" y="3.42407"/>
      <point x="53.3898" y="0.212037"/>
      <point x="60.8846" y="0.212037" type="curve" smooth="yes"/>
      <point x="349.968" y="0.212037" type="line" smooth="yes"/>
      <point x="357.463" y="0.212037"/>
      <point x="360.675" y="3.42407"/>
      <point x="360.675" y="10.9188" type="curve" smooth="yes"/>
      <point x="360.675" y="20.5549" type="line" smooth="yes"/>
      <point x="360.675" y="28.0497"/>
      <point x="357.463" y="31.2617"/>
      <point x="349.968" y="31.2617" type="curve" smooth="yes"/>
      <point x="265.384" y="31.2617" type="line" smooth="yes"/>
      <point x="257.89" y="31.2617"/>
      <point x="254.677" y="34.4738"/>
      <point x="254.677" y="41.9685" type="curve" smooth="yes"/>
      <point x="254.677" y="469.169" type="line" smooth="yes"/>
      <point x="254.677" y="476.664"/>
      <point x="251.465" y="479.876"/>
      <point x="243.971" y="479.876" type="curve" smooth="yes"/>
      <point x="60.8846" y="479.876" type="line" smooth="yes"/>
      <point x="53.3898" y="479.876"/>
      <point x="50.1778" y="476.664"/>
      <point x="50.1778" y="469.169" type="curve" smooth="yes"/>
    </contour>
    <contour>
      <point x="251" y="212" type="line"/>
      <point x="265" y="312"/>
      <point x="315" y="429"/>
      <point x="393" y="409" type="curve" smooth="yes"/>
      <point x="423" y="401"/>
      <point x="371" y="364"/>
      <point x="366" y="312" type="curve" smooth="yes"/>
      <point x="361" y="260"/>
      <point x="403" y="249"/>
      <point x="430" y="249" type="curve" smooth="yes"/>
      <point x="483" y="249"/>
      <point x="512" y="280"/>
      <point x="515" y="334" type="curve" smooth="yes"/>
      <point x="519" y="397"/>
      <point x="491" y="469"/>
      <point x="430" y="482" type="curve" smooth="yes"/>
      <point x="352" y="499"/>
      <point x="282" y="411"/>
      <point x="239" y="332" type="curve"/>
    </contour>
  </outline>
  <guideline angle="0" x="0" y="480"/>
</glyph>
<glyph name="z" format="2">
  <advance width="447"/>
  <unicode hex="007A"/>
  <outline>
    <contour>
      <point x="314.676" y="478.196" type="line"/>
      <point x="309.759" y="478.196"/>
      <point x="306.246" y="476.791"/>
      <point x="304.139" y="472.576" type="curve"/>
      <point x="54.0575" y="4.72723" type="line"/>
      <point x="51.9501" y="0.51238"/>
      <point x="52.6525" y="-1.59505"/>
      <point x="57.5699" y="-1.59505" type="curve" smooth="yes"/>
      <point x="134.14" y="-1.59505" type="line" smooth="yes"/>
      <point x="139.057" y="-1.59505"/>
      <point x="142.569" y="0.51238"/>
      <point x="144.677" y="4.72723" type="curve"/>
      <point x="391.948" y="466.956" type="line"/>
      <point x="394.056" y="471.171"/>
      <point x="393.353" y="473.981"/>
      <point x="388.436" y="473.981" type="curve"/>
    </contour>
    <contour>
      <point x="396.001" y="474.363" type="line"/>
      <point x="397.97" y="478.299"/>
      <point x="396.657" y="480.267"/>
      <point x="392.065" y="480.267" type="curve" smooth="yes"/>
      <point x="57.452" y="480.267" type="line" smooth="yes"/>
      <point x="52.8593" y="480.267"/>
      <point x="50.891" y="478.299"/>
      <point x="50.891" y="473.706" type="curve" smooth="yes"/>
      <point x="50.891" y="315.586" type="line" smooth="yes"/>
      <point x="50.891" y="310.993"/>
      <point x="52.8593" y="309.025"/>
      <point x="57.452" y="309.025" type="curve" smooth="yes"/>
      <point x="60.7325" y="309.025" type="line" smooth="yes"/>
      <point x="65.3252" y="309.025"/>
      <point x="67.2935" y="310.993"/>
      <point x="67.2935" y="315.586" type="curve" smooth="yes"/>
      <point x="69.9179" y="419.25"/>
      <point x="91.5694" y="459.928"/>
      <point x="193.265" y="459.928" type="curve" smooth="yes"/>
      <point x="245.754" y="459.928"/>
      <point x="349.418" y="459.928"/>
      <point x="382.223" y="459.928" type="curve" smooth="yes"/>
      <point x="386.816" y="459.928"/>
      <point x="389.44" y="461.897"/>
      <point x="391.408" y="465.833" type="curve"/>
    </contour>
    <contour>
      <point x="386.694" y="-0.656103" type="line" smooth="yes"/>
      <point x="391.286" y="-0.656103"/>
      <point x="393.255" y="1.31221"/>
      <point x="393.255" y="5.90493" type="curve" smooth="yes"/>
      <point x="393.255" y="164.682" type="line" smooth="yes"/>
      <point x="393.255" y="169.275"/>
      <point x="391.286" y="171.243"/>
      <point x="386.694" y="171.243" type="curve" smooth="yes"/>
      <point x="383.413" y="171.243" type="line" smooth="yes"/>
      <point x="378.82" y="171.243"/>
      <point x="376.852" y="169.275"/>
      <point x="376.852" y="164.682" type="curve" smooth="yes"/>
      <point x="374.228" y="61.0176"/>
      <point x="352.576" y="19.6831"/>
      <point x="250.88" y="19.6831" type="curve" smooth="yes"/>
      <point x="198.392" y="19.6831"/>
      <point x="113.099" y="19.6831"/>
      <point x="82.9178" y="19.6831" type="curve" smooth="yes"/>
      <point x="78.3251" y="19.6831"/>
      <point x="76.3568" y="17.7148"/>
      <point x="76.3568" y="13.1221" type="curve" smooth="yes"/>
      <point x="76.3568" y="5.90493" type="line" smooth="yes"/>
      <point x="76.3568" y="1.31221"/>
      <point x="78.3251" y="-0.656103"/>
      <point x="82.9178" y="-0.656103" type="curve" smooth="yes"/>
    </contour>
  </outline>
  <guideline angle="0" x="0" y="480"/>
</glyph>
<glyph name="kn_aa" format="2">
  <advance width="850"/>
  <unicode hex="0C86"/>
  <outline>
    <contour>
      <point x="47" y="444" type="curve" smooth="yes"/>
      <point x="58" y="501"/>
      <point x="89" y="620"/>
      <point x="219" y="620" type="curve" smooth="yes"/>
      <point x="293" y="620"/>
      <point x="355" y="586"/>
      <point x="355" y="474" type="curve" smooth="yes"/>
      <point x="355" y="406"/>
      <point x="287" y="348"/>
      <point x="219" y="348" type="curve" smooth="yes"/>
      <point x="144" y="348"/>
      <point x="122" y="391"/>
      <point x="104" y="418" type="curve"/>
      <point x="86" y="342"/>
      <point x="132" y="100"/>
      <point x="391" y="100" type="curve" smooth="yes"/>
      <point x="515" y="100"/>
      <point x="640" y="186"/>
      <point x="640" y="281" type="curve" smooth="yes"/>
      <point x="640" y="301"/>
      <point x="640" y="346"/>
      <point x="617" y="379" type="curve" smooth="yes"/>
      <point x="605" y="396"/>
      <point x="550" y="399"/>
      <point x="498" y="399" type="curve" smooth="yes"/>
      <point x="445" y="399"/>
      <point x="427" y="399"/>
      <point x="413" y="399" type="curve" smooth="yes"/>
      <point x="405" y="399"/>
      <point x="395" y="445"/>
      <point x="427" y="445" type="curve" smooth="yes"/>
      <point x="440" y="445"/>
      <point x="471" y="445"/>
      <point x="500" y="445" type="curve" smooth="yes"/>
      <point x="587" y="445"/>
      <point x="518" y="457"/>
      <point x="518" y="533" type="curve" smooth="yes"/>
      <point x="518" y="610"/>
      <point x="571" y="683"/>
      <point x="649" y="683" type="curve" smooth="yes"/>
      <point x="738" y="683"/>
      <point x="810" y="656"/>
      <point x="810" y="533" type="curve" smooth="yes"/>
      <point x="810" y="451"/>
      <point x="747" y="383"/>
      <point x="671" y="383" type="curve" smooth="yes"/>
      <point x="657" y="383"/>
      <point x="714" y="324"/>
      <point x="714" y="263" type="curve" smooth="yes"/>
      <point x="714" y="89"/>
      <point x="532" y="1"/>
      <point x="391" y="1" type="curve"/>
      <point x="167" y="0"/>
      <point x="7" y="239"/>
    </contour>
    <contour>
      <point x="277" y="490" type="curve" smooth="yes"/>
      <point x="277" y="530"/>
      <point x="248" y="539"/>
      <point x="219" y="539" type="curve" smooth="yes"/>
      <point x="179" y="539"/>
      <point x="169" y="513"/>
      <point x="169" y="490" type="curve" smooth="yes"/>
      <point x="169" y="461"/>
      <point x="187" y="440"/>
      <point x="219" y="440" type="curve" smooth="yes"/>
      <point x="246" y="440"/>
      <point x="277" y="451"/>
    </contour>
    <contour>
      <point x="642" y="438" type="curve" smooth="yes"/>
      <point x="713" y="438"/>
      <point x="727" y="494"/>
      <point x="727" y="533" type="curve" smooth="yes"/>
      <point x="727" y="604"/>
      <point x="695" y="634"/>
      <point x="649" y="634" type="curve" smooth="yes"/>
      <point x="594" y="634"/>
      <point x="574" y="581"/>
      <point x="574" y="533" type="curve" smooth="yes"/>
      <point x="574" y="483"/>
      <point x="619" y="438"/>
    </contour>
  </outline>
  <guideline angle="0" x="0" y="733"/>
</glyph>
<glyph name="kn_ii" format="2">
  <advance width="1130"/>
  <unicode hex="0C88"/>
  <outline>
    <contour>
      <point x="890" y="0" type="curve" smooth="yes"/>
      <point x="830" y="11"/>
      <point x="943" y="72"/>
      <point x="960" y="82" type="curve" smooth="yes"/>
      <point x="1065" y="145"/>
      <point x="872" y="246"/>
      <point x="841" y="269" type="curve"/>
      <point x="827" y="280"/>
      <point x="818" y="276"/>
      <point x="660" y="264" type="curve" smooth="yes"/>
      <point x="592" y="259"/>
      <point x="164" y="276"/>
      <point x="140" y="270" type="curve" smooth="yes"/>
      <point x="114" y="264"/>
      <point x="103" y="267"/>
      <point x="74" y="292" type="curve" smooth="yes"/>
      <point x="44" y="318"/>
      <point x="33" y="345"/>
      <point x="46" y="355" type="curve" smooth="yes"/>
      <point x="70" y="373"/>
      <point x="135" y="346"/>
      <point x="167" y="346" type="curve" smooth="yes"/>
      <point x="261" y="346"/>
      <point x="673" y="331"/>
      <point x="722" y="332" type="curve" smooth="yes"/>
      <point x="832" y="335"/>
      <point x="773" y="320"/>
      <point x="762" y="394" type="curve" smooth="yes"/>
      <point x="749" y="486"/>
      <point x="781" y="550"/>
      <point x="854" y="587" type="curve" smooth="yes"/>
      <point x="943" y="633"/>
      <point x="1057" y="566"/>
      <point x="1080" y="487" type="curve" smooth="yes"/>
      <point x="1141" y="277"/>
      <point x="889" y="303"/>
      <point x="906" y="287" type="curve" smooth="yes"/>
      <point x="945" y="251"/>
      <point x="1043" y="246"/>
      <point x="1077" y="160" type="curve" smooth="yes"/>
      <point x="1099" y="104"/>
      <point x="1084" y="26"/>
      <point x="1021" y="3" type="curve" smooth="yes"/>
      <point x="1010" y="-1"/>
      <point x="909" y="-4"/>
    </contour>
    <contour>
      <point x="893" y="346" type="curve" smooth="yes"/>
      <point x="966" y="358"/>
      <point x="1018" y="399"/>
      <point x="992" y="470" type="curve" smooth="yes"/>
      <point x="972" y="525"/>
      <point x="902" y="532"/>
      <point x="866" y="508" type="curve" smooth="yes"/>
      <point x="825" y="480"/>
      <point x="809" y="442"/>
      <point x="816" y="397" type="curve" smooth="yes"/>
      <point x="827" y="321"/>
      <point x="868" y="342"/>
    </contour>
    <contour>
      <point x="446" y="0" type="curve" smooth="yes"/>
      <point x="307" y="0"/>
      <point x="174" y="123"/>
      <point x="174" y="265" type="curve" smooth="yes"/>
      <point x="174" y="413"/>
      <point x="258" y="510"/>
      <point x="284" y="535" type="curve"/>
      <point x="271" y="535"/>
      <point x="180" y="535"/>
      <point x="149" y="535" type="curve" smooth="yes"/>
      <point x="91" y="535"/>
      <point x="76" y="635"/>
      <point x="158" y="635" type="curve" smooth="yes"/>
      <point x="297" y="635"/>
      <point x="294" y="635"/>
      <point x="422" y="635" type="curve" smooth="yes"/>
      <point x="596" y="635"/>
      <point x="629" y="633"/>
      <point x="655" y="658" type="curve" smooth="yes"/>
      <point x="680" y="681"/>
      <point x="700" y="749"/>
      <point x="647" y="807" type="curve" smooth="yes"/>
      <point x="627" y="829"/>
      <point x="677" y="861"/>
      <point x="701" y="835" type="curve"/>
      <point x="701" y="835"/>
      <point x="767" y="751"/>
      <point x="748.361" y="656.768" type="curve" smooth="yes"/>
      <point x="731" y="569"/>
      <point x="653" y="537"/>
      <point x="608" y="537" type="curve" smooth="yes"/>
      <point x="602" y="537"/>
      <point x="605" y="536"/>
      <point x="608" y="534" type="curve"/>
      <point x="660" y="494"/>
      <point x="727" y="421"/>
      <point x="727" y="265" type="curve" smooth="yes"/>
      <point x="727" y="108"/>
      <point x="618" y="0"/>
    </contour>
    <contour>
      <point x="446" y="100" type="curve" smooth="yes"/>
      <point x="569" y="100"/>
      <point x="687" y="220"/>
      <point x="670" y="353" type="curve" smooth="yes"/>
      <point x="661" y="421"/>
      <point x="605" y="509"/>
      <point x="548" y="520" type="curve" smooth="yes"/>
      <point x="506" y="528"/>
      <point x="392" y="529"/>
      <point x="336" y="520" type="curve" smooth="yes"/>
      <point x="283" y="511"/>
      <point x="239" y="400"/>
      <point x="233" y="353" type="curve" smooth="yes"/>
      <point x="214" y="215"/>
      <point x="316" y="100"/>
    </contour>
  </outline>
  <guideline angle="0" x="0" y="-310"/>
</glyph>
<glyph name="kn_e" format="2">
  <advance width="704"/>
  <unicode hex="0C8E"/>
  <outline>
    <contour>
      <point x="54" y="75" type="curve" smooth="yes"/>
      <point x="11" y="176"/>
      <point x="72" y="345"/>
      <point x="195" y="322" type="curve" smooth="yes"/>
      <point x="312" y="301"/>
      <point x="295" y="196"/>
      <point x="340" y="132" type="curve" smooth="yes"/>
      <point x="377" y="81"/>
      <point x="453" y="80"/>
      <point x="515.34" y="115.965" type="curve" smooth="yes"/>
      <point x="713" y="230"/>
      <point x="559" y="592"/>
      <point x="408" y="754" type="curve"/>
      <point x="397" y="765"/>
      <point x="468" y="816"/>
      <point x="478" y="806" type="curve" smooth="yes"/>
      <point x="525" y="760"/>
      <point x="630" y="514"/>
      <point x="653.583" y="399.524" type="curve" smooth="yes"/>
      <point x="678" y="281"/>
      <point x="662" y="76"/>
      <point x="544" y="19" type="curve" smooth="yes"/>
      <point x="512" y="4"/>
      <point x="483" y="-1"/>
      <point x="437" y="8" type="curve" smooth="yes"/>
      <point x="380" y="18"/>
      <point x="339" y="59"/>
      <point x="298" y="96" type="curve"/>
      <point x="310" y="96" type="line"/>
      <point x="283" y="66"/>
      <point x="261" y="36"/>
      <point x="224" y="18" type="curve" smooth="yes"/>
      <point x="152" y="-18"/>
      <point x="85" y="2"/>
    </contour>
    <contour>
      <point x="216" y="91" type="curve" smooth="yes"/>
      <point x="267" y="105"/>
      <point x="272" y="164"/>
      <point x="239" y="197" type="curve" smooth="yes"/>
      <point x="216" y="219"/>
      <point x="190" y="242"/>
      <point x="150" y="231" type="curve" smooth="yes"/>
      <point x="115" y="222"/>
      <point x="96" y="171"/>
      <point x="119" y="138" type="curve"/>
      <point x="139" y="111"/>
      <point x="181" y="81"/>
    </contour>
  </outline>
</glyph>
<glyph name="kn_oo" format="2">
  <advance width="828"/>
  <unicode hex="0C93"/>
  <outline>
    <contour>
      <point x="451" y="123" type="curve"/>
      <point x="405" y="48"/>
      <point x="322" y="0"/>
      <point x="219" y="0" type="curve" smooth="yes"/>
      <point x="78" y="0"/>
      <point x="23" y="168"/>
      <point x="187.135" y="285.578" type="curve" smooth="yes"/>
      <point x="231" y="317"/>
      <point x="322" y="397"/>
      <point x="321" y="469" type="curve" smooth="yes"/>
      <point x="319" y="630"/>
      <point x="59" y="569"/>
      <point x="109" y="408" type="curve" smooth="yes"/>
      <point x="120" y="373"/>
      <point x="127" y="344"/>
      <point x="95" y="351" type="curve" smooth="yes"/>
      <point x="41" y="363"/>
      <point x="34" y="440"/>
      <point x="45" y="489" type="curve" smooth="yes"/>
      <point x="63" y="570"/>
      <point x="141" y="620"/>
      <point x="228.984" y="618.687" type="curve" smooth="yes"/>
      <point x="342" y="617"/>
      <point x="381" y="532"/>
      <point x="371.405" y="465.144" type="curve" smooth="yes"/>
      <point x="350" y="316"/>
      <point x="82" y="224"/>
      <point x="179" y="123" type="curve"/>
      <point x="188" y="113"/>
      <point x="203" y="107"/>
      <point x="220" y="103" type="curve" smooth="yes"/>
      <point x="339" y="76"/>
      <point x="437" y="168"/>
      <point x="437" y="264" type="curve" smooth="yes"/>
      <point x="437" y="285"/>
      <point x="469" y="283"/>
      <point x="469" y="262" type="curve" smooth="yes"/>
      <point x="469" y="234"/>
      <point x="500" y="100"/>
      <point x="597" y="100" type="curve" smooth="yes"/>
      <point x="720" y="100"/>
      <point x="760" y="225"/>
      <point x="708" y="332" type="curve" smooth="yes"/>
      <point x="693" y="361"/>
      <point x="663" y="405"/>
      <point x="624" y="405" type="curve" smooth="yes"/>
      <point x="587" y="405"/>
      <point x="606" y="443"/>
      <point x="636" y="443" type="curve" smooth="yes"/>
      <point x="699" y="443"/>
      <point x="736" y="397"/>
      <point x="761" y="344" type="curve" smooth="yes"/>
      <point x="824" y="212"/>
      <point x="772" y="0"/>
      <point x="612" y="0" type="curve" smooth="yes"/>
      <point x="522" y="0"/>
      <point x="475" y="47"/>
    </contour>
    <contour>
      <point x="225" y="610" type="curve"/>
      <point x="196" y="646"/>
      <point x="162" y="689"/>
      <point x="144" y="731" type="curve" smooth="yes"/>
      <point x="129" y="766"/>
      <point x="134" y="803"/>
      <point x="149" y="838" type="curve" smooth="yes"/>
      <point x="170" y="889"/>
      <point x="240" y="928"/>
      <point x="295" y="921" type="curve" smooth="yes"/>
      <point x="375" y="910"/>
      <point x="471" y="800"/>
      <point x="488" y="724" type="curve" smooth="yes"/>
      <point x="496" y="687"/>
      <point x="494" y="671"/>
      <point x="481" y="671" type="curve" smooth="yes"/>
      <point x="466" y="671"/>
      <point x="452" y="688"/>
      <point x="446" y="713" type="curve" smooth="yes"/>
      <point x="428" y="788"/>
      <point x="318" y="888"/>
      <point x="253" y="800" type="curve" smooth="yes"/>
      <point x="221" y="756"/>
      <point x="245" y="651"/>
      <point x="273" y="607" type="curve"/>
      <point x="252" y="608"/>
      <point x="245" y="608"/>
    </contour>
  </outline>
</glyph>
<glyph name="kn_au" format="2">
  <advance width="992"/>
  <unicode hex="0C94"/>
  <outline>
    <contour>
      <point x="490" y="123" type="curve"/>
      <point x="444" y="48"/>
      <point x="361" y="0"/>
      <point x="258" y="0" type="curve" smooth="yes"/>
      <point x="117" y="0"/>
      <point x="62" y="168"/>
      <point x="226.135" y="285.578" type="curve" smooth="yes"/>
      <point x="270" y="317"/>
      <point x="361" y="397"/>
      <point x="360" y="469" type="curve" smooth="yes"/>
      <point x="358" y="630"/>
      <point x="98" y="569"/>
      <point x="148" y="408" type="curve" smooth="yes"/>
      <point x="159" y="373"/>
      <point x="166" y="344"/>
      <point x="134" y="351" type="curve" smooth="yes"/>
      <point x="80" y="363"/>
      <point x="73" y="440"/>
      <point x="84" y="489" type="curve" smooth="yes"/>
      <point x="102" y="570"/>
      <point x="180" y="620"/>
      <point x="273.691" y="618.602" type="curve" smooth="yes"/>
      <point x="381" y="617"/>
      <point x="440" y="549"/>
      <point x="421.989" y="466.714" type="curve" smooth="yes"/>
      <point x="389" y="316"/>
      <point x="121" y="224"/>
      <point x="218" y="123" type="curve"/>
      <point x="227" y="113"/>
      <point x="242" y="107"/>
      <point x="259" y="103" type="curve" smooth="yes"/>
      <point x="378" y="76"/>
      <point x="476" y="168"/>
      <point x="476" y="264" type="curve" smooth="yes"/>
      <point x="476" y="285"/>
      <point x="508" y="283"/>
      <point x="508" y="262" type="curve" smooth="yes"/>
      <point x="508" y="234"/>
      <point x="539" y="100"/>
      <point x="636" y="100" type="curve" smooth="yes"/>
      <point x="759" y="100"/>
      <point x="799" y="225"/>
      <point x="747" y="332" type="curve" smooth="yes"/>
      <point x="732" y="361"/>
      <point x="702" y="405"/>
      <point x="663" y="405" type="curve" smooth="yes"/>
      <point x="626" y="405"/>
      <point x="645" y="443"/>
      <point x="675" y="443" type="curve" smooth="yes"/>
      <point x="738" y="443"/>
      <point x="775" y="397"/>
      <point x="800" y="344" type="curve" smooth="yes"/>
      <point x="863" y="212"/>
      <point x="811" y="0"/>
      <point x="651" y="0" type="curve" smooth="yes"/>
      <point x="561" y="0"/>
      <point x="514" y="47"/>
    </contour>
    <contour>
      <point x="139" y="570" type="curve" smooth="yes"/>
      <point x="87" y="568"/>
      <point x="54" y="566"/>
      <point x="43" y="564" type="curve"/>
      <point x="43" y="585"/>
      <point x="45" y="648"/>
      <point x="66" y="661" type="curve"/>
      <point x="69" y="663"/>
      <point x="91" y="654"/>
      <point x="117" y="650" type="curve" smooth="yes"/>
      <point x="223" y="634"/>
      <point x="388" y="642"/>
      <point x="397" y="660" type="curve"/>
      <point x="411" y="684"/>
      <point x="395" y="746"/>
      <point x="367" y="758" type="curve" smooth="yes"/>
      <point x="286" y="793"/>
      <point x="87" y="753"/>
      <point x="62" y="774" type="curve"/>
      <point x="40" y="796"/>
      <point x="27" y="851"/>
      <point x="63" y="870" type="curve"/>
      <point x="159" y="870"/>
      <point x="694" y="873"/>
      <point x="778" y="870" type="curve"/>
      <point x="875" y="860"/>
      <point x="952" y="777"/>
      <point x="952" y="680" type="curve" smooth="yes"/>
      <point x="952" y="506"/>
      <point x="731" y="419"/>
      <point x="637" y="554" type="curve" smooth="yes"/>
      <point x="614" y="586"/>
      <point x="608" y="640"/>
      <point x="640" y="673" type="curve" smooth="yes"/>
      <point x="668" y="702"/>
      <point x="724" y="714"/>
      <point x="752" y="664" type="curve" smooth="yes"/>
      <point x="785" y="605"/>
      <point x="728" y="557"/>
      <point x="695" y="573" type="curve" smooth="yes"/>
      <point x="691" y="575"/>
      <point x="686" y="579"/>
      <point x="694" y="566" type="curve" smooth="yes"/>
      <point x="733" y="501"/>
      <point x="916" y="511"/>
      <point x="887" y="694" type="curve" smooth="yes"/>
      <point x="879" y="746"/>
      <point x="835" y="781"/>
      <point x="780" y="786" type="curve"/>
      <point x="737" y="786"/>
      <point x="524" y="786"/>
      <point x="434" y="786" type="curve"/>
      <point x="464" y="703"/>
      <point x="426" y="599"/>
      <point x="371" y="578" type="curve"/>
      <point x="328" y="577"/>
      <point x="194" y="572"/>
    </contour>
  </outline>
</glyph>
<glyph name="kn_tt" format="2">
  <advance width="768"/>
  <unicode hex="0C9F"/>
  <outline>
    <contour>
      <point x="183.507" y="3.94491" type="curve" smooth="yes"/>
      <point x="41.4904" y="47.3389"/>
      <point x="-19.6557" y="330.386"/>
      <point x="140.113" y="449.72" type="curve" smooth="yes"/>
      <point x="150.962" y="457.61"/>
      <point x="159.838" y="462.541"/>
      <point x="159.838" y="469.445" type="curve" smooth="yes"/>
      <point x="159.838" y="477.334"/>
      <point x="127.292" y="492.128"/>
      <point x="100.664" y="551.302" type="curve" smooth="yes"/>
      <point x="52.3389" y="660.773"/>
      <point x="131.237" y="787.01"/>
      <point x="252.543" y="786.024" type="curve" smooth="yes"/>
      <point x="281.144" y="786.024"/>
      <point x="310.731" y="742.63"/>
      <point x="296.924" y="711.07" type="curve" smooth="yes"/>
      <point x="275.227" y="661.759"/>
      <point x="216.053" y="693.318"/>
      <point x="176.49" y="624.294" type="curve" smooth="yes"/>
      <point x="123.347" y="531.577"/>
      <point x="240.709" y="493.114"/>
      <point x="318.621" y="516.784" type="curve" smooth="yes"/>
      <point x="375.822" y="534.536"/>
      <point x="419.216" y="455.637"/>
      <point x="414.285" y="408.298" type="curve" smooth="yes"/>
      <point x="407.381" y="342.221"/>
      <point x="355.111" y="294.882"/>
      <point x="291.992" y="294.882" type="curve" smooth="yes"/>
      <point x="209.149" y="294.882"/>
      <point x="192.383" y="359.973"/>
      <point x="192.383" y="408.298" type="curve" smooth="yes"/>
      <point x="192.383" y="430.982"/>
      <point x="148.989" y="398.436"/>
      <point x="134.196" y="351.097" type="curve" smooth="yes"/>
      <point x="88.8294" y="208.094"/>
      <point x="109.54" y="63.1186"/>
      <point x="284.103" y="99.609" type="curve" smooth="yes"/>
      <point x="319.607" y="106.513"/>
      <point x="360.042" y="143.989"/>
      <point x="360.042" y="179.494" type="curve" smooth="yes"/>
      <point x="360.042" y="224.86"/>
      <point x="423.161" y="224.86"/>
      <point x="423.161" y="178.507" type="curve" smooth="yes"/>
      <point x="423.161" y="114.402"/>
      <point x="498.114" y="92.7054"/>
      <point x="543.481" y="92.7054" type="curve" smooth="yes"/>
      <point x="721.002" y="92.7054"/>
      <point x="668.732" y="364.904"/>
      <point x="568.136" y="408.298" type="curve" smooth="yes"/>
      <point x="529.673" y="425.064"/>
      <point x="517.839" y="416.188"/>
      <point x="490.224" y="426.051" type="curve" smooth="yes"/>
      <point x="458.665" y="437.885"/>
      <point x="453.734" y="474.376"/>
      <point x="471.486" y="498.045" type="curve" smooth="yes"/>
      <point x="484.307" y="514.811"/>
      <point x="526.715" y="519.742"/>
      <point x="549.398" y="519.742" type="curve" smooth="yes"/>
      <point x="674.649" y="519.742"/>
      <point x="640.131" y="644.007"/>
      <point x="558.274" y="678.525" type="curve" smooth="yes"/>
      <point x="524.742" y="692.332"/>
      <point x="518.825" y="764.327"/>
      <point x="579.971" y="764.327" type="curve" smooth="yes"/>
      <point x="619.42" y="764.327"/>
      <point x="642.103" y="736.712"/>
      <point x="662.814" y="706.139" type="curve" smooth="yes"/>
      <point x="683.525" y="676.552"/>
      <point x="770.313" y="542.425"/>
      <point x="610.544" y="475.362" type="curve" smooth="yes"/>
      <point x="584.902" y="464.513"/>
      <point x="588.847" y="455.637"/>
      <point x="625.337" y="426.051" type="curve" smooth="yes"/>
      <point x="778.203" y="305.731"/>
      <point x="755.52" y="-19.7246"/>
      <point x="524.742" y="-0.986228" type="curve" smooth="yes"/>
      <point x="480.362" y="2.95868"/>
      <point x="419.216" y="28.6006"/>
      <point x="399.491" y="83.8294" type="curve" smooth="yes"/>
      <point x="385.684" y="120.32"/>
      <point x="381.739" y="124.265"/>
      <point x="360.042" y="88.7605" type="curve" smooth="yes"/>
      <point x="322.565" y="29.5868"/>
      <point x="260.433" y="-19.7246"/>
    </contour>
    <contour>
      <point x="335.386" y="365.891" type="curve"/>
      <point x="360.042" y="380.684"/>
      <point x="349.194" y="422.106"/>
      <point x="318.621" y="440.844" type="curve" smooth="yes"/>
      <point x="284.103" y="461.555"/>
      <point x="246.626" y="446.761"/>
      <point x="246.626" y="422.106" type="curve" smooth="yes"/>
      <point x="246.626" y="393.505"/>
      <point x="263.392" y="374.767"/>
      <point x="277.199" y="366.877" type="curve"/>
      <point x="281.144" y="364.904"/>
      <point x="308.758" y="351.097"/>
    </contour>
  </outline>
  <guideline angle="0" x="0" y="100"/>
</glyph>
<glyph name="kn_ma_aa" format="2">
  <advance width="684"/>
  <unicode hex="0CBE"/>
  <outline>
    <contour>
      <point x="-14.586" y="630.352" type="curve" smooth="yes"/>
      <point x="56.883" y="630.352"/>
      <point x="324.892" y="630.352"/>
      <point x="420.726" y="630.352" type="curve" smooth="yes"/>
      <point x="475.952" y="630.352"/>
      <point x="641.63" y="542.64"/>
      <point x="675.74" y="376.962" type="curve" smooth="yes"/>
      <point x="708.226" y="222.654"/>
      <point x="636.757" y="11.4949"/>
      <point x="441.841" y="4.99776" type="curve" smooth="yes"/>
      <point x="334.638" y="1.74917"/>
      <point x="248.55" y="100.831"/>
      <point x="248.55" y="201.538" type="curve" smooth="yes"/>
      <point x="248.55" y="260.012"/>
      <point x="272.915" y="292.498"/>
      <point x="333.014" y="298.996" type="curve" smooth="yes"/>
      <point x="378.494" y="303.868"/>
      <point x="440.217" y="281.128"/>
      <point x="449.963" y="211.283" type="curve" smooth="yes"/>
      <point x="458.084" y="144.687"/>
      <point x="410.98" y="144.687"/>
      <point x="376.87" y="126.82" type="curve" smooth="yes"/>
      <point x="370.372" y="123.571"/>
      <point x="363.875" y="117.074"/>
      <point x="363.875" y="108.953" type="curve"/>
      <point x="365.499" y="69.9696"/>
      <point x="420.726" y="48.8538"/>
      <point x="477.576" y="61.8482" type="curve" smooth="yes"/>
      <point x="586.404" y="86.2126"/>
      <point x="654.624" y="201.538"/>
      <point x="620.514" y="367.216" type="curve" smooth="yes"/>
      <point x="596.15" y="487.414"/>
      <point x="464.582" y="529.646"/>
      <point x="420.726" y="529.646" type="curve" smooth="yes"/>
      <point x="329.765" y="529.646"/>
      <point x="82.8718" y="529.646"/>
      <point x="-14.586" y="529.646" type="curve" smooth="yes"/>
      <point x="-47.072" y="529.646"/>
      <point x="-47.072" y="630.352"/>
    </contour>
  </outline>
</glyph>
<glyph name="rrvocalsign-knda" format="2">
  <advance width="1107"/>
  <unicode hex="0CC4"/>
  <outline>
    <component base="kn_ma_r" xOffset="20"/>
    <contour>
      <point x="728.955" y="218.122" type="curve" smooth="yes"/>
      <point x="680.181" y="218.122"/>
      <point x="629.666" y="218.122"/>
      <point x="579.15" y="218.122" type="curve" smooth="yes"/>
      <point x="418.893" y="218.122"/>
      <point x="181.992" y="218.122"/>
      <point x="23.477" y="218.122" type="curve" smooth="yes"/>
      <point x="0.832007" y="218.122"/>
      <point x="121.025" y="143.219"/>
      <point x="138.444" y="143.219" type="curve" smooth="yes"/>
      <point x="356.184" y="143.219"/>
      <point x="542.57" y="151.929"/>
      <point x="756.826" y="151.929" type="curve" smooth="yes"/>
      <point x="918.825" y="151.929"/>
      <point x="1075.6" y="82.2517"/>
      <point x="1039.02" y="-126.779" type="curve" smooth="yes"/>
      <point x="1025.08" y="-201.682"/>
      <point x="939.728" y="-260.907"/>
      <point x="871.793" y="-260.907" type="curve" smooth="yes"/>
      <point x="779.471" y="-260.907"/>
      <point x="720.246" y="-191.23"/>
      <point x="737.665" y="-93.6824" type="curve" smooth="yes"/>
      <point x="741.149" y="-74.5213"/>
      <point x="749.858" y="-72.7794"/>
      <point x="758.568" y="-104.134" type="curve"/>
      <point x="769.019" y="-147.682"/>
      <point x="816.051" y="-184.262"/>
      <point x="875.277" y="-147.682" type="curve" smooth="yes"/>
      <point x="957.147" y="-98.9082"/>
      <point x="920.567" y="10.8329"/>
      <point x="831.729" y="14.3167" type="curve" smooth="yes"/>
      <point x="737.665" y="17.8006"/>
      <point x="692.375" y="-48.3925"/>
      <point x="697.601" y="-144.198" type="curve" smooth="yes"/>
      <point x="702.826" y="-231.294"/>
      <point x="775.987" y="-295.745"/>
      <point x="871.793" y="-306.197" type="curve" smooth="yes"/>
      <point x="1005.92" y="-320.132"/>
      <point x="1106.95" y="-215.617"/>
      <point x="1106.95" y="-72.7794" type="curve" smooth="yes"/>
      <point x="1106.95" y="115.348"/>
      <point x="934.502" y="204.186"/>
      <point x="767.278" y="216.38" type="curve"/>
      <point x="755.084" y="218.122"/>
      <point x="741.149" y="218.122"/>
    </contour>
  </outline>
</glyph>
<glyph name="kn_ma_e" format="2">
  <advance width="476"/>
  <unicode hex="0CC6"/>
  <outline>
    <contour>
      <point x="333.17" y="901.176" type="curve" smooth="yes"/>
      <point x="409.015" y="889.394"/>
      <point x="475.288" y="809.131"/>
      <point x="475.288" y="736.232" type="curve" smooth="yes"/>
      <point x="475.288" y="622.833"/>
      <point x="407.543" y="530.052"/>
      <point x="311.08" y="530.052" type="curve" smooth="yes"/>
      <point x="121.099" y="530.052"/>
      <point x="213.88" y="530.052"/>
      <point x="24.6364" y="530.052" type="curve" smooth="yes"/>
      <point x="-7.02698" y="530.052"/>
      <point x="-7.02698" y="630.196"/>
      <point x="24.6364" y="630.196" type="curve" smooth="yes"/>
      <point x="180.744" y="630.196"/>
      <point x="166.754" y="630.196"/>
      <point x="188.108" y="630.196" type="curve" smooth="yes"/>
      <point x="288.989" y="630.196"/>
      <point x="418.588" y="622.833"/>
      <point x="426.688" y="732.55" type="curve" smooth="yes"/>
      <point x="434.052" y="833.431"/>
      <point x="333.17" y="845.213"/>
      <point x="302.243" y="839.322" type="curve" smooth="yes"/>
      <point x="269.844" y="832.695"/>
      <point x="241.862" y="778.941"/>
      <point x="313.289" y="742.123" type="curve" smooth="yes"/>
      <point x="350.107" y="722.977"/>
      <point x="326.543" y="655.969"/>
      <point x="272.789" y="662.596" type="curve" smooth="yes"/>
      <point x="118.89" y="681.741"/>
      <point x="118.89" y="933.576"/>
    </contour>
  </outline>
</glyph>
<glyph name="kn_ma_au" format="2">
  <advance width="1124"/>
  <unicode hex="0CCC"/>
  <outline>
    <contour>
      <point x="403.497" y="786.729" type="curve" smooth="yes"/>
      <point x="277.699" y="786.729"/>
      <point x="218.395" y="786.729"/>
      <point x="44.0751" y="786.729" type="curve" smooth="yes"/>
      <point x="20.7127" y="786.729"/>
      <point x="8.13295" y="880.179"/>
      <point x="74.626" y="880.179" type="curve" smooth="yes"/>
      <point x="328.019" y="880.179"/>
      <point x="534.686" y="880.179"/>
      <point x="788.079" y="880.179" type="curve" smooth="yes"/>
      <point x="825.818" y="880.179"/>
      <point x="861.76" y="874.788"/>
      <point x="894.108" y="862.208" type="curve"/>
      <point x="969.587" y="835.251"/>
      <point x="1039.67" y="759.773"/>
      <point x="1077.41" y="687.888" type="curve" smooth="yes"/>
      <point x="1194.23" y="461.453"/>
      <point x="1084.6" y="143.364"/>
      <point x="797.064" y="143.364" type="curve" smooth="yes"/>
      <point x="674.861" y="143.364"/>
      <point x="599.382" y="235.017"/>
      <point x="599.382" y="353.626" type="curve" smooth="yes"/>
      <point x="599.382" y="403.945"/>
      <point x="619.15" y="486.612"/>
      <point x="669.469" y="518.96" type="curve" smooth="yes"/>
      <point x="757.528" y="574.671"/>
      <point x="890.514" y="536.931"/>
      <point x="890.514" y="420.119" type="curve" smooth="yes"/>
      <point x="890.514" y="330.264"/>
      <point x="773.702" y="299.713"/>
      <point x="716.194" y="339.249" type="curve" smooth="yes"/>
      <point x="651.498" y="384.177"/>
      <point x="664.078" y="448.873"/>
      <point x="658.687" y="443.482" type="curve"/>
      <point x="640.716" y="427.308"/>
      <point x="628.136" y="375.191"/>
      <point x="628.136" y="353.626" type="curve" smooth="yes"/>
      <point x="628.136" y="276.35"/>
      <point x="707.209" y="209.857"/>
      <point x="800.658" y="209.857" type="curve" smooth="yes"/>
      <point x="1140.31" y="209.857"/>
      <point x="1140.31" y="673.512"/>
      <point x="917.471" y="765.164" type="curve" smooth="yes"/>
      <point x="834.803" y="799.309"/>
      <point x="608.368" y="786.729"/>
      <point x="523.903" y="786.729" type="curve" smooth="yes"/>
      <point x="455.613" y="786.729"/>
      <point x="489.758" y="731.019"/>
      <point x="496.947" y="711.251" type="curve" smooth="yes"/>
      <point x="529.295" y="616.004"/>
      <point x="439.439" y="502.786"/>
      <point x="387.323" y="502.786" type="curve" smooth="yes"/>
      <point x="363.961" y="502.786"/>
      <point x="207.612" y="502.786"/>
      <point x="205.815" y="502.786" type="curve" smooth="yes"/>
      <point x="164.482" y="502.786"/>
      <point x="164.482" y="603.424"/>
      <point x="202.221" y="603.424" type="curve" smooth="yes"/>
      <point x="207.612" y="603.424"/>
      <point x="363.961" y="603.424"/>
      <point x="374.743" y="603.424" type="curve" smooth="yes"/>
      <point x="514.918" y="603.424"/>
      <point x="443.034" y="786.729"/>
    </contour>
  </outline>
</glyph>
<glyph name="kn_dherge_ai" format="2">
  <advance width="324"/>
  <unicode hex="0CD6"/>
  <outline>
    <contour>
      <point x="124.644" y="608.58" type="curve"/>
      <point x="111.547" y="623.86"/>
      <point x="126.827" y="680.615"/>
      <point x="135.559" y="687.164" type="curve"/>
      <point x="146.473" y="695.896"/>
      <point x="159.571" y="676.25"/>
      <point x="170.485" y="658.786" type="curve"/>
      <point x="194.497" y="617.311"/>
      <point x="211.96" y="543.093"/>
      <point x="211.96" y="516.898" type="curve" smooth="yes"/>
      <point x="211.96" y="388.108"/>
      <point x="74.4379" y="322.621"/>
      <point x="74.4379" y="198.196" type="curve" smooth="yes"/>
      <point x="74.4379" y="137.075"/>
      <point x="126.827" y="86.8682"/>
      <point x="185.765" y="32.2958" type="curve" smooth="yes"/>
      <point x="253.435" y="-28.8252"/>
      <point x="323.288" y="-105.226"/>
      <point x="323.288" y="-203.457" type="curve" smooth="yes"/>
      <point x="323.288" y="-382.454"/>
      <point x="172.668" y="-437.026"/>
      <point x="24.2313" y="-437.026" type="curve" smooth="yes"/>
      <point x="-156.949" y="-437.026"/>
      <point x="-242.082" y="-242.749"/>
      <point x="-154.766" y="-103.044" type="curve" smooth="yes"/>
      <point x="-111.108" y="-33.191"/>
      <point x="-63.0845" y="1.73533"/>
      <point x="6.76814" y="-17.9107" type="curve" smooth="yes"/>
      <point x="83.1694" y="-39.7397"/>
      <point x="98.4497" y="-111.775"/>
      <point x="89.7181" y="-188.176" type="curve" smooth="yes"/>
      <point x="83.1694" y="-244.932"/>
      <point x="46.0602" y="-268.944"/>
      <point x="-1.96344" y="-268.944" type="curve" smooth="yes"/>
      <point x="-56.5358" y="-268.944"/>
      <point x="-87.0963" y="-244.932"/>
      <point x="-124.205" y="-207.822" type="curve" smooth="yes"/>
      <point x="-126.388" y="-205.64"/>
      <point x="-150.4" y="-225.286"/>
      <point x="-137.303" y="-292.955" type="curve" smooth="yes"/>
      <point x="-128.571" y="-336.613"/>
      <point x="-69.6331" y="-389.003"/>
      <point x="28.5971" y="-389.003" type="curve" smooth="yes"/>
      <point x="129.01" y="-389.003"/>
      <point x="246.886" y="-330.065"/>
      <point x="246.886" y="-188.176" type="curve" smooth="yes"/>
      <point x="246.886" y="-70.3002"/>
      <point x="170.485" y="-9.17914"/>
      <point x="109.364" y="36.6616" type="curve" smooth="yes"/>
      <point x="46.0602" y="84.6853"/>
      <point x="11.1339" y="121.795"/>
      <point x="11.1339" y="209.11" type="curve" smooth="yes"/>
      <point x="11.1339" y="326.987"/>
      <point x="220.692" y="447.046"/>
      <point x="142.108" y="593.3" type="curve"/>
      <point x="137.742" y="599.848"/>
      <point x="129.01" y="604.214"/>
    </contour>
    <contour>
      <point x="-89.2792" y="-116.141" type="curve"/>
      <point x="-102.377" y="-166.348"/>
      <point x="-76.1818" y="-214.371"/>
      <point x="-17.2437" y="-207.822" type="curve" smooth="yes"/>
      <point x="24.2313" y="-203.457"/>
      <point x="41.6944" y="-179.445"/>
      <point x="37.3287" y="-135.787" type="curve"/>
      <point x="35.1458" y="-103.044"/>
      <point x="6.76814" y="-70.3002"/>
      <point x="-28.1582" y="-70.3002" type="curve" smooth="yes"/>
      <point x="-54.3529" y="-70.3002"/>
      <point x="-82.7305" y="-85.5804"/>
    </contour>
  </outline>
</glyph>
<glyph name="kn_rr_ext" format="2">
  <advance width="1711"/>
  <unicode hex="0CE0"/>
  <outline>
    <contour>
      <point x="130" y="237" type="curve"/>
      <point x="174" y="300"/>
      <point x="290" y="300"/>
      <point x="310" y="213" type="curve" smooth="yes"/>
      <point x="327" y="142"/>
      <point x="295" y="92"/>
      <point x="251" y="80" type="curve" smooth="yes"/>
      <point x="239" y="77"/>
      <point x="326" y="38"/>
      <point x="409" y="103" type="curve" smooth="yes"/>
      <point x="526" y="194"/>
      <point x="490" y="366"/>
      <point x="410" y="464" type="curve" smooth="yes"/>
      <point x="375" y="507"/>
      <point x="298" y="537"/>
      <point x="299" y="524" type="curve"/>
      <point x="303" y="492"/>
      <point x="322" y="377"/>
      <point x="227" y="356" type="curve" smooth="yes"/>
      <point x="105" y="330"/>
      <point x="61" y="408"/>
      <point x="52" y="474" type="curve" smooth="yes"/>
      <point x="37" y="576"/>
      <point x="130" y="620"/>
      <point x="213" y="620" type="curve" smooth="yes"/>
      <point x="308" y="620"/>
      <point x="362" y="591"/>
      <point x="425" y="518" type="curve" smooth="yes"/>
      <point x="534" y="390"/>
      <point x="554" y="302"/>
      <point x="559" y="294" type="curve"/>
      <point x="604" y="229"/>
      <point x="608" y="125"/>
      <point x="704" y="116" type="curve" smooth="yes"/>
      <point x="751" y="112"/>
      <point x="797" y="160"/>
      <point x="806" y="205" type="curve" smooth="yes"/>
      <point x="825" y="304"/>
      <point x="781" y="413"/>
      <point x="709" y="482" type="curve" smooth="yes"/>
      <point x="663" y="527"/>
      <point x="559" y="563"/>
      <point x="449" y="563" type="curve" smooth="yes"/>
      <point x="436" y="563"/>
      <point x="381" y="662"/>
      <point x="424" y="667" type="curve" smooth="yes"/>
      <point x="468" y="673"/>
      <point x="643" y="650"/>
      <point x="686" y="670" type="curve" smooth="yes"/>
      <point x="814" y="728"/>
      <point x="714" y="822"/>
      <point x="680" y="862" type="curve" smooth="yes"/>
      <point x="670" y="874"/>
      <point x="690" y="891"/>
      <point x="704" y="882" type="curve" smooth="yes"/>
      <point x="763" y="843"/>
      <point x="831" y="763"/>
      <point x="831" y="706" type="curve" smooth="yes"/>
      <point x="831" y="607"/>
      <point x="753" y="567"/>
      <point x="711" y="567" type="curve" smooth="yes"/>
      <point x="672" y="567" type="line"/>
      <point x="674" y="575" type="line"/>
      <point x="750" y="513"/>
      <point x="864" y="394"/>
      <point x="861" y="231" type="curve" smooth="yes"/>
      <point x="861" y="214"/>
      <point x="861" y="217"/>
      <point x="863" y="212" type="curve"/>
      <point x="881" y="173"/>
      <point x="920" y="109"/>
      <point x="954" y="95" type="curve" smooth="yes"/>
      <point x="1100" y="37"/>
      <point x="1116" y="418"/>
      <point x="926" y="522" type="curve" smooth="yes"/>
      <point x="885" y="544"/>
      <point x="876" y="553"/>
      <point x="876" y="575" type="curve" smooth="yes"/>
      <point x="876" y="581"/>
      <point x="880" y="589"/>
      <point x="885" y="593" type="curve" smooth="yes"/>
      <point x="896" y="602"/>
      <point x="911" y="599"/>
      <point x="931" y="585" type="curve" smooth="yes"/>
      <point x="1068" y="493"/>
      <point x="1124" y="428"/>
      <point x="1143" y="277" type="curve" smooth="yes"/>
      <point x="1159" y="153"/>
      <point x="1116" y="61"/>
      <point x="1080" y="30" type="curve" smooth="yes"/>
      <point x="1042" y="-3"/>
      <point x="992" y="-3"/>
      <point x="947" y="21" type="curve" smooth="yes"/>
      <point x="874" y="59"/>
      <point x="862" y="126"/>
      <point x="851" y="155" type="curve" smooth="yes"/>
      <point x="846" y="168"/>
      <point x="849" y="168"/>
      <point x="838" y="139" type="curve" smooth="yes"/>
      <point x="813" y="68"/>
      <point x="785" y="16"/>
      <point x="704" y="16" type="curve" smooth="yes"/>
      <point x="648" y="16"/>
      <point x="601" y="72"/>
      <point x="580" y="122" type="curve" smooth="yes"/>
      <point x="556" y="177"/>
      <point x="561" y="178"/>
      <point x="539" y="146" type="curve" smooth="yes"/>
      <point x="463" y="39"/>
      <point x="365" y="0"/>
      <point x="299" y="0" type="curve" smooth="yes"/>
      <point x="222" y="0"/>
      <point x="159" y="35"/>
      <point x="123" y="102" type="curve" smooth="yes"/>
      <point x="99" y="145"/>
      <point x="97" y="199"/>
    </contour>
    <contour>
      <point x="220" y="436" type="curve"/>
      <point x="251" y="467"/>
      <point x="228" y="521"/>
      <point x="183" y="527" type="curve" smooth="yes"/>
      <point x="156" y="530"/>
      <point x="130" y="514"/>
      <point x="125" y="488" type="curve"/>
      <point x="118" y="457"/>
      <point x="140" y="441"/>
      <point x="157" y="434" type="curve"/>
      <point x="178" y="426"/>
      <point x="206" y="421"/>
    </contour>
    <contour>
      <point x="162" y="178" type="curve" smooth="yes"/>
      <point x="162" y="150"/>
      <point x="188" y="117"/>
      <point x="227" y="120" type="curve" smooth="yes"/>
      <point x="252" y="122"/>
      <point x="265" y="144"/>
      <point x="267" y="160" type="curve"/>
      <point x="271" y="201"/>
      <point x="243" y="235"/>
      <point x="198" y="232" type="curve" smooth="yes"/>
      <point x="175" y="230"/>
      <point x="162" y="208"/>
    </contour>
    <contour>
      <point x="1077" y="240" type="curve" smooth="yes"/>
      <point x="1054" y="418"/>
      <point x="1123" y="453"/>
      <point x="1121" y="338" type="curve" smooth="yes"/>
      <point x="1117" y="111"/>
      <point x="1231" y="92"/>
      <point x="1258" y="92" type="curve" smooth="yes"/>
      <point x="1374" y="93"/>
      <point x="1367" y="207"/>
      <point x="1334" y="336" type="curve" smooth="yes"/>
      <point x="1305" y="448"/>
      <point x="1287" y="650"/>
      <point x="1459" y="650" type="curve" smooth="yes"/>
      <point x="1696" y="650"/>
      <point x="1689" y="191"/>
      <point x="1613" y="57" type="curve" smooth="yes"/>
      <point x="1604" y="42"/>
      <point x="1569" y="45"/>
      <point x="1574" y="65" type="curve" smooth="yes"/>
      <point x="1606" y="185"/>
      <point x="1622" y="249"/>
      <point x="1613" y="376" type="curve" smooth="yes"/>
      <point x="1603" y="505"/>
      <point x="1550" y="539"/>
      <point x="1486" y="539" type="curve" smooth="yes"/>
      <point x="1381" y="539"/>
      <point x="1395" y="327"/>
      <point x="1415" y="207" type="curve" smooth="yes"/>
      <point x="1439" y="62"/>
      <point x="1360" y="-8"/>
      <point x="1258" y="-8" type="curve" smooth="yes"/>
      <point x="1142" y="-8"/>
      <point x="1090" y="144"/>
    </contour>
  </outline>
</glyph>
<glyph name="kn_1" format="2">
  <advance width="904"/>
  <unicode hex="0CE7"/>
  <outline>
    <contour>
      <point x="40.8842" y="332.662" type="curve" smooth="yes"/>
      <point x="52.4263" y="570.711"/>
      <point x="289.277" y="685.873"/>
      <point x="470.382" y="673.421" type="curve" smooth="yes"/>
      <point x="719.151" y="655.852"/>
      <point x="872.712" y="453.849"/>
      <point x="863.478" y="263.41" type="curve" smooth="yes"/>
      <point x="858.151" y="153.542"/>
      <point x="766.46" y="3.80992"/>
      <point x="643.774" y="9.75855" type="curve" smooth="yes"/>
      <point x="623.631" y="10.7352"/>
      <point x="585.088" y="10.7685"/>
      <point x="586.598" y="41.898" type="curve" smooth="yes"/>
      <point x="592.28" y="159.091"/>
      <point x="768.07" y="150.568"/>
      <point x="773.752" y="267.761" type="curve" smooth="yes"/>
      <point x="782.542" y="449.044"/>
      <point x="691.762" y="545.218"/>
      <point x="465.055" y="563.552" type="curve" smooth="yes"/>
      <point x="351.702" y="572.719"/>
      <point x="133.463" y="500.705"/>
      <point x="125.117" y="328.578" type="curve" smooth="yes"/>
      <point x="118.635" y="194.905"/>
      <point x="165.646" y="104.524"/>
      <point x="272.584" y="38.7689" type="curve"/>
      <point x="315.466" y="14.6643"/>
      <point x="261.298" y="-4.73465"/>
      <point x="232.266" y="2.17935" type="curve"/>
      <point x="90.4134" y="29.2472"/>
      <point x="34.5804" y="202.651"/>
    </contour>
  </outline>
</glyph>
<glyph name="kn_2" format="2">
  <advance width="1188"/>
  <unicode hex="0CE8"/>
  <outline>
    <contour>
      <point x="529.753" y="359.768" type="curve" smooth="yes"/>
      <point x="529.753" y="573.247"/>
      <point x="689.301" y="683.358"/>
      <point x="882.555" y="683.358" type="curve" smooth="yes"/>
      <point x="1066.82" y="683.358"/>
      <point x="1147.72" y="526.057"/>
      <point x="1147.72" y="359.768" type="curve" smooth="yes"/>
      <point x="1147.72" y="153.031"/>
      <point x="1010.64" y="6.96591"/>
      <point x="799.411" y="6.96591" type="curve" smooth="yes"/>
      <point x="599.415" y="6.96591"/>
      <point x="314.027" y="6.96591"/>
      <point x="98.3004" y="6.96591" type="curve" smooth="yes"/>
      <point x="26.3917" y="6.96591"/>
      <point x="17.4031" y="126.065"/>
      <point x="98.3004" y="126.065" type="curve" smooth="yes"/>
      <point x="233.129" y="126.065"/>
      <point x="464.586" y="126.065"/>
      <point x="599.415" y="126.065" type="curve" smooth="yes"/>
      <point x="646.605" y="126.065"/>
      <point x="529.753" y="202.468"/>
    </contour>
    <contour>
      <point x="617.392" y="330.555" type="curve" smooth="yes"/>
      <point x="617.392" y="195.726"/>
      <point x="729.749" y="126.065"/>
      <point x="853.342" y="126.065" type="curve" smooth="yes"/>
      <point x="947.723" y="126.065"/>
      <point x="1024.13" y="191.232"/>
      <point x="1062.33" y="274.377" type="curve" smooth="yes"/>
      <point x="1105.02" y="368.757"/>
      <point x="1075.81" y="555.27"/>
      <point x="936.487" y="586.73" type="curve" smooth="yes"/>
      <point x="752.221" y="629.426"/>
      <point x="617.392" y="514.822"/>
    </contour>
  </outline>
</glyph>
<glyph name="kn_6" format="2">
  <advance width="1099"/>
  <unicode hex="0CEC"/>
  <outline>
    <contour>
      <point x="229.607" y="262.989" type="curve"/>
      <point x="231.567" y="262.989"/>
      <point x="378.596" y="253.188"/>
      <point x="480.535" y="241.425" type="curve" smooth="yes"/>
      <point x="560.911" y="231.623"/>
      <point x="555.029" y="349.246"/>
      <point x="498.178" y="349.246" type="curve" smooth="yes"/>
      <point x="402.12" y="349.246"/>
      <point x="129.628" y="319.84"/>
      <point x="139.43" y="500.195" type="curve" smooth="yes"/>
      <point x="141.39" y="547.244"/>
      <point x="182.558" y="580.57"/>
      <point x="219.805" y="582.531" type="curve" smooth="yes"/>
      <point x="409.962" y="592.333"/>
      <point x="594.237" y="560.967"/>
      <point x="782.433" y="560.967" type="curve" smooth="yes"/>
      <point x="858.888" y="560.967"/>
      <point x="937.303" y="560.967"/>
      <point x="1013.76" y="560.967" type="curve" smooth="yes"/>
      <point x="1084.33" y="560.967"/>
      <point x="1064.73" y="649.183"/>
      <point x="1003.96" y="649.183" type="curve" smooth="yes"/>
      <point x="745.186" y="649.183"/>
      <point x="478.575" y="649.183"/>
      <point x="219.805" y="649.183" type="curve" smooth="yes"/>
      <point x="92.3807" y="649.183"/>
      <point x="33.5694" y="555.085"/>
      <point x="41.4109" y="425.701" type="curve" smooth="yes"/>
      <point x="45.3317" y="364.929"/>
      <point x="82.5788" y="321.801"/>
      <point x="143.35" y="290.435" type="curve"/>
      <point x="35.5298" y="243.386"/>
      <point x="61.0147" y="115.961"/>
      <point x="70.8166" y="86.5556" type="curve" smooth="yes"/>
      <point x="113.945" y="-46.75"/>
      <point x="374.675" y="-33.0274"/>
      <point x="486.416" y="-33.0274" type="curve" smooth="yes"/>
      <point x="556.99" y="-33.0274"/>
      <point x="555.029" y="86.5556"/>
      <point x="500.139" y="86.5556" type="curve" smooth="yes"/>
      <point x="335.467" y="86.5556"/>
      <point x="300.181" y="82.6348"/>
      <point x="196.281" y="102.239" type="curve" smooth="yes"/>
      <point x="115.905" y="117.922"/>
      <point x="119.826" y="270.831"/>
    </contour>
  </outline>
</glyph>
<glyph name="kn_8" format="2">
  <advance width="1015"/>
  <unicode hex="0CEE"/>
  <outline>
    <contour>
      <point x="422.843" y="538.044" type="curve" smooth="yes"/>
      <point x="587.872" y="542.671"/>
      <point x="768.324" y="544.213"/>
      <point x="933.353" y="544.213" type="curve" smooth="yes"/>
      <point x="995.046" y="544.213"/>
      <point x="982.707" y="445.504"/>
      <point x="927.183" y="445.504" type="curve" smooth="yes"/>
      <point x="799.17" y="445.504"/>
      <point x="649.565" y="445.504"/>
      <point x="521.552" y="445.504" type="curve" smooth="yes"/>
      <point x="503.044" y="445.504"/>
      <point x="507.671" y="448.589"/>
      <point x="518.467" y="433.166" type="curve" smooth="yes"/>
      <point x="566.279" y="365.303"/>
      <point x="607.922" y="314.407"/>
      <point x="607.922" y="223.409" type="curve" smooth="yes"/>
      <point x="607.922" y="95.3963"/>
      <point x="492.248" y="-0.227882"/>
      <point x="336.473" y="-0.227882" type="curve" smooth="yes"/>
      <point x="143.682" y="-0.227882"/>
      <point x="48.0577" y="232.663"/>
      <point x="40.3461" y="400.777" type="curve"/>
      <point x="40.3461" y="434.708"/>
      <point x="89.7005" y="437.793"/>
      <point x="89.7005" y="400.777" type="curve"/>
      <point x="97.4121" y="252.714"/>
      <point x="180.698" y="75.3461"/>
      <point x="345.727" y="75.3461" type="curve" smooth="yes"/>
      <point x="476.824" y="75.3461"/>
      <point x="543.144" y="155.547"/>
      <point x="533.89" y="272.764" type="curve" smooth="yes"/>
      <point x="526.179" y="371.473"/>
      <point x="422.843" y="417.742"/>
      <point x="375.031" y="487.147" type="curve"/>
      <point x="358.065" y="513.367"/>
      <point x="358.065" y="536.501"/>
    </contour>
  </outline>
</glyph>
<glyph name="kn_arka_ottu" format="2">
  <advance width="717"/>
  <outline>
    <contour>
      <point x="1" y="400" type="curve" smooth="yes"/>
      <point x="3" y="495"/>
      <point x="111" y="507"/>
      <point x="184" y="507" type="curve" smooth="yes"/>
      <point x="294" y="507"/>
      <point x="494" y="515"/>
      <point x="653" y="504" type="curve" smooth="yes"/>
      <point x="724" y="499"/>
      <point x="697" y="441"/>
      <point x="653" y="439" type="curve" smooth="yes"/>
      <point x="493" y="430"/>
      <point x="307" y="446"/>
      <point x="141" y="449" type="curve" smooth="yes"/>
      <point x="111" y="449"/>
      <point x="65" y="439"/>
      <point x="74" y="397" type="curve" smooth="yes"/>
      <point x="80" y="370"/>
      <point x="104" y="341"/>
      <point x="133" y="330" type="curve" smooth="yes"/>
      <point x="194" y="307"/>
      <point x="292" y="315"/>
      <point x="351" y="311" type="curve" smooth="yes"/>
      <point x="400" y="307"/>
      <point x="404" y="234"/>
      <point x="368" y="234" type="curve" smooth="yes"/>
      <point x="331" y="234"/>
      <point x="292" y="240"/>
      <point x="254" y="240" type="curve" smooth="yes"/>
      <point x="210" y="240"/>
      <point x="79" y="261"/>
      <point x="79" y="195" type="curve" smooth="yes"/>
      <point x="79" y="115"/>
      <point x="254" y="124"/>
      <point x="340" y="118" type="curve" smooth="yes"/>
      <point x="409" y="113"/>
      <point x="395" y="41"/>
      <point x="320" y="41" type="curve" smooth="yes"/>
      <point x="238" y="41"/>
      <point x="24" y="45"/>
      <point x="12" y="170" type="curve" smooth="yes"/>
      <point x="4" y="253"/>
      <point x="45" y="272"/>
      <point x="112" y="287" type="curve" smooth="yes"/>
      <point x="153" y="296"/>
      <point x="-1" y="312"/>
    </contour>
  </outline>
</glyph>
<glyph name="kn_b.base" format="2">
  <advance width="811"/>
  <outline>
    <contour>
      <point x="421" y="97" type="curve" smooth="yes"/>
      <point x="403" y="133"/>
      <point x="392" y="118"/>
      <point x="372" y="92" type="curve" smooth="yes"/>
      <point x="337" y="46"/>
      <point x="258" y="3"/>
      <point x="199" y="3" type="curve" smooth="yes"/>
      <point x="55" y="3"/>
      <point x="-8" y="179"/>
      <point x="82" y="259" type="curve" smooth="yes"/>
      <point x="213" y="374"/>
      <point x="287" y="344"/>
      <point x="331" y="445" type="curve" smooth="yes"/>
      <point x="354" y="499"/>
      <point x="305" y="551"/>
      <point x="250" y="551" type="curve" smooth="yes"/>
      <point x="199" y="551"/>
      <point x="136" y="485"/>
      <point x="175" y="438" type="curve" smooth="yes"/>
      <point x="202" y="406"/>
      <point x="163" y="394"/>
      <point x="113" y="419" type="curve" smooth="yes"/>
      <point x="75" y="438"/>
      <point x="67" y="449"/>
      <point x="70" y="481" type="curve" smooth="yes"/>
      <point x="77" y="568"/>
      <point x="151" y="617"/>
      <point x="231" y="618" type="curve" smooth="yes"/>
      <point x="303" y="618"/>
      <point x="387" y="576"/>
      <point x="416" y="506" type="curve" smooth="yes"/>
      <point x="501" y="315"/>
      <point x="75" y="312"/>
      <point x="140" y="151" type="curve"/>
      <point x="194" y="40"/>
      <point x="363" y="128"/>
      <point x="343" y="172" type="curve" smooth="yes"/>
      <point x="337" y="185"/>
      <point x="386" y="231"/>
      <point x="406" y="251" type="curve" smooth="yes"/>
      <point x="414" y="259"/>
      <point x="439" y="206"/>
      <point x="456" y="176" type="curve" smooth="yes"/>
      <point x="474" y="144"/>
      <point x="474" y="92"/>
      <point x="569" y="105" type="curve" smooth="yes"/>
      <point x="753" y="131"/>
      <point x="721" y="442"/>
      <point x="573" y="529" type="curve" smooth="yes"/>
      <point x="561" y="536"/>
      <point x="558" y="541"/>
      <point x="558" y="551" type="curve" smooth="yes"/>
      <point x="558" y="581"/>
      <point x="579" y="625"/>
      <point x="610" y="611" type="curve" smooth="yes"/>
      <point x="634" y="600"/>
      <point x="635" y="588"/>
      <point x="672" y="536" type="curve" smooth="yes"/>
      <point x="775" y="392"/>
      <point x="856" y="151"/>
      <point x="652" y="20" type="curve" smooth="yes"/>
      <point x="569" y="-33"/>
      <point x="455" y="32"/>
    </contour>
  </outline>
</glyph>
<glyph name="kn_b_ottu" format="2">
  <advance width="198"/>
  <outline>
    <contour>
      <point x="48.4851" y="351.873" type="curve"/>
      <point x="160.248" y="216.58"/>
      <point x="207.306" y="105.798"/>
      <point x="207.306" y="-66.749" type="curve"/>
      <point x="203.385" y="-148.12"/>
      <point x="178.875" y="-235.374"/>
      <point x="76.9161" y="-227.531" type="curve" smooth="yes"/>
      <point x="28.8775" y="-223.61"/>
      <point x="-2.49462" y="-171.65"/>
      <point x="-15.2395" y="-148.12" type="curve"/>
      <point x="-20.1414" y="-138.317"/>
      <point x="-69.1604" y="-235.374"/>
      <point x="-128.963" y="-235.374" type="curve" smooth="yes"/>
      <point x="-209.355" y="-235.374"/>
      <point x="-264.256" y="-129.493"/>
      <point x="-185.825" y="-64.7883" type="curve"/>
      <point x="-207.394" y="-64.7883"/>
      <point x="-253.472" y="-65.7686"/>
      <point x="-253.472" y="-3.02439" type="curve" smooth="yes"/>
      <point x="-253.472" y="85.2097"/>
      <point x="-164.257" y="99.9154"/>
      <point x="-121.12" y="87.1705" type="curve" smooth="yes"/>
      <point x="-72.1015" y="72.4648"/>
      <point x="-46.6117" y="33.2496"/>
      <point x="-47.592" y="-13.8086" type="curve" smooth="yes"/>
      <point x="-49.5528" y="-90.2781"/>
      <point x="-175.041" y="-53.0237"/>
      <point x="-185.825" y="-126.552" type="curve"/>
      <point x="-185.825" y="-205.963"/>
      <point x="-114.258" y="-207.924"/>
      <point x="-70.1408" y="-163.807" type="curve"/>
      <point x="-58.3762" y="-153.022"/>
      <point x="-43.6705" y="-133.415"/>
      <point x="-49.5528" y="-115.768" type="curve"/>
      <point x="-52.4939" y="-107.925"/>
      <point x="-15.2395" y="-42.2395"/>
      <point x="-10.3376" y="-65.7686" type="curve" smooth="yes"/>
      <point x="-5.43575" y="-90.2781"/>
      <point x="-5.43575" y="-100.082"/>
      <point x="-5.43575" y="-116.748" type="curve" smooth="yes"/>
      <point x="-5.43575" y="-145.179"/>
      <point x="50.4458" y="-166.748"/>
      <point x="73.9749" y="-166.748" type="curve" smooth="yes"/>
      <point x="151.425" y="-166.748"/>
      <point x="184.758" y="-132.434"/>
      <point x="184.758" y="-57.9256" type="curve" smooth="yes"/>
      <point x="184.758" y="99.9154"/>
      <point x="153.386" y="169.522"/>
      <point x="21.0345" y="301.873" type="curve" smooth="yes"/>
      <point x="5.34842" y="317.559"/>
      <point x="22.0149" y="378.343"/>
    </contour>
    <contour>
      <point x="-205.433" y="1.87751" type="curve" smooth="yes"/>
      <point x="-205.433" y="-11.8478"/>
      <point x="-198.57" y="-34.3965"/>
      <point x="-178.963" y="-41.2592" type="curve" smooth="yes"/>
      <point x="-139.748" y="-54.9845"/>
      <point x="-78.9642" y="-46.1611"/>
      <point x="-76.023" y="-3.02439" type="curve" smooth="yes"/>
      <point x="-74.0623" y="27.3674"/>
      <point x="-113.277" y="45.0142"/>
      <point x="-130.924" y="45.9946" type="curve" smooth="yes"/>
      <point x="-164.257" y="47.9553"/>
      <point x="-205.433" y="39.1319"/>
    </contour>
  </outline>
</glyph>
<glyph name="kn_bh.base" format="2">
  <advance width="878"/>
  <outline>
    <contour>
      <point x="334" y="-174" type="curve" smooth="yes"/>
      <point x="334" y="-152"/>
      <point x="382" y="97"/>
      <point x="375" y="97" type="curve" smooth="yes"/>
      <point x="359" y="97"/>
      <point x="285" y="-15"/>
      <point x="157" y="4" type="curve" smooth="yes"/>
      <point x="3" y="27"/>
      <point x="7" y="234"/>
      <point x="141" y="305" type="curve" smooth="yes"/>
      <point x="212" y="343"/>
      <point x="333" y="362"/>
      <point x="355.563" y="450.642" type="curve" smooth="yes"/>
      <point x="375" y="527"/>
      <point x="300" y="571"/>
      <point x="246.769" y="564.565" type="curve" smooth="yes"/>
      <point x="209" y="560"/>
      <point x="157" y="527"/>
      <point x="157" y="462" type="curve" smooth="yes"/>
      <point x="157" y="395"/>
      <point x="128" y="387"/>
      <point x="100" y="405" type="curve" smooth="yes"/>
      <point x="69" y="425"/>
      <point x="68" y="475"/>
      <point x="70" y="492" type="curve" smooth="yes"/>
      <point x="84" y="595"/>
      <point x="160" y="621"/>
      <point x="247" y="621" type="curve" smooth="yes"/>
      <point x="371" y="621"/>
      <point x="441" y="495"/>
      <point x="398.865" y="405.462" type="curve" smooth="yes"/>
      <point x="361" y="325"/>
      <point x="242" y="294"/>
      <point x="203.827" y="279.215" type="curve" smooth="yes"/>
      <point x="100" y="239"/>
      <point x="112" y="132"/>
      <point x="172" y="90" type="curve" smooth="yes"/>
      <point x="236" y="45"/>
      <point x="364" y="146"/>
      <point x="371" y="185" type="curve" smooth="yes"/>
      <point x="378" y="225"/>
      <point x="441" y="243"/>
      <point x="445" y="173" type="curve" smooth="yes"/>
      <point x="448" y="126"/>
      <point x="525" y="101"/>
      <point x="570" y="101" type="curve" smooth="yes"/>
      <point x="829" y="101"/>
      <point x="705" y="494"/>
      <point x="484" y="521" type="curve" smooth="yes"/>
      <point x="459" y="524"/>
      <point x="453" y="536"/>
      <point x="454" y="551" type="curve"/>
      <point x="455" y="577"/>
      <point x="451" y="619"/>
      <point x="484" y="619" type="curve" smooth="yes"/>
      <point x="597" y="619" type="line"/>
      <point x="597" y="586"/>
      <point x="597" y="564"/>
      <point x="597" y="519" type="curve"/>
      <point x="592" y="519"/>
      <point x="581" y="516"/>
      <point x="600" y="502" type="curve"/>
      <point x="619" y="487"/>
      <point x="644" y="476"/>
      <point x="687" y="421" type="curve" smooth="yes"/>
      <point x="783" y="297"/>
      <point x="852" y="89"/>
      <point x="695.273" y="22.5904" type="curve" smooth="yes"/>
      <point x="557" y="-36"/>
      <point x="428" y="94"/>
      <point x="421" y="97" type="curve"/>
      <point x="417" y="98"/>
      <point x="451" y="-141"/>
      <point x="451" y="-174" type="curve" smooth="yes"/>
      <point x="451" y="-286"/>
      <point x="334" y="-259"/>
    </contour>
  </outline>
</glyph>
<glyph name="kn_c_i" format="2">
  <advance width="1021"/>
  <outline>
    <contour>
      <point x="68" y="412" type="curve" smooth="yes"/>
      <point x="0" y="504"/>
      <point x="72" y="577"/>
      <point x="125" y="601" type="curve" smooth="yes"/>
      <point x="227" y="646"/>
      <point x="328" y="614"/>
      <point x="375" y="512" type="curve" smooth="yes"/>
      <point x="401" y="454"/>
      <point x="396" y="408"/>
      <point x="368" y="377" type="curve" smooth="yes"/>
      <point x="318" y="320"/>
      <point x="80" y="259"/>
      <point x="154" y="138" type="curve" smooth="yes"/>
      <point x="208" y="49"/>
      <point x="377" y="89"/>
      <point x="426" y="183" type="curve"/>
      <point x="431" y="192"/>
      <point x="436" y="248"/>
      <point x="455" y="248" type="curve" smooth="yes"/>
      <point x="476" y="248"/>
      <point x="483" y="133"/>
      <point x="559" y="100" type="curve" smooth="yes"/>
      <point x="713" y="34"/>
      <point x="804" y="204"/>
      <point x="784" y="259" type="curve" smooth="yes"/>
      <point x="753" y="343"/>
      <point x="537" y="311"/>
      <point x="504" y="311" type="curve" smooth="yes"/>
      <point x="487" y="311"/>
      <point x="487" y="378"/>
      <point x="510" y="378" type="curve" smooth="yes"/>
      <point x="544" y="378"/>
      <point x="699" y="378"/>
      <point x="721" y="378" type="curve" smooth="yes"/>
      <point x="735" y="378"/>
      <point x="735" y="512"/>
      <point x="682" y="505" type="curve" smooth="yes"/>
      <point x="614" y="496"/>
      <point x="611" y="490"/>
      <point x="559" y="487" type="curve" smooth="yes"/>
      <point x="497" y="483"/>
      <point x="478" y="554"/>
      <point x="554" y="560" type="curve" smooth="yes"/>
      <point x="685" y="570"/>
      <point x="662" y="566"/>
      <point x="786" y="628" type="curve"/>
      <point x="786" y="594"/>
      <point x="738" y="554"/>
      <point x="738" y="525" type="curve"/>
      <point x="775" y="488"/>
      <point x="788" y="378"/>
      <point x="802" y="378" type="curve" smooth="yes"/>
      <point x="834" y="378"/>
      <point x="914" y="378"/>
      <point x="953" y="378" type="curve" smooth="yes"/>
      <point x="971" y="378"/>
      <point x="981" y="363"/>
      <point x="981" y="343" type="curve" smooth="yes"/>
      <point x="981" y="326"/>
      <point x="972" y="311"/>
      <point x="949" y="311" type="curve" smooth="yes"/>
      <point x="914" y="311"/>
      <point x="897" y="311"/>
      <point x="880" y="311" type="curve" smooth="yes"/>
      <point x="847" y="311"/>
      <point x="811" y="306"/>
      <point x="826" y="264" type="curve" smooth="yes"/>
      <point x="874" y="131"/>
      <point x="710" y="-55"/>
      <point x="580" y="-3" type="curve" smooth="yes"/>
      <point x="494" y="31"/>
      <point x="479" y="140"/>
      <point x="464" y="140" type="curve" smooth="yes"/>
      <point x="451" y="140"/>
      <point x="340" y="-55"/>
      <point x="178" y="11" type="curve" smooth="yes"/>
      <point x="85" y="49"/>
      <point x="59" y="109"/>
      <point x="59" y="187" type="curve" smooth="yes"/>
      <point x="59" y="361"/>
      <point x="344" y="347"/>
      <point x="349" y="460" type="curve" smooth="yes"/>
      <point x="352" y="530"/>
      <point x="249" y="553"/>
      <point x="196" y="540" type="curve" smooth="yes"/>
      <point x="176" y="535"/>
      <point x="106" y="517"/>
      <point x="119" y="440" type="curve" smooth="yes"/>
      <point x="124" y="410"/>
      <point x="148" y="403"/>
      <point x="148" y="389" type="curve" smooth="yes"/>
      <point x="148" y="351"/>
      <point x="106" y="361"/>
    </contour>
    <contour>
      <point x="682" y="914" type="curve" smooth="yes"/>
      <point x="790" y="914"/>
      <point x="849" y="852"/>
      <point x="849" y="729" type="curve" smooth="yes"/>
      <point x="849" y="655"/>
      <point x="811" y="512"/>
      <point x="682" y="512" type="curve" smooth="yes"/>
      <point x="584" y="512"/>
      <point x="570" y="554"/>
      <point x="618" y="564" type="curve" smooth="yes"/>
      <point x="797" y="601"/>
      <point x="790" y="664"/>
      <point x="766" y="645" type="curve"/>
      <point x="690" y="580"/>
      <point x="553" y="620"/>
      <point x="539" y="734" type="curve" smooth="yes"/>
      <point x="525" y="839"/>
      <point x="592" y="914"/>
    </contour>
    <contour>
      <point x="614" y="744" type="curve" smooth="yes"/>
      <point x="620" y="716"/>
      <point x="645" y="695"/>
      <point x="675" y="689" type="curve" smooth="yes"/>
      <point x="724" y="679"/>
      <point x="777" y="719"/>
      <point x="769" y="778" type="curve" smooth="yes"/>
      <point x="764" y="822"/>
      <point x="719" y="845"/>
      <point x="681" y="842" type="curve" smooth="yes"/>
      <point x="639" y="839"/>
      <point x="601" y="806"/>
    </contour>
  </outline>
</glyph>
<glyph name="kn_c_ottu2" format="2">
  <advance width="672"/>
  <outline>
    <contour>
      <point x="10.4321" y="18.2093" type="curve" smooth="yes"/>
      <point x="10.4321" y="67.7691"/>
      <point x="56.2516" y="98.6272"/>
      <point x="104.876" y="98.6272" type="curve" smooth="yes"/>
      <point x="169.398" y="98.6272"/>
      <point x="231.114" y="64.0288"/>
      <point x="231.114" y="-4.23294" type="curve" smooth="yes"/>
      <point x="231.114" y="-155.718"/>
      <point x="37.5498" y="-94.9369"/>
      <point x="37.5498" y="-185.641" type="curve" smooth="yes"/>
      <point x="37.5498" y="-271.669"/>
      <point x="204.931" y="-281.02"/>
      <point x="255.426" y="-221.174" type="curve" smooth="yes"/>
      <point x="272.258" y="-201.537"/>
      <point x="287.219" y="-141.691"/>
      <point x="292.83" y="-166.939" type="curve" smooth="yes"/>
      <point x="303.116" y="-209.953"/>
      <point x="325.558" y="-266.059"/>
      <point x="394.755" y="-266.059" type="curve" smooth="yes"/>
      <point x="447.12" y="-266.059"/>
      <point x="531.278" y="-224.915"/>
      <point x="521.927" y="-138.886" type="curve" smooth="yes"/>
      <point x="520.057" y="-118.314"/>
      <point x="506.966" y="-115.509"/>
      <point x="367.637" y="-115.509" type="curve" smooth="yes"/>
      <point x="333.039" y="-115.509"/>
      <point x="348" y="-55.663"/>
      <point x="394.755" y="-55.663" type="curve" smooth="yes"/>
      <point x="476.108" y="-55.663"/>
      <point x="612.631" y="-51.9226"/>
      <point x="687.439" y="-51.9226" type="curve" smooth="yes"/>
      <point x="706.141" y="-51.9226"/>
      <point x="706.141" y="-115.509"/>
      <point x="688.374" y="-115.509" type="curve" smooth="yes"/>
      <point x="666.867" y="-115.509"/>
      <point x="607.956" y="-115.509"/>
      <point x="591.124" y="-115.509" type="curve" smooth="yes"/>
      <point x="578.033" y="-115.509"/>
      <point x="570.552" y="-117.379"/>
      <point x="568.682" y="-140.756" type="curve" smooth="yes"/>
      <point x="563.071" y="-229.59"/>
      <point x="542.499" y="-299.722"/>
      <point x="434.029" y="-305.333" type="curve" smooth="yes"/>
      <point x="357.351" y="-309.073"/>
      <point x="316.207" y="-284.761"/>
      <point x="291.895" y="-228.655" type="curve"/>
      <point x="287.219" y="-219.304"/>
      <point x="248.881" y="-316.554"/>
      <point x="131.059" y="-309.073" type="curve" smooth="yes"/>
      <point x="73.0833" y="-305.333"/>
      <point x="14.1725" y="-258.578"/>
      <point x="14.1725" y="-198.732" type="curve" smooth="yes"/>
      <point x="14.1725" y="-47.2472"/>
      <point x="201.191" y="-115.509"/>
      <point x="201.191" y="-9.84349" type="curve" smooth="yes"/>
      <point x="201.191" y="86.471"/>
      <point x="50.6411" y="96.757"/>
      <point x="50.6411" y="5.11798" type="curve" smooth="yes"/>
      <point x="50.6411" y="-5.16803"/>
      <point x="60.9271" y="-11.7137"/>
      <point x="60.9271" y="-21.9997" type="curve" smooth="yes"/>
      <point x="60.9271" y="-43.5068"/>
      <point x="48.7709" y="-54.7279"/>
      <point x="33.8094" y="-45.377" type="curve" smooth="yes"/>
      <point x="10.4321" y="-30.4155"/>
      <point x="10.4321" y="2.3127"/>
    </contour>
  </outline>
</glyph>
<glyph name="kn_c_v" format="2">
  <advance width="1180"/>
  <outline>
    <component base="kn_virama" xOffset="550" yOffset="83"/>
    <contour>
      <point x="68" y="412" type="curve" smooth="yes"/>
      <point x="0" y="504"/>
      <point x="72" y="577"/>
      <point x="125" y="601" type="curve" smooth="yes"/>
      <point x="227" y="646"/>
      <point x="328" y="614"/>
      <point x="375" y="512" type="curve" smooth="yes"/>
      <point x="401" y="454"/>
      <point x="396" y="408"/>
      <point x="368" y="377" type="curve" smooth="yes"/>
      <point x="318" y="320"/>
      <point x="80" y="259"/>
      <point x="154" y="138" type="curve" smooth="yes"/>
      <point x="208" y="49"/>
      <point x="377" y="89"/>
      <point x="426" y="183" type="curve"/>
      <point x="431" y="192"/>
      <point x="436" y="248"/>
      <point x="455" y="248" type="curve" smooth="yes"/>
      <point x="476" y="248"/>
      <point x="483" y="133"/>
      <point x="559" y="100" type="curve" smooth="yes"/>
      <point x="713" y="34"/>
      <point x="804" y="204"/>
      <point x="784" y="259" type="curve" smooth="yes"/>
      <point x="753" y="343"/>
      <point x="537" y="311"/>
      <point x="504" y="311" type="curve" smooth="yes"/>
      <point x="487" y="311"/>
      <point x="487" y="378"/>
      <point x="510" y="378" type="curve" smooth="yes"/>
      <point x="544" y="378"/>
      <point x="699" y="378"/>
      <point x="721" y="378" type="curve" smooth="yes"/>
      <point x="735" y="378"/>
      <point x="735" y="461"/>
      <point x="681" y="461" type="curve"/>
      <point x="721" y="456"/>
      <point x="721" y="461"/>
      <point x="744" y="461" type="curve"/>
      <point x="734" y="461"/>
      <point x="754" y="447"/>
      <point x="766" y="423" type="curve" smooth="yes"/>
      <point x="787" y="382"/>
      <point x="783" y="378"/>
      <point x="802" y="378" type="curve" smooth="yes"/>
      <point x="834" y="378"/>
      <point x="914" y="378"/>
      <point x="953" y="378" type="curve" smooth="yes"/>
      <point x="971" y="378"/>
      <point x="981" y="363"/>
      <point x="981" y="343" type="curve" smooth="yes"/>
      <point x="981" y="326"/>
      <point x="972" y="311"/>
      <point x="949" y="311" type="curve" smooth="yes"/>
      <point x="914" y="311"/>
      <point x="897" y="311"/>
      <point x="880" y="311" type="curve" smooth="yes"/>
      <point x="847" y="311"/>
      <point x="811" y="306"/>
      <point x="826" y="264" type="curve" smooth="yes"/>
      <point x="874" y="131"/>
      <point x="710" y="-55"/>
      <point x="580" y="-3" type="curve" smooth="yes"/>
      <point x="494" y="31"/>
      <point x="479" y="140"/>
      <point x="464" y="140" type="curve" smooth="yes"/>
      <point x="451" y="140"/>
      <point x="340" y="-55"/>
      <point x="178" y="11" type="curve" smooth="yes"/>
      <point x="85" y="49"/>
      <point x="59" y="109"/>
      <point x="59" y="187" type="curve" smooth="yes"/>
      <point x="59" y="361"/>
      <point x="344" y="347"/>
      <point x="349" y="460" type="curve" smooth="yes"/>
      <point x="352" y="530"/>
      <point x="249" y="553"/>
      <point x="196" y="540" type="curve" smooth="yes"/>
      <point x="176" y="535"/>
      <point x="106" y="517"/>
      <point x="119" y="440" type="curve" smooth="yes"/>
      <point x="124" y="410"/>
      <point x="148" y="403"/>
      <point x="148" y="389" type="curve" smooth="yes"/>
      <point x="148" y="351"/>
      <point x="106" y="361"/>
    </contour>
  </outline>
</glyph>
<glyph name="kn_ch_i" format="2">
  <advance width="839"/>
  <outline>
    <contour>
      <point x="439" y="508" type="curve" smooth="yes"/>
      <point x="402" y="509"/>
      <point x="422" y="581"/>
      <point x="497" y="590" type="curve" smooth="yes"/>
      <point x="595" y="602"/>
      <point x="624" y="608"/>
      <point x="624" y="608" type="curve"/>
      <point x="624" y="582"/>
      <point x="624" y="562"/>
      <point x="624" y="536" type="curve"/>
      <point x="592" y="524"/>
      <point x="611" y="508"/>
      <point x="642" y="481" type="curve" smooth="yes"/>
      <point x="832" y="315"/>
      <point x="862" y="19"/>
      <point x="659" y="12" type="curve" smooth="yes"/>
      <point x="556" y="8"/>
      <point x="485" y="151"/>
      <point x="464" y="147" type="curve"/>
      <point x="457" y="146"/>
      <point x="459" y="136"/>
      <point x="459" y="113" type="curve" smooth="yes"/>
      <point x="460" y="54"/>
      <point x="482" y="35"/>
      <point x="498" y="3" type="curve" smooth="yes"/>
      <point x="512" y="-26"/>
      <point x="498" y="-65"/>
      <point x="474" y="-78" type="curve" smooth="yes"/>
      <point x="438" y="-97"/>
      <point x="376" y="-103"/>
      <point x="376" y="-35" type="curve" smooth="yes"/>
      <point x="376" y="5"/>
      <point x="428" y="109"/>
      <point x="428" y="131" type="curve" smooth="yes"/>
      <point x="428" y="147"/>
      <point x="424" y="154"/>
      <point x="411" y="138" type="curve" smooth="yes"/>
      <point x="375" y="95"/>
      <point x="302" y="-16"/>
      <point x="169" y="19" type="curve" smooth="yes"/>
      <point x="23" y="59"/>
      <point x="15" y="292"/>
      <point x="76" y="399" type="curve" smooth="yes"/>
      <point x="108" y="455"/>
      <point x="180" y="522"/>
      <point x="304" y="508" type="curve" smooth="yes"/>
      <point x="357" y="502"/>
      <point x="406" y="474"/>
      <point x="398" y="411" type="curve" smooth="yes"/>
      <point x="386" y="309"/>
      <point x="238" y="253"/>
      <point x="187" y="363" type="curve" smooth="yes"/>
      <point x="172" y="394"/>
      <point x="170" y="396"/>
      <point x="156" y="396" type="curve" smooth="yes"/>
      <point x="67" y="396"/>
      <point x="81" y="156"/>
      <point x="204" y="121" type="curve" smooth="yes"/>
      <point x="289" y="97"/>
      <point x="411" y="144"/>
      <point x="411" y="242" type="curve" smooth="yes"/>
      <point x="411" y="302"/>
      <point x="481" y="289"/>
      <point x="481" y="244" type="curve" smooth="yes"/>
      <point x="481" y="182"/>
      <point x="550" y="100"/>
      <point x="610" y="100" type="curve" smooth="yes"/>
      <point x="775" y="100"/>
      <point x="777" y="272"/>
      <point x="616" y="415" type="curve" smooth="yes"/>
      <point x="520" y="501"/>
      <point x="502" y="506"/>
    </contour>
    <contour>
      <point x="334" y="409" type="curve" smooth="yes"/>
      <point x="329" y="434"/>
      <point x="307" y="451"/>
      <point x="286" y="453" type="curve" smooth="yes"/>
      <point x="261" y="455"/>
      <point x="225" y="436"/>
      <point x="225" y="404" type="curve" smooth="yes"/>
      <point x="225" y="377"/>
      <point x="235" y="358"/>
      <point x="271" y="354" type="curve" smooth="yes"/>
      <point x="300" y="351"/>
      <point x="342" y="370"/>
    </contour>
    <contour>
      <point x="577" y="929" type="curve" smooth="yes"/>
      <point x="685" y="929"/>
      <point x="744" y="867"/>
      <point x="744" y="744" type="curve" smooth="yes"/>
      <point x="744" y="670"/>
      <point x="706" y="527"/>
      <point x="577" y="527" type="curve" smooth="yes"/>
      <point x="479" y="527"/>
      <point x="459" y="586"/>
      <point x="508" y="590" type="curve" smooth="yes"/>
      <point x="660" y="603"/>
      <point x="684" y="680"/>
      <point x="661" y="660" type="curve" smooth="yes"/>
      <point x="584" y="596"/>
      <point x="449" y="635"/>
      <point x="434" y="749" type="curve" smooth="yes"/>
      <point x="421" y="854"/>
      <point x="487" y="929"/>
    </contour>
    <contour>
      <point x="509" y="759" type="curve" smooth="yes"/>
      <point x="515" y="731"/>
      <point x="540" y="710"/>
      <point x="570" y="704" type="curve" smooth="yes"/>
      <point x="619" y="694"/>
      <point x="671" y="734"/>
      <point x="664" y="793" type="curve" smooth="yes"/>
      <point x="658" y="837"/>
      <point x="614" y="860"/>
      <point x="576" y="857" type="curve" smooth="yes"/>
      <point x="534" y="854"/>
      <point x="496" y="821"/>
    </contour>
  </outline>
</glyph>
<glyph name="kn_ch_ottu2" format="2">
  <advance width="576"/>
  <outline>
    <contour>
      <point x="289" y="-187" type="curve" smooth="yes"/>
      <point x="297" y="-160"/>
      <point x="301" y="-138"/>
      <point x="308" y="-148" type="curve" smooth="yes"/>
      <point x="336" y="-187"/>
      <point x="347" y="-256"/>
      <point x="424" y="-258" type="curve" smooth="yes"/>
      <point x="497" y="-260"/>
      <point x="543" y="-212"/>
      <point x="543" y="-143" type="curve" smooth="yes"/>
      <point x="543" y="5"/>
      <point x="380" y="-6"/>
      <point x="367" y="52" type="curve" smooth="yes"/>
      <point x="364" y="65"/>
      <point x="373" y="74"/>
      <point x="386" y="71" type="curve"/>
      <point x="459" y="57"/>
      <point x="592" y="-29"/>
      <point x="605" y="-141" type="curve" smooth="yes"/>
      <point x="614" y="-219"/>
      <point x="560" y="-299"/>
      <point x="470" y="-299" type="curve" smooth="yes"/>
      <point x="407" y="-299"/>
      <point x="353" y="-258"/>
      <point x="319" y="-218" type="curve"/>
      <point x="315" y="-214"/>
      <point x="258" y="-312"/>
      <point x="164" y="-312" type="curve" smooth="yes"/>
      <point x="56" y="-312"/>
      <point x="1" y="-197"/>
      <point x="12" y="-106" type="curve" smooth="yes"/>
      <point x="25" y="5"/>
      <point x="166" y="104"/>
      <point x="229" y="71" type="curve" smooth="yes"/>
      <point x="258" y="56"/>
      <point x="280" y="21"/>
      <point x="280" y="-13" type="curve" smooth="yes"/>
      <point x="280" y="-57"/>
      <point x="242" y="-106"/>
      <point x="196" y="-106" type="curve" smooth="yes"/>
      <point x="110" y="-106"/>
      <point x="127" y="0"/>
      <point x="118" y="-2" type="curve"/>
      <point x="-4" y="-37"/>
      <point x="12" y="-264"/>
      <point x="160" y="-274" type="curve" smooth="yes"/>
      <point x="218" y="-278"/>
      <point x="275" y="-237"/>
    </contour>
    <contour>
      <point x="154" y="-13" type="curve" smooth="yes"/>
      <point x="154" y="-37"/>
      <point x="190" y="-47"/>
      <point x="218" y="-47" type="curve" smooth="yes"/>
      <point x="238" y="-47"/>
      <point x="255" y="-37"/>
      <point x="243" y="-11" type="curve" smooth="yes"/>
      <point x="235" y="7"/>
      <point x="183" y="15"/>
      <point x="167" y="5" type="curve"/>
      <point x="160" y="1"/>
      <point x="154" y="-8"/>
    </contour>
    <contour>
      <point x="325" y="-257" type="curve" smooth="yes"/>
      <point x="342" y="-289"/>
      <point x="344" y="-362"/>
      <point x="342" y="-405" type="curve"/>
      <point x="342" y="-425"/>
      <point x="342" y="-447"/>
      <point x="318" y="-447" type="curve" smooth="yes"/>
      <point x="296" y="-447"/>
      <point x="278" y="-438"/>
      <point x="281" y="-411" type="curve"/>
      <point x="283" y="-383"/>
      <point x="317" y="-242"/>
    </contour>
  </outline>
</glyph>
<glyph name="kn_d.base" format="2">
  <advance width="779"/>
  <outline>
    <contour>
      <point x="443" y="64" type="curve" smooth="yes"/>
      <point x="419" y="91"/>
      <point x="419" y="88"/>
      <point x="401" y="68" type="curve" smooth="yes"/>
      <point x="383" y="49"/>
      <point x="347" y="-13"/>
      <point x="240" y="-3" type="curve" smooth="yes"/>
      <point x="34" y="15"/>
      <point x="102" y="375"/>
      <point x="312" y="514" type="curve"/>
      <point x="285" y="514"/>
      <point x="178" y="514"/>
      <point x="107" y="514" type="curve" smooth="yes"/>
      <point x="55" y="514"/>
      <point x="49" y="614"/>
      <point x="154" y="614" type="curve" smooth="yes"/>
      <point x="335" y="614"/>
      <point x="473" y="614"/>
      <point x="574" y="614" type="curve"/>
      <point x="574" y="581"/>
      <point x="574" y="549"/>
      <point x="574" y="514" type="curve"/>
      <point x="573" y="514"/>
      <point x="554" y="514"/>
      <point x="553" y="514" type="curve"/>
      <point x="549" y="513"/>
      <point x="552" y="510"/>
      <point x="557" y="507" type="curve"/>
      <point x="719" y="420"/>
      <point x="827" y="27"/>
      <point x="586" y="6" type="curve" smooth="yes"/>
      <point x="518" y="0"/>
      <point x="467" y="37"/>
    </contour>
    <contour>
      <point x="376" y="101" type="curve" smooth="yes"/>
      <point x="400" y="125"/>
      <point x="408" y="174"/>
      <point x="438" y="139" type="curve" smooth="yes"/>
      <point x="480" y="91"/>
      <point x="612" y="-23"/>
      <point x="660" y="151" type="curve" smooth="yes"/>
      <point x="688" y="253"/>
      <point x="641" y="420"/>
      <point x="523" y="478" type="curve" smooth="yes"/>
      <point x="466" y="506"/>
      <point x="389" y="511"/>
      <point x="336" y="470" type="curve" smooth="yes"/>
      <point x="49" y="248"/>
      <point x="218" y="-57"/>
    </contour>
  </outline>
</glyph>
<glyph name="kn_d_ottu" format="2">
  <advance width="341"/>
  <outline>
    <contour>
      <point x="150.996" y="18.9647" type="curve" smooth="yes"/>
      <point x="235.622" y="18.9647"/>
      <point x="350.874" y="-108.377"/>
      <point x="350.874" y="-199.451" type="curve" smooth="yes"/>
      <point x="350.874" y="-265.54"/>
      <point x="301.71" y="-327.599"/>
      <point x="231.592" y="-327.599" type="curve" smooth="yes"/>
      <point x="175.175" y="-327.599"/>
      <point x="147.772" y="-294.554"/>
      <point x="133.265" y="-269.569" type="curve"/>
      <point x="130.847" y="-266.346"/>
      <point x="131.653" y="-263.928"/>
      <point x="126.817" y="-269.569" type="curve" smooth="yes"/>
      <point x="105.862" y="-293.748"/>
      <point x="85.7129" y="-319.539"/>
      <point x="28.4896" y="-318.733" type="curve" smooth="yes"/>
      <point x="-11.0024" y="-317.927"/>
      <point x="-85.1509" y="-267.957"/>
      <point x="-79.5091" y="-184.137" type="curve" smooth="yes"/>
      <point x="-73.8674" y="-104.347"/>
      <point x="65.5638" y="18.9647"/>
    </contour>
    <contour>
      <point x="126.817" y="-7.63203" type="curve" smooth="yes"/>
      <point x="48.6387" y="-19.7214"/>
      <point x="-63.3899" y="-133.362"/>
      <point x="-28.7336" y="-238.137" type="curve" smooth="yes"/>
      <point x="-16.6442" y="-274.405"/>
      <point x="15.5943" y="-296.972"/>
      <point x="51.8625" y="-288.912" type="curve" smooth="yes"/>
      <point x="118.757" y="-274.405"/>
      <point x="126.817" y="-193.809"/>
      <point x="138.906" y="-210.734" type="curve" smooth="yes"/>
      <point x="160.667" y="-239.749"/>
      <point x="185.652" y="-300.196"/>
      <point x="235.622" y="-292.942" type="curve" smooth="yes"/>
      <point x="283.173" y="-285.689"/>
      <point x="311.382" y="-237.331"/>
      <point x="310.576" y="-186.555" type="curve" smooth="yes"/>
      <point x="309.77" y="-116.437"/>
      <point x="203.383" y="5.26335"/>
    </contour>
  </outline>
</glyph>
<glyph name="kn_d_ottu2" format="2">
  <advance width="411"/>
  <outline>
    <contour>
      <point x="240.996" y="18.9647" type="curve" smooth="yes"/>
      <point x="325.622" y="18.9647"/>
      <point x="440.874" y="-108.377"/>
      <point x="440.874" y="-199.451" type="curve" smooth="yes"/>
      <point x="440.874" y="-265.54"/>
      <point x="391.71" y="-327.599"/>
      <point x="321.592" y="-327.599" type="curve" smooth="yes"/>
      <point x="265.175" y="-327.599"/>
      <point x="237.772" y="-294.554"/>
      <point x="223.265" y="-269.569" type="curve"/>
      <point x="220.847" y="-266.346"/>
      <point x="221.653" y="-263.928"/>
      <point x="216.817" y="-269.569" type="curve" smooth="yes"/>
      <point x="195.862" y="-293.748"/>
      <point x="175.713" y="-319.539"/>
      <point x="118.49" y="-318.733" type="curve" smooth="yes"/>
      <point x="78.9976" y="-317.927"/>
      <point x="4.84914" y="-267.957"/>
      <point x="10.4909" y="-184.137" type="curve" smooth="yes"/>
      <point x="16.1326" y="-104.347"/>
      <point x="155.564" y="18.9647"/>
    </contour>
    <contour>
      <point x="216.817" y="-7.63203" type="curve" smooth="yes"/>
      <point x="138.639" y="-19.7214"/>
      <point x="26.6101" y="-133.362"/>
      <point x="61.2664" y="-238.137" type="curve" smooth="yes"/>
      <point x="73.3558" y="-274.405"/>
      <point x="105.594" y="-296.972"/>
      <point x="141.863" y="-288.912" type="curve" smooth="yes"/>
      <point x="208.757" y="-274.405"/>
      <point x="216.817" y="-193.809"/>
      <point x="228.906" y="-210.734" type="curve" smooth="yes"/>
      <point x="250.667" y="-239.749"/>
      <point x="275.652" y="-300.196"/>
      <point x="325.622" y="-292.942" type="curve" smooth="yes"/>
      <point x="373.173" y="-285.689"/>
      <point x="401.382" y="-237.331"/>
      <point x="400.576" y="-186.555" type="curve" smooth="yes"/>
      <point x="399.77" y="-116.437"/>
      <point x="293.383" y="5.26335"/>
    </contour>
  </outline>
</glyph>
<glyph name="kn_dd_i" format="2">
  <advance width="711"/>
  <outline>
    <contour>
      <point x="69.4099" y="628.813" type="curve" smooth="yes"/>
      <point x="69.4099" y="671.708"/>
      <point x="124.56" y="696.219"/>
      <point x="162.859" y="696.219" type="curve" smooth="yes"/>
      <point x="205.754" y="696.219"/>
      <point x="299.203" y="677.835"/>
      <point x="354.354" y="650.26" type="curve" smooth="yes"/>
      <point x="478.442" y="588.982"/>
      <point x="556.572" y="516.98"/>
      <point x="571.892" y="408.211" type="curve" smooth="yes"/>
      <point x="578.019" y="366.848"/>
      <point x="550.444" y="320.89"/>
      <point x="562.7" y="314.762" type="curve" smooth="yes"/>
      <point x="686.788" y="251.952"/>
      <point x="711.3" y="114.076"/>
      <point x="596.403" y="25.2221" type="curve" smooth="yes"/>
      <point x="492.23" y="-54.4396"/>
      <point x="366.609" y="69.6488"/>
      <point x="352.822" y="88.0323" type="curve" smooth="yes"/>
      <point x="348.226" y="94.1601"/>
      <point x="331.374" y="42.0736"/>
      <point x="267.032" y="9.90251" type="curve" smooth="yes"/>
      <point x="144.476" y="-51.3757"/>
      <point x="40.3028" y="66.5849"/>
      <point x="40.3028" y="192.205" type="curve" smooth="yes"/>
      <point x="40.3028" y="343.869"/>
      <point x="133.752" y="397.487"/>
      <point x="244.053" y="460.298" type="curve" smooth="yes"/>
      <point x="260.904" y="469.489"/>
      <point x="267.032" y="480.213"/>
      <point x="247.117" y="489.405" type="curve"/>
      <point x="204.222" y="510.852"/>
      <point x="69.4099" y="544.555"/>
    </contour>
    <contour>
      <point x="167.455" y="587.45" type="curve" smooth="yes"/>
      <point x="167.455" y="558.343"/>
      <point x="230.265" y="546.087"/>
      <point x="251.713" y="544.555" type="curve" smooth="yes"/>
      <point x="299.203" y="539.959"/>
      <point x="352.822" y="544.555"/>
      <point x="377.333" y="553.747" type="curve" smooth="yes"/>
      <point x="430.952" y="573.662"/>
      <point x="308.395" y="634.941"/>
      <point x="239.457" y="631.877" type="curve" smooth="yes"/>
      <point x="196.562" y="630.345"/>
      <point x="167.455" y="621.153"/>
    </contour>
    <contour>
      <point x="130.688" y="163.098" type="curve" smooth="yes"/>
      <point x="133.752" y="121.735"/>
      <point x="152.136" y="68.1168"/>
      <point x="213.414" y="60.4571" type="curve" smooth="yes"/>
      <point x="290.012" y="49.7334"/>
      <point x="332.906" y="181.482"/>
      <point x="355.886" y="158.502" type="curve" smooth="yes"/>
      <point x="375.801" y="138.587"/>
      <point x="453.931" y="25.2221"/>
      <point x="547.38" y="107.948" type="curve" smooth="yes"/>
      <point x="574.955" y="132.459"/>
      <point x="613.254" y="216.717"/>
      <point x="578.019" y="235.1" type="curve"/>
      <point x="556.572" y="247.356"/>
      <point x="519.805" y="221.312"/>
      <point x="489.166" y="221.312" type="curve" smooth="yes"/>
      <point x="450.867" y="221.312"/>
      <point x="414.1" y="253.484"/>
      <point x="417.164" y="290.25" type="curve" smooth="yes"/>
      <point x="423.292" y="348.465"/>
      <point x="542.784" y="311.698"/>
      <point x="532.061" y="374.508" type="curve" smooth="yes"/>
      <point x="519.805" y="444.978"/>
      <point x="429.42" y="484.809"/>
      <point x="360.482" y="486.341" type="curve" smooth="yes"/>
      <point x="314.523" y="487.873"/>
      <point x="250.181" y="443.446"/>
      <point x="216.478" y="408.211" type="curve" smooth="yes"/>
      <point x="146.008" y="333.145"/>
      <point x="123.028" y="265.739"/>
    </contour>
  </outline>
</glyph>
<glyph name="kn_dd_ottu" format="2">
  <advance width="342"/>
  <outline>
    <contour>
      <point x="-79.984" y="-215.963" type="curve" smooth="yes"/>
      <point x="-79.984" y="-115.763"/>
      <point x="26.2113" y="44.3868"/>
      <point x="135.832" y="44.3868" type="curve" smooth="yes"/>
      <point x="220.617" y="44.3868"/>
      <point x="262.581" y="-59.2393"/>
      <point x="281.423" y="-81.506" type="curve" smooth="yes"/>
      <point x="294.269" y="-96.9215"/>
      <point x="351.648" y="-137.173"/>
      <point x="351.648" y="-184.276" type="curve" smooth="yes"/>
      <point x="351.648" y="-239.943"/>
      <point x="318.248" y="-301.604"/>
      <point x="256.587" y="-301.604" type="curve" smooth="yes"/>
      <point x="183.791" y="-301.604"/>
      <point x="143.54" y="-243.368"/>
      <point x="138.401" y="-250.22" type="curve" smooth="yes"/>
      <point x="110.996" y="-286.189"/>
      <point x="72.4576" y="-308.456"/>
      <point x="27.9241" y="-307.599" type="curve" smooth="yes"/>
      <point x="-20.0351" y="-306.743"/>
      <point x="-79.984" y="-291.327"/>
    </contour>
    <contour>
      <point x="-23.4607" y="-151.732" type="curve" smooth="yes"/>
      <point x="-45.7275" y="-236.517"/>
      <point x="56.1857" y="-302.461"/>
      <point x="102.432" y="-262.209" type="curve" smooth="yes"/>
      <point x="123.842" y="-243.368"/>
      <point x="129.837" y="-190.271"/>
      <point x="143.54" y="-204.83" type="curve" smooth="yes"/>
      <point x="158.955" y="-221.958"/>
      <point x="162.381" y="-249.363"/>
      <point x="186.361" y="-259.64" type="curve" smooth="yes"/>
      <point x="243.74" y="-283.62"/>
      <point x="342.228" y="-199.691"/>
      <point x="301.12" y="-138.886" type="curve" smooth="yes"/>
      <point x="299.407" y="-136.316"/>
      <point x="293.412" y="-126.896"/>
      <point x="292.556" y="-127.752" type="curve"/>
      <point x="256.587" y="-160.296"/>
      <point x="177.796" y="-162.865"/>
      <point x="177.796" y="-98.6343" type="curve" smooth="yes"/>
      <point x="177.796" y="-64.3778"/>
      <point x="216.335" y="-62.6649"/>
      <point x="225.756" y="-66.0906" type="curve"/>
      <point x="243.74" y="-72.0855"/>
      <point x="180.366" y="8.4174"/>
      <point x="129.837" y="8.4174" type="curve" smooth="yes"/>
      <point x="58.755" y="8.4174"/>
      <point x="-8.04529" y="-93.4958"/>
    </contour>
  </outline>
</glyph>
<glyph name="kn_ddh_i" format="2">
  <advance width="711"/>
  <outline>
    <component base="kn_dd_i"/>
    <contour>
      <point x="369" y="63" type="curve"/>
      <point x="374" y="6"/>
      <point x="416" y="-173"/>
      <point x="372" y="-207" type="curve" smooth="yes"/>
      <point x="354" y="-221"/>
      <point x="321" y="-232"/>
      <point x="298" y="-198" type="curve" smooth="yes"/>
      <point x="270" y="-156"/>
      <point x="298" y="-104"/>
      <point x="306" y="-72" type="curve" smooth="yes"/>
      <point x="312" y="-47"/>
      <point x="340" y="73"/>
      <point x="340" y="90" type="curve" smooth="yes"/>
      <point x="340" y="100"/>
      <point x="333" y="102"/>
      <point x="329" y="98" type="curve"/>
      <point x="337" y="106"/>
      <point x="348" y="123"/>
      <point x="352" y="123" type="curve" smooth="yes"/>
      <point x="356" y="123"/>
      <point x="369" y="91"/>
      <point x="369" y="87" type="curve" smooth="yes"/>
      <point x="369" y="83"/>
      <point x="368" y="71"/>
    </contour>
  </outline>
</glyph>
<glyph name="kn_ddh_ottu2" format="2">
  <advance width="397"/>
  <outline>
    <contour>
      <point x="179.408" y="-291.382" type="curve" smooth="yes"/>
      <point x="144.821" y="-309.756"/>
      <point x="28.0932" y="-331.372"/>
      <point x="14.0426" y="-269.766" type="curve" smooth="yes"/>
      <point x="-9.73536" y="-168.169"/>
      <point x="98.3463" y="20.9742"/>
      <point x="223.721" y="20.9742" type="curve" smooth="yes"/>
      <point x="264.792" y="20.9742"/>
      <point x="316.671" y="-25.5009"/>
      <point x="332.884" y="-64.4103" type="curve" smooth="yes"/>
      <point x="344.773" y="-93.5924"/>
      <point x="342.611" y="-110.885"/>
      <point x="367.47" y="-123.855" type="curve" smooth="yes"/>
      <point x="391.248" y="-135.744"/>
      <point x="426.915" y="-155.199"/>
      <point x="426.915" y="-210.321" type="curve" smooth="yes"/>
      <point x="426.915" y="-275.17"/>
      <point x="368.551" y="-323.806"/>
      <point x="311.267" y="-316.241" type="curve" smooth="yes"/>
      <point x="276.681" y="-311.917"/>
      <point x="258.307" y="-281.655"/>
      <point x="242.095" y="-281.655" type="curve" smooth="yes"/>
      <point x="230.206" y="-281.655"/>
      <point x="231.287" y="-301.109"/>
      <point x="230.206" y="-309.756" type="curve"/>
      <point x="226.964" y="-344.342"/>
      <point x="223.721" y="-350.827"/>
      <point x="223.721" y="-386.494" type="curve" smooth="yes"/>
      <point x="223.721" y="-408.11"/>
      <point x="251.822" y="-415.676"/>
      <point x="251.822" y="-437.292" type="curve" smooth="yes"/>
      <point x="251.822" y="-453.504"/>
      <point x="238.853" y="-474.04"/>
      <point x="220.479" y="-474.04" type="curve" smooth="yes"/>
      <point x="202.105" y="-474.04"/>
      <point x="185.893" y="-455.666"/>
      <point x="185.893" y="-437.292" type="curve" smooth="yes"/>
      <point x="185.893" y="-384.332"/>
      <point x="208.59" y="-368.12"/>
      <point x="208.59" y="-312.998" type="curve" smooth="yes"/>
      <point x="208.59" y="-300.028"/>
      <point x="191.297" y="-284.897"/>
    </contour>
    <contour>
      <point x="229.125" y="-237.341" type="curve" smooth="yes"/>
      <point x="237.772" y="-243.826"/>
      <point x="248.58" y="-281.655"/>
      <point x="276.681" y="-281.655" type="curve" smooth="yes"/>
      <point x="333.964" y="-281.655"/>
      <point x="400.975" y="-245.988"/>
      <point x="393.409" y="-193.028" type="curve" smooth="yes"/>
      <point x="389.086" y="-163.845"/>
      <point x="368.551" y="-134.663"/>
      <point x="355.581" y="-135.744" type="curve" smooth="yes"/>
      <point x="326.399" y="-137.906"/>
      <point x="319.914" y="-175.734"/>
      <point x="306.944" y="-175.734" type="curve" smooth="yes"/>
      <point x="276.681" y="-175.734"/>
      <point x="252.903" y="-141.148"/>
      <point x="256.146" y="-118.451" type="curve" smooth="yes"/>
      <point x="257.226" y="-110.885"/>
      <point x="261.55" y="-104.401"/>
      <point x="268.035" y="-103.32" type="curve"/>
      <point x="284.247" y="-100.077"/>
      <point x="314.51" y="-107.643"/>
      <point x="311.267" y="-75.2185" type="curve" smooth="yes"/>
      <point x="308.025" y="-40.6324"/>
      <point x="262.631" y="-15.7736"/>
      <point x="233.448" y="-10.3695" type="curve" smooth="yes"/>
      <point x="153.468" y="4.76196"/>
      <point x="39.9822" y="-121.694"/>
      <point x="39.9822" y="-197.351" type="curve" smooth="yes"/>
      <point x="39.9822" y="-258.957"/>
      <point x="117.801" y="-300.028"/>
      <point x="167.519" y="-288.139" type="curve" smooth="yes"/>
      <point x="195.62" y="-281.655"/>
      <point x="215.075" y="-226.533"/>
    </contour>
  </outline>
</glyph>
<glyph name="kn_dh_i" format="2">
  <advance width="709"/>
  <outline>
    <component base="kn_d_i"/>
    <contour>
      <point x="381" y="63" type="curve"/>
      <point x="386" y="6"/>
      <point x="428" y="-173"/>
      <point x="384" y="-207" type="curve" smooth="yes"/>
      <point x="366" y="-221"/>
      <point x="333" y="-232"/>
      <point x="310" y="-198" type="curve" smooth="yes"/>
      <point x="282" y="-156"/>
      <point x="310" y="-104"/>
      <point x="318" y="-72" type="curve" smooth="yes"/>
      <point x="324" y="-47"/>
      <point x="352" y="73"/>
      <point x="352" y="90" type="curve" smooth="yes"/>
      <point x="352" y="100"/>
      <point x="345" y="102"/>
      <point x="341" y="98" type="curve"/>
      <point x="349" y="106"/>
      <point x="360" y="123"/>
      <point x="364" y="123" type="curve" smooth="yes"/>
      <point x="368" y="123"/>
      <point x="381" y="91"/>
      <point x="381" y="87" type="curve" smooth="yes"/>
      <point x="381" y="83"/>
      <point x="380" y="71"/>
    </contour>
  </outline>
</glyph>
<glyph name="kn_dh_ottu" format="2">
  <advance width="303"/>
  <outline>
    <contour>
      <point x="123.386" y="0.435211" type="curve" smooth="yes"/>
      <point x="212.734" y="0.435211"/>
      <point x="312.104" y="-134.841"/>
      <point x="312.104" y="-225.86" type="curve" smooth="yes"/>
      <point x="312.104" y="-285.147"/>
      <point x="262.837" y="-346.105"/>
      <point x="201.044" y="-346.105" type="curve" smooth="yes"/>
      <point x="153.447" y="-346.105"/>
      <point x="145.096" y="-331.074"/>
      <point x="129.231" y="-316.044" type="curve" smooth="yes"/>
      <point x="93.3242" y="-282.642"/>
      <point x="167.642" y="-429.609"/>
      <point x="110.86" y="-429.609" type="curve" smooth="yes"/>
      <point x="44.8921" y="-429.609"/>
      <point x="145.096" y="-258.426"/>
      <point x="89.9841" y="-325.229" type="curve" smooth="yes"/>
      <point x="70.7782" y="-347.775"/>
      <point x="41.5519" y="-358.631"/>
      <point x="8.98549" y="-358.631" type="curve" smooth="yes"/>
      <point x="-188.083" y="-358.631"/>
      <point x="-13.5605" y="0.435211"/>
    </contour>
    <contour>
      <point x="-40.2817" y="-223.355" type="curve" smooth="yes"/>
      <point x="-40.2817" y="-296.838"/>
      <point x="-6.88021" y="-322.724"/>
      <point x="41.5519" y="-316.044" type="curve" smooth="yes"/>
      <point x="93.3242" y="-309.363"/>
      <point x="101.675" y="-215.839"/>
      <point x="115.87" y="-240.89" type="curve" smooth="yes"/>
      <point x="130.066" y="-266.777"/>
      <point x="144.261" y="-301.013"/>
      <point x="176.828" y="-308.528" type="curve" smooth="yes"/>
      <point x="247.806" y="-324.394"/>
      <point x="283.713" y="-275.127"/>
      <point x="277.867" y="-200.809" type="curve" smooth="yes"/>
      <point x="273.692" y="-140.686"/>
      <point x="186.848" y="-38.8115"/>
      <point x="123.386" y="-38.8115" type="curve" smooth="yes"/>
      <point x="42.387" y="-38.8115"/>
      <point x="-40.2817" y="-145.696"/>
    </contour>
  </outline>
</glyph>
<glyph name="kn_dh_v" format="2">
  <advance width="908"/>
  <outline>
    <component base="kn_virama" xOffset="261" yOffset="161"/>
    <contour>
      <point x="370" y="-228" type="curve" smooth="yes"/>
      <point x="342" y="-186"/>
      <point x="370" y="-134"/>
      <point x="378" y="-102" type="curve" smooth="yes"/>
      <point x="384" y="-77"/>
      <point x="412" y="43"/>
      <point x="412" y="60" type="curve" smooth="yes"/>
      <point x="412" y="70"/>
      <point x="405" y="72"/>
      <point x="401" y="68" type="curve"/>
      <point x="382" y="50"/>
      <point x="347" y="-13"/>
      <point x="240" y="-3" type="curve" smooth="yes"/>
      <point x="34" y="15"/>
      <point x="111" y="362"/>
      <point x="312" y="514" type="curve" smooth="yes"/>
      <point x="378" y="562"/>
      <point x="456" y="575"/>
      <point x="557" y="507" type="curve" smooth="yes"/>
      <point x="708" y="405"/>
      <point x="827" y="26"/>
      <point x="586" y="6" type="curve" smooth="yes"/>
      <point x="465" y="-4"/>
      <point x="430" y="132"/>
      <point x="441" y="33" type="curve" smooth="yes"/>
      <point x="447" y="-24"/>
      <point x="488" y="-203"/>
      <point x="444" y="-237" type="curve" smooth="yes"/>
      <point x="426" y="-251"/>
      <point x="393" y="-262"/>
    </contour>
    <contour>
      <point x="376" y="101" type="curve" smooth="yes"/>
      <point x="400" y="125"/>
      <point x="408" y="174"/>
      <point x="438" y="139" type="curve" smooth="yes"/>
      <point x="480" y="91"/>
      <point x="612" y="-23"/>
      <point x="660" y="151" type="curve" smooth="yes"/>
      <point x="688" y="253"/>
      <point x="641" y="420"/>
      <point x="523" y="478" type="curve" smooth="yes"/>
      <point x="466" y="506"/>
      <point x="389" y="511"/>
      <point x="336" y="470" type="curve" smooth="yes"/>
      <point x="49" y="248"/>
      <point x="218" y="-57"/>
    </contour>
  </outline>
</glyph>
<glyph name="kn_g.base" format="2">
  <advance width="785"/>
  <outline>
    <contour>
      <point x="93" y="62" type="curve" smooth="yes"/>
      <point x="93" y="77"/>
      <point x="310" y="436"/>
      <point x="376" y="506" type="curve"/>
      <point x="390" y="520"/>
      <point x="420" y="516"/>
      <point x="440" y="488" type="curve" smooth="yes"/>
      <point x="520" y="373"/>
      <point x="603" y="216"/>
      <point x="701" y="44" type="curve" smooth="yes"/>
      <point x="719" y="12"/>
      <point x="665" y="-33"/>
      <point x="627" y="50" type="curve" smooth="yes"/>
      <point x="580" y="152"/>
      <point x="509" y="297"/>
      <point x="451" y="385" type="curve" smooth="yes"/>
      <point x="427" y="422"/>
      <point x="412" y="425"/>
      <point x="398" y="403" type="curve" smooth="yes"/>
      <point x="328" y="297"/>
      <point x="256" y="120"/>
      <point x="203" y="31" type="curve" smooth="yes"/>
      <point x="172" y="-21"/>
      <point x="93" y="-5"/>
    </contour>
    <contour>
      <point x="75" y="530" type="line"/>
      <point x="4" y="530"/>
      <point x="-9" y="629"/>
      <point x="95" y="630" type="curve"/>
      <point x="560" y="630" type="line"/>
      <point x="560" y="589"/>
      <point x="560" y="565"/>
      <point x="560" y="530" type="curve"/>
    </contour>
  </outline>
</glyph>
<glyph name="kn_g_i" format="2">
  <advance width="876"/>
  <outline>
    <contour>
      <point x="181.877" y="65.8386" type="curve" smooth="yes"/>
      <point x="181.877" y="82.8771"/>
      <point x="413.6" y="476.466"/>
      <point x="485.162" y="551.435" type="curve"/>
      <point x="498.793" y="566.77"/>
      <point x="531.166" y="561.658"/>
      <point x="553.316" y="532.693" type="curve"/>
      <point x="638.508" y="408.312"/>
      <point x="727.108" y="231.112"/>
      <point x="831.043" y="47.0963" type="curve"/>
      <point x="851.489" y="13.0194"/>
      <point x="793.558" y="-34.6884"/>
      <point x="752.666" y="53.9117" type="curve" smooth="yes"/>
      <point x="703.254" y="162.958"/>
      <point x="626.581" y="318.008"/>
      <point x="565.243" y="411.72" type="curve" smooth="yes"/>
      <point x="539.685" y="450.908"/>
      <point x="522.647" y="454.316"/>
      <point x="507.312" y="430.462" type="curve" smooth="yes"/>
      <point x="434.046" y="318.008"/>
      <point x="355.67" y="128.881"/>
      <point x="299.443" y="33.4655" type="curve" smooth="yes"/>
      <point x="267.069" y="-22.7614"/>
      <point x="181.877" y="-5.72295"/>
    </contour>
    <contour>
      <point x="41.8336" y="690.758" type="curve" smooth="yes"/>
      <point x="57.1654" y="785.248"/>
      <point x="149.712" y="810.234"/>
      <point x="232.39" y="796.819" type="curve" smooth="yes"/>
      <point x="330.423" y="780.912"/>
      <point x="481.028" y="707.987"/>
      <point x="540.294" y="557.753" type="curve" smooth="yes"/>
      <point x="551.624" y="530.458"/>
      <point x="557.115" y="534.416"/>
      <point x="526.468" y="524.842" type="curve"/>
      <point x="418.599" y="495.068"/>
      <point x="326.182" y="485.819"/>
      <point x="216.337" y="503.642" type="curve" smooth="yes"/>
      <point x="133.659" y="517.058"/>
      <point x="26.3101" y="595.087"/>
    </contour>
    <contour>
      <point x="105.485" y="664.671" type="curve" smooth="yes"/>
      <point x="87.5055" y="591.219"/>
      <point x="204.753" y="544.313"/>
      <point x="285.996" y="544.465" type="curve" smooth="yes"/>
      <point x="336.945" y="544.684"/>
      <point x="385.661" y="561.023"/>
      <point x="404.977" y="597.892" type="curve" smooth="yes"/>
      <point x="447.123" y="678.334"/>
      <point x="326.492" y="734.274"/>
      <point x="232.832" y="739.773" type="curve" smooth="yes"/>
      <point x="164.358" y="743.61"/>
      <point x="117.652" y="717.247"/>
    </contour>
  </outline>
</glyph>
<glyph name="kn_g_ottu" format="2">
  <advance width="265"/>
  <outline>
    <contour>
      <point x="57" y="89" type="curve" smooth="yes"/>
      <point x="109" y="89"/>
      <point x="135" y="25"/>
      <point x="159" y="-13" type="curve" smooth="yes"/>
      <point x="209" y="-91"/>
      <point x="237" y="-180"/>
      <point x="272" y="-265" type="curve" smooth="yes"/>
      <point x="288" y="-305"/>
      <point x="228" y="-328"/>
      <point x="223" y="-309" type="curve" smooth="yes"/>
      <point x="214" y="-275"/>
      <point x="131" y="-39"/>
      <point x="82" y="19" type="curve" smooth="yes"/>
      <point x="77" y="25"/>
      <point x="70" y="33"/>
      <point x="62" y="19" type="curve" smooth="yes"/>
      <point x="36" y="-29"/>
      <point x="-56" y="-221"/>
      <point x="-102" y="-307" type="curve" smooth="yes"/>
      <point x="-116" y="-333"/>
      <point x="-162" y="-302"/>
      <point x="-148" y="-268" type="curve" smooth="yes"/>
      <point x="-118" y="-197"/>
      <point x="-40" y="-30"/>
      <point x="0" y="52" type="curve" smooth="yes"/>
      <point x="11" y="74"/>
      <point x="30" y="89"/>
    </contour>
  </outline>
</glyph>
<glyph name="kn_g_ottu2" format="2">
  <advance width="406"/>
  <outline>
    <contour>
      <point x="218" y="89" type="curve" smooth="yes"/>
      <point x="270" y="89"/>
      <point x="296" y="25"/>
      <point x="320" y="-13" type="curve" smooth="yes"/>
      <point x="370" y="-91"/>
      <point x="398" y="-180"/>
      <point x="433" y="-265" type="curve" smooth="yes"/>
      <point x="449" y="-305"/>
      <point x="389" y="-328"/>
      <point x="384" y="-309" type="curve" smooth="yes"/>
      <point x="375" y="-275"/>
      <point x="292" y="-39"/>
      <point x="243" y="19" type="curve" smooth="yes"/>
      <point x="238" y="25"/>
      <point x="231" y="33"/>
      <point x="223" y="19" type="curve" smooth="yes"/>
      <point x="197" y="-29"/>
      <point x="105" y="-221"/>
      <point x="59" y="-307" type="curve" smooth="yes"/>
      <point x="45" y="-333"/>
      <point x="-1" y="-302"/>
      <point x="13" y="-268" type="curve" smooth="yes"/>
      <point x="43" y="-197"/>
      <point x="121" y="-30"/>
      <point x="161" y="52" type="curve" smooth="yes"/>
      <point x="172" y="74"/>
      <point x="191" y="89"/>
    </contour>
  </outline>
</glyph>
<glyph name="kn_gh_ottu" format="2">
  <advance width="519"/>
  <outline>
    <contour>
      <point x="318" y="36" type="curve" smooth="yes"/>
      <point x="293" y="51"/>
      <point x="309" y="66"/>
      <point x="332" y="57" type="curve" smooth="yes"/>
      <point x="430" y="17"/>
      <point x="529" y="-90"/>
      <point x="529" y="-200" type="curve" smooth="yes"/>
      <point x="529" y="-254"/>
      <point x="477" y="-310"/>
      <point x="420" y="-315" type="curve" smooth="yes"/>
      <point x="328" y="-323"/>
      <point x="276" y="-233"/>
      <point x="249" y="-195" type="curve"/>
      <point x="243" y="-248"/>
      <point x="203" y="-306"/>
      <point x="148" y="-312" type="curve" smooth="yes"/>
      <point x="35" y="-323"/>
      <point x="-11" y="-221"/>
      <point x="-62" y="-195" type="curve"/>
      <point x="-57" y="-226"/>
      <point x="-79" y="-315"/>
      <point x="-142" y="-315" type="curve" smooth="yes"/>
      <point x="-208" y="-315"/>
      <point x="-253" y="-260"/>
      <point x="-253" y="-192" type="curve" smooth="yes"/>
      <point x="-253" y="-136"/>
      <point x="-212" y="-109"/>
      <point x="-157" y="-109" type="curve" smooth="yes"/>
      <point x="-57" y="-109"/>
      <point x="9" y="-266"/>
      <point x="81" y="-272" type="curve" smooth="yes"/>
      <point x="227" y="-284"/>
      <point x="207" y="-108"/>
      <point x="111" y="-30" type="curve" smooth="yes"/>
      <point x="82" y="-6"/>
      <point x="9" y="6"/>
      <point x="9" y="36" type="curve" smooth="yes"/>
      <point x="9" y="44"/>
      <point x="21" y="48"/>
      <point x="27" y="48" type="curve"/>
      <point x="184" y="43"/>
      <point x="243" y="-214"/>
      <point x="344" y="-257" type="curve" smooth="yes"/>
      <point x="414" y="-287"/>
      <point x="471" y="-223"/>
      <point x="471" y="-148" type="curve" smooth="yes"/>
      <point x="471" y="-61"/>
      <point x="386" y="-5"/>
    </contour>
    <contour>
      <point x="-211" y="-195" type="curve" smooth="yes"/>
      <point x="-215" y="-231"/>
      <point x="-195" y="-259"/>
      <point x="-168" y="-259" type="curve" smooth="yes"/>
      <point x="-137" y="-259"/>
      <point x="-111" y="-247"/>
      <point x="-108" y="-214" type="curve" smooth="yes"/>
      <point x="-106" y="-188"/>
      <point x="-116" y="-164"/>
      <point x="-151" y="-157" type="curve" smooth="yes"/>
      <point x="-179" y="-152"/>
      <point x="-209" y="-174"/>
    </contour>
    <contour>
      <point x="-45" y="-291" type="curve" smooth="yes"/>
      <point x="-48" y="-276"/>
      <point x="-51" y="-258"/>
      <point x="-37" y="-257" type="curve"/>
      <point x="-21" y="-255"/>
      <point x="-25" y="-274"/>
      <point x="-25" y="-285" type="curve" smooth="yes"/>
      <point x="-25" y="-320"/>
      <point x="11" y="-390"/>
      <point x="22" y="-458" type="curve"/>
      <point x="24" y="-477"/>
      <point x="30" y="-518"/>
      <point x="4" y="-520" type="curve" smooth="yes"/>
      <point x="-42" y="-524"/>
      <point x="-36" y="-449"/>
      <point x="-34" y="-417" type="curve" smooth="yes"/>
      <point x="-30" y="-364"/>
      <point x="-37" y="-334"/>
    </contour>
  </outline>
</glyph>
<glyph name="kn_h_i" format="2">
  <advance width="847"/>
  <outline>
    <component base="kn_ma_i2" xOffset="117" yOffset="32"/>
    <contour>
      <point x="596.274" y="-3" type="curve" smooth="yes"/>
      <point x="491" y="-3"/>
      <point x="460" y="84"/>
      <point x="434" y="126" type="curve"/>
      <point x="430" y="132"/>
      <point x="422" y="130"/>
      <point x="419" y="125" type="curve"/>
      <point x="386" y="74"/>
      <point x="328" y="2"/>
      <point x="219" y="2" type="curve" smooth="yes"/>
      <point x="85" y="2"/>
      <point x="30" y="162"/>
      <point x="42" y="249" type="curve" smooth="yes"/>
      <point x="58" y="367"/>
      <point x="137" y="459"/>
      <point x="261" y="449" type="curve" smooth="yes"/>
      <point x="335" y="443"/>
      <point x="391" y="363"/>
      <point x="413" y="341" type="curve" smooth="yes"/>
      <point x="424" y="330"/>
      <point x="430" y="335"/>
      <point x="446" y="345" type="curve" smooth="yes"/>
      <point x="456" y="351"/>
      <point x="479" y="374"/>
      <point x="503" y="393" type="curve" smooth="yes"/>
      <point x="607" y="477"/>
      <point x="770" y="402"/>
      <point x="800" y="282" type="curve" smooth="yes"/>
      <point x="831" y="166"/>
      <point x="743" y="-3"/>
    </contour>
    <contour>
      <point x="219" y="102" type="curve" smooth="yes"/>
      <point x="307" y="102"/>
      <point x="387" y="154"/>
      <point x="387" y="252" type="curve" smooth="yes"/>
      <point x="387" y="322"/>
      <point x="298" y="396"/>
      <point x="227" y="396" type="curve" smooth="yes"/>
      <point x="142" y="396"/>
      <point x="94" y="335"/>
      <point x="84" y="266" type="curve" smooth="yes"/>
      <point x="71" y="168"/>
      <point x="133" y="102"/>
    </contour>
    <contour>
      <point x="597" y="93" type="curve" smooth="yes"/>
      <point x="682" y="93"/>
      <point x="761" y="136"/>
      <point x="761" y="234" type="curve" smooth="yes"/>
      <point x="761" y="330"/>
      <point x="672" y="396"/>
      <point x="583" y="385" type="curve" smooth="yes"/>
      <point x="512" y="376"/>
      <point x="444" y="311"/>
      <point x="444" y="234" type="curve" smooth="yes"/>
      <point x="444" y="154"/>
      <point x="520" y="93"/>
    </contour>
  </outline>
</glyph>
<glyph name="kn_j_ottu2" format="2">
  <advance width="476"/>
  <outline>
    <contour>
      <point x="138.949" y="-308.535" type="curve" smooth="yes"/>
      <point x="63.7784" y="-308.535"/>
      <point x="10.4925" y="-272.377"/>
      <point x="10.4925" y="-192.448" type="curve" smooth="yes"/>
      <point x="10.4925" y="-71.6036"/>
      <point x="219.83" y="-92.5373"/>
      <point x="219.83" y="-15.4631" type="curve" smooth="yes"/>
      <point x="219.83" y="91.1085"/>
      <point x="71.3906" y="58.7564"/>
      <point x="71.3906" y="14.0344" type="curve" smooth="yes"/>
      <point x="71.3906" y="3.56752"/>
      <point x="77.0998" y="-4.99627"/>
      <point x="77.0998" y="-15.4631" type="curve" smooth="yes"/>
      <point x="77.0998" y="-28.7846"/>
      <point x="69.4876" y="-40.203"/>
      <point x="55.2146" y="-40.203" type="curve" smooth="yes"/>
      <point x="33.3293" y="-40.203"/>
      <point x="14.2987" y="-21.1723"/>
      <point x="14.2987" y="0.712922" type="curve" smooth="yes"/>
      <point x="14.2987" y="52.0957"/>
      <point x="87.5667" y="96.8177"/>
      <point x="134.192" y="98.7208" type="curve" smooth="yes"/>
      <point x="219.83" y="102.527"/>
      <point x="257.891" y="72.0779"/>
      <point x="257.891" y="-18.3177" type="curve" smooth="yes"/>
      <point x="257.891" y="-24.9785"/>
      <point x="256.94" y="-44.0091"/>
      <point x="264.552" y="-46.8637" type="curve"/>
      <point x="314.031" y="-67.7974"/>
      <point x="458.664" y="-74.4582"/>
      <point x="468.18" y="13.0828" type="curve" smooth="yes"/>
      <point x="470.083" y="34.0166"/>
      <point x="456.761" y="70.1748"/>
      <point x="454.858" y="91.1085" type="curve"/>
      <point x="454.858" y="95.8662"/>
      <point x="453.907" y="112.042"/>
      <point x="463.422" y="102.527" type="curve"/>
      <point x="480.55" y="88.2539"/>
      <point x="505.29" y="47.338"/>
      <point x="505.29" y="7.37365" type="curve" smooth="yes"/>
      <point x="505.29" y="-51.6214"/>
      <point x="471.986" y="-83.9735"/>
      <point x="430.118" y="-92.5373" type="curve" smooth="yes"/>
      <point x="357.802" y="-107.762"/>
      <point x="314.983" y="-103.004"/>
      <point x="223.636" y="-88.7312" type="curve" smooth="yes"/>
      <point x="176.059" y="-81.1189"/>
      <point x="58.0692" y="-105.859"/>
      <point x="58.0692" y="-189.594" type="curve" smooth="yes"/>
      <point x="58.0692" y="-256.201"/>
      <point x="101.84" y="-276.183"/>
      <point x="153.222" y="-269.522" type="curve" smooth="yes"/>
      <point x="215.072" y="-261.91"/>
      <point x="241.715" y="-137.259"/>
      <point x="257.891" y="-158.193" type="curve" smooth="yes"/>
      <point x="269.309" y="-172.466"/>
      <point x="269.309" y="-185.787"/>
      <point x="274.067" y="-199.109" type="curve" smooth="yes"/>
      <point x="301.662" y="-277.135"/>
      <point x="416.797" y="-272.377"/>
      <point x="429.167" y="-218.14" type="curve" smooth="yes"/>
      <point x="433.925" y="-198.157"/>
      <point x="418.7" y="-158.193"/>
      <point x="452.004" y="-158.193" type="curve" smooth="yes"/>
      <point x="474.841" y="-158.193"/>
      <point x="473.889" y="-208.624"/>
      <point x="473.889" y="-224.8" type="curve" smooth="yes"/>
      <point x="473.889" y="-275.232"/>
      <point x="426.312" y="-319.954"/>
      <point x="382.542" y="-319.954" type="curve" smooth="yes"/>
      <point x="314.983" y="-319.954"/>
      <point x="267.406" y="-260.959"/>
      <point x="251.23" y="-212.43" type="curve" smooth="yes"/>
      <point x="246.473" y="-198.157"/>
      <point x="220.781" y="-308.535"/>
    </contour>
  </outline>
</glyph>
<glyph name="kn_j_u" format="2">
  <advance width="1076"/>
  <outline>
    <component base="kn_j"/>
    <contour>
      <point x="878.641" y="614.653" type="curve" smooth="yes"/>
      <point x="856.072" y="622.308"/>
      <point x="886.658" y="656.711"/>
      <point x="921.91" y="639.375" type="curve" smooth="yes"/>
      <point x="970.129" y="616.773"/>
      <point x="1007.82" y="568.238"/>
      <point x="1028.29" y="507.06" type="curve"/>
      <point x="1056.38" y="412.578"/>
      <point x="1008.55" y="261.321"/>
      <point x="869.006" y="263.611" type="curve" smooth="yes"/>
      <point x="769.738" y="264.651"/>
      <point x="694.975" y="329.752"/>
      <point x="671.629" y="387.566" type="curve" smooth="yes"/>
      <point x="659.308" y="416.737"/>
      <point x="678.626" y="482.904"/>
      <point x="688.15" y="465.443" type="curve" smooth="yes"/>
      <point x="723.652" y="396.649"/>
      <point x="752.264" y="351.801"/>
      <point x="816.891" y="336.13" type="curve" smooth="yes"/>
      <point x="943.025" y="304.543"/>
      <point x="1051.51" y="426.637"/>
      <point x="952.674" y="558.912" type="curve" smooth="yes"/>
      <point x="935.126" y="582.652"/>
      <point x="898.617" y="608.052"/>
    </contour>
  </outline>
</glyph>
<glyph name="kn_jh_i" format="2">
  <advance width="1564"/>
  <outline>
    <component base="kn_r_i"/>
    <contour>
      <point x="601.783" y="241.621" type="curve"/>
      <point x="636.418" y="159.98"/>
      <point x="688.372" y="80.8123"/>
      <point x="794.753" y="80.8123" type="curve" smooth="yes"/>
      <point x="1069.36" y="80.8123"/>
      <point x="1024.83" y="397.481"/>
      <point x="908.556" y="548.394" type="curve" smooth="yes"/>
      <point x="873.92" y="592.926"/>
      <point x="915.978" y="600.348"/>
      <point x="945.665" y="580.556" type="curve" smooth="yes"/>
      <point x="1066.89" y="501.389"/>
      <point x="1091.63" y="197.089"/>
      <point x="1091.63" y="58.5465" type="curve" smooth="yes"/>
      <point x="1091.63" y="-5.77693"/>
      <point x="1081.73" y="-117.106"/>
      <point x="1042.15" y="-60.2044" type="curve" smooth="yes"/>
      <point x="1024.83" y="-35.4647"/>
      <point x="1024.83" y="61.0205"/>
      <point x="1024.83" y="93.1822" type="curve" smooth="yes"/>
      <point x="1024.83" y="117.922"/>
      <point x="958.035" y="4.11898"/>
      <point x="817.019" y="4.11898" type="curve" smooth="yes"/>
      <point x="663.632" y="4.11898"/>
      <point x="611.678" y="98.1301"/>
      <point x="569.621" y="159.98" type="curve" smooth="yes"/>
      <point x="564.673" y="167.402"/>
      <point x="584.465" y="204.511"/>
    </contour>
    <contour>
      <point x="1259.86" y="518.706" type="curve" smooth="yes"/>
      <point x="1225.22" y="523.654"/>
      <point x="1259.86" y="580.556"/>
      <point x="1314.29" y="563.238" type="curve"/>
      <point x="1388.51" y="543.446"/>
      <point x="1452.83" y="484.071"/>
      <point x="1494.89" y="399.955" type="curve"/>
      <point x="1556.74" y="273.783"/>
      <point x="1524.58" y="48.6506"/>
      <point x="1326.66" y="18.9629" type="curve" smooth="yes"/>
      <point x="1185.64" y="-0.828972"/>
      <point x="1066.89" y="73.3904"/>
      <point x="1019.88" y="150.084" type="curve"/>
      <point x="995.145" y="187.193"/>
      <point x="1007.51" y="286.152"/>
      <point x="1024.83" y="263.887" type="curve" smooth="yes"/>
      <point x="1091.63" y="174.823"/>
      <point x="1141.11" y="117.922"/>
      <point x="1237.59" y="110.5" type="curve" smooth="yes"/>
      <point x="1423.14" y="95.6562"/>
      <point x="1546.84" y="293.574"/>
      <point x="1376.14" y="456.857" type="curve" smooth="yes"/>
      <point x="1346.45" y="486.545"/>
      <point x="1289.55" y="513.758"/>
    </contour>
  </outline>
</glyph>
<glyph name="kn_jh_ottu" format="2">
  <advance width="878"/>
  <outline>
    <contour>
      <point x="702.176" y="54.8207" type="curve" smooth="yes"/>
      <point x="702.176" y="63.3045"/>
      <point x="709.717" y="71.7882"/>
      <point x="718.201" y="71.7882" type="curve" smooth="yes"/>
      <point x="852.998" y="71.7882"/>
      <point x="895.416" y="-95.0585"/>
      <point x="886.933" y="-187.437" type="curve" smooth="yes"/>
      <point x="881.277" y="-244.938"/>
      <point x="826.604" y="-309.98"/>
      <point x="767.218" y="-318.463" type="curve" smooth="yes"/>
      <point x="693.692" y="-328.832"/>
      <point x="610.74" y="-260.963"/>
      <point x="557.01" y="-173.297" type="curve"/>
      <point x="542.87" y="-247.766"/>
      <point x="478.771" y="-318.463"/>
      <point x="396.762" y="-318.463" type="curve" smooth="yes"/>
      <point x="323.236" y="-318.463"/>
      <point x="284.588" y="-265.676"/>
      <point x="248.768" y="-210.06" type="curve"/>
      <point x="232.743" y="-231.741"/>
      <point x="204.464" y="-292.07"/>
      <point x="146.02" y="-314.693" type="curve" smooth="yes"/>
      <point x="46.1009" y="-352.398"/>
      <point x="-79.2697" y="-276.987"/>
      <point x="-79.2697" y="-159.158" type="curve" smooth="yes"/>
      <point x="-79.2697" y="-65.8367"/>
      <point x="3.68229" y="20.8858"/>
      <point x="97.9459" y="20.8858" type="curve" smooth="yes"/>
      <point x="295.9" y="20.8858"/>
      <point x="211.062" y="-204.404"/>
      <point x="328.892" y="-255.307" type="curve" smooth="yes"/>
      <point x="414.672" y="-292.07"/>
      <point x="530.616" y="-240.224"/>
      <point x="530.616" y="-129.936" type="curve" smooth="yes"/>
      <point x="530.616" y="-23.4181"/>
      <point x="492.911" y="-5.50801"/>
      <point x="437.295" y="27.4843" type="curve" smooth="yes"/>
      <point x="403.36" y="47.2796"/>
      <point x="460.861" y="53.8781"/>
      <point x="478.771" y="47.2796" type="curve" smooth="yes"/>
      <point x="521.19" y="32.1974"/>
      <point x="552.297" y="-38.5003"/>
      <point x="559.838" y="-87.5174" type="curve" smooth="yes"/>
      <point x="572.092" y="-164.814"/>
      <point x="623.937" y="-266.618"/>
      <point x="713.488" y="-266.618" type="curve" smooth="yes"/>
      <point x="873.736" y="-266.618"/>
      <point x="877.506" y="-57.353"/>
      <point x="793.612" y="3.91835" type="curve" smooth="yes"/>
      <point x="761.562" y="27.4843"/>
      <point x="702.176" y="37.8533"/>
    </contour>
    <contour>
      <point x="-50.048" y="-135.592" type="curve" smooth="yes"/>
      <point x="-56.6464" y="-211.003"/>
      <point x="-11.3999" y="-275.102"/>
      <point x="75.3227" y="-275.102" type="curve" smooth="yes"/>
      <point x="162.988" y="-275.102"/>
      <point x="216.718" y="-213.831"/>
      <point x="215.776" y="-125.223" type="curve" smooth="yes"/>
      <point x="214.833" y="-62.0662"/>
      <point x="157.332" y="-16.8197"/>
      <point x="90.4048" y="-13.9917" type="curve" smooth="yes"/>
      <point x="28.1908" y="-12.1065"/>
      <point x="-43.4495" y="-61.1236"/>
    </contour>
    <contour>
      <point x="571.149" y="-246.823" type="curve" smooth="yes"/>
      <point x="576.805" y="-251.536"/>
      <point x="584.346" y="-276.045"/>
      <point x="586.232" y="-280.758" type="curve"/>
      <point x="590.002" y="-293.012"/>
      <point x="617.339" y="-362.767"/>
      <point x="622.052" y="-391.989" type="curve" smooth="yes"/>
      <point x="626.765" y="-423.096"/>
      <point x="610.74" y="-457.974"/>
      <point x="573.977" y="-457.974" type="curve" smooth="yes"/>
      <point x="542.87" y="-457.974"/>
      <point x="541.928" y="-437.236"/>
      <point x="541.928" y="-412.727" type="curve" smooth="yes"/>
      <point x="541.928" y="-382.563"/>
      <point x="555.125" y="-233.626"/>
    </contour>
  </outline>
</glyph>
